<svg width="24" height="24" viewBox="0 0 24 24" fill="none" xmlns="http://www.w3.org/2000/svg">
<path d="M8.66138 16.6241C8.66138 15.2426 8.66138 13.8612 8.66138 12.4815C8.66138 11.2152 9.50101 10.4093 10.8191 10.4075C11.6152 10.4075 12.4133 10.4057 13.2094 10.4075C14.4821 10.4112 15.3293 11.2262 15.3293 12.4505C15.3293 15.281 15.3293 18.1097 15.3293 20.9402C15.3293 21.6182 14.9303 22.0056 14.2249 22.0056C12.7328 22.0074 11.2408 22.0074 9.74874 22.0056C9.0585 22.0056 8.66138 21.6182 8.66138 20.9494C8.66138 19.5076 8.66138 18.0658 8.66138 16.6259V16.6241Z" fill="#37E3EA"/>
<path d="M7.67025 18.1663C7.67025 19.08 7.67025 19.9937 7.67025 20.9055C7.67025 21.6255 7.27502 22.0037 6.52616 22.0037C5.39341 22.0037 4.26066 22.0037 3.12791 22.0037C2.38662 22.0037 2.00084 21.6309 2.00084 20.9183C2.00084 19.3852 1.99895 17.8539 2.00084 16.3207C2.00273 15.0891 2.84047 14.2833 4.11505 14.2796C4.93577 14.2778 5.75649 14.2778 6.57532 14.2796C7.26178 14.2814 7.66836 14.6707 7.67025 15.334C7.67403 16.2769 7.67025 17.2216 7.67025 18.1645V18.1663Z" fill="#37E3EA"/>
<path d="M19.1681 22.0056C18.5819 22.0056 17.9957 22.0074 17.4094 22.0056C16.7381 22.0019 16.3315 21.6109 16.3278 20.9603C16.324 20.0467 16.3221 19.133 16.3278 18.2212C16.3315 17.5725 16.74 17.1851 17.4151 17.1832C18.251 17.1814 19.0868 17.1796 19.9227 17.1832C21.1537 17.1905 21.9896 18.0019 21.9972 19.1933C22.0009 19.7817 22.0009 20.3701 21.9972 20.9585C21.9934 21.6236 21.5963 22.0037 20.9003 22.0056C20.3217 22.0074 19.7449 22.0056 19.1662 22.0056H19.1681Z" fill="#37E3EA"/>
<path d="M12.7396 1.51348C12.466 0.828841 11.534 0.828841 11.2604 1.51348L10.5588 3.26801L8.73793 3.42001C8.02791 3.47896 7.73991 4.40149 8.28112 4.88402L9.66835 6.12066L9.24434 7.96993C9.07914 8.6912 9.83315 9.26131 10.4412 8.87478L12 7.88404L13.5588 8.8752C14.1668 9.26173 14.9209 8.69162 14.7557 7.96993L14.3317 6.1215L15.7189 4.88444C16.2601 4.40191 15.9721 3.4798 15.2621 3.42043L13.4412 3.26885L12.7396 1.51348Z" fill="#3761EA"/>
</svg>
