<svg width="22" height="21" viewBox="0 0 22 21" fill="none" xmlns="http://www.w3.org/2000/svg">
<path fill-rule="evenodd" clip-rule="evenodd" d="M15.5867 1.27599C14.9986 1.09655 14.3742 1 13.7273 1H7.36364C3.84912 1 1 3.84912 1 7.36364V13.7273C1 17.2418 3.84912 20.0909 7.36364 20.0909H13.7273C17.2418 20.0909 20.0909 17.2418 20.0909 13.7273V7.36364C20.0909 7.20339 20.0849 7.04453 20.0734 6.88728C19.5425 7.19041 18.9279 7.36364 18.2727 7.36364C16.2643 7.36364 14.6364 5.73561 14.6364 3.72727C14.6364 2.78278 14.9964 1.92246 15.5867 1.27599ZM11 14.1818C11 15.9391 9.57555 17.3636 7.81818 17.3636C6.06081 17.3636 4.63636 15.9391 4.63636 14.1818C4.63636 12.4246 6.06081 11 7.81818 11C9.57555 11 11 12.4246 11 14.1818Z" fill="#37E3EA"/>
<path d="M21 3.27273C21 4.52792 19.9825 5.54545 18.7273 5.54545C17.4721 5.54545 16.4545 4.52792 16.4545 3.27273C16.4545 2.01753 17.4721 1 18.7273 1C19.9825 1 21 2.01753 21 3.27273Z" fill="#37E3EA"/>
</svg>
