<svg width="24" height="24" viewBox="0 0 24 24" fill="none" xmlns="http://www.w3.org/2000/svg">
<path d="M21.7059 6.259H17.3779V2.212C18.3822 2.46664 19.3056 2.97126 20.0624 3.67887C20.8191 4.38648 21.3845 5.27407 21.7059 6.259ZM6.64989 2.212V6.259H2.27489C2.59967 5.26798 3.1719 4.3762 3.93747 3.66803C4.70304 2.95986 5.63662 2.45871 6.64989 2.212ZM15.6129 2H8.41489V6.259H15.6129V2ZM21.9999 8.024H2.00389C1.99838 8.07452 1.99838 8.12548 2.00389 8.176V15.823C2.00388 17.4569 2.65124 19.0243 3.80425 20.182C4.95726 21.3397 6.52199 21.9934 8.15589 22H15.8009C17.4382 21.9974 19.0077 21.3457 20.1654 20.1878C21.3231 19.0299 21.9745 17.4603 21.9769 15.823V8.176C21.9901 8.12633 21.9978 8.07536 21.9999 8.024ZM15.6719 15.164C15.5795 15.3381 15.4514 15.4908 15.2959 15.612L11.7659 18.082C11.5788 18.2127 11.3596 18.2901 11.1319 18.306H11.0139C10.8066 18.3091 10.6018 18.2614 10.4172 18.1671C10.2326 18.0728 10.0739 17.9348 9.95489 17.765C9.82489 17.57 9.75489 17.34 9.75489 17.105V12.495C9.75389 12.265 9.81889 12.04 9.94389 11.847C10.0739 11.67 10.2429 11.525 10.4379 11.424C10.6379 11.334 10.8539 11.289 11.0729 11.294C11.2839 11.304 11.4899 11.364 11.6729 11.471L15.1999 13.6C15.3725 13.6997 15.5171 13.8415 15.6201 14.0122C15.7231 14.1828 15.7811 14.3768 15.7889 14.576C15.8049 14.78 15.7639 14.983 15.6709 15.165" fill="#37E3EA"/>
</svg>
