<svg width="35" height="35" viewBox="0 0 35 35" fill="none" xmlns="http://www.w3.org/2000/svg">
<rect width="35" height="35" rx="8" fill="#EFF2FD"/>
<path fill-rule="evenodd" clip-rule="evenodd" d="M13.2499 11.881V10.461C13.2501 10.042 13.4005 9.63698 13.674 9.31952C13.9474 9.00206 14.3256 8.79323 14.7399 8.73098L15.9599 8.54798C17.3124 8.34582 18.6875 8.34582 20.0399 8.54798L21.2599 8.73098C21.6744 8.79325 22.0528 9.00223 22.3263 9.3199C22.5997 9.63757 22.75 10.0428 22.7499 10.462V11.882L24.4439 12.019C25.0259 12.0658 25.5754 12.3064 26.0045 12.7024C26.4336 13.0983 26.7175 13.6266 26.8109 14.203C26.8524 14.4608 26.89 14.7191 26.9239 14.978C26.9318 15.0405 26.9198 15.1038 26.8897 15.1591C26.8595 15.2144 26.8127 15.2588 26.7559 15.286L26.6789 15.322C24.5176 16.3453 22.1861 16.9612 19.82 17.1695C19.5046 16.4795 18.8083 16 18 16C17.1917 16 16.4954 16.4795 16.18 17.1695C13.814 16.9611 11.4825 16.3452 9.32094 15.322L9.24394 15.286C9.18697 15.2589 9.13998 15.2146 9.10964 15.1593C9.0793 15.104 9.06716 15.0406 9.07494 14.978C9.10961 14.7193 9.14761 14.461 9.18894 14.203C9.28236 13.6266 9.56631 13.0983 9.99541 12.7024C10.4245 12.3064 10.974 12.0658 11.5559 12.019L13.2499 11.881ZM16.1101 18.656C13.7771 18.4404 11.4765 17.8551 9.3197 16.9C9.29019 16.8866 9.25787 16.8807 9.22554 16.8826C9.1932 16.8845 9.16181 16.8942 9.13407 16.9109C9.10633 16.9277 9.08307 16.9509 9.06628 16.9786C9.04949 17.0063 9.03969 17.0376 9.0377 17.07C8.93642 18.9845 9.03934 20.9043 9.3447 22.797C9.43791 23.3735 9.72178 23.9021 10.1509 24.2982C10.58 24.6943 11.1296 24.9351 11.7117 24.982L13.5837 25.132C16.6267 25.378 19.6837 25.378 22.7277 25.132L24.5997 24.982C25.1818 24.9351 25.7314 24.6943 26.1605 24.2982C26.5896 23.9021 26.8735 23.3735 26.9667 22.797C27.2727 20.902 27.3767 18.982 27.2737 17.071V17.07C27.2717 17.0376 27.2619 17.0063 27.2451 16.9786C27.2283 16.9509 27.2051 16.9277 27.1773 16.9109C27.1496 16.8942 27.1182 16.8845 27.0859 16.8826C27.0535 16.8807 27.0212 16.8866 26.9917 16.9C24.736 17.8989 22.3231 18.4933 19.8802 18.6833C19.601 19.4514 18.8646 20 18 20C17.1252 20 16.3816 19.4383 16.1101 18.656ZM16.1829 10.031C17.3876 9.85105 18.6123 9.85105 19.8169 10.031L21.0369 10.214C21.0961 10.2228 21.1502 10.2526 21.1893 10.298C21.2284 10.3433 21.2499 10.4011 21.2499 10.461V11.776C19.085 11.6523 16.9148 11.6523 14.7499 11.776V10.461C14.75 10.4011 14.7715 10.3433 14.8106 10.298C14.8497 10.2526 14.9037 10.2228 14.9629 10.214L16.1829 10.031Z" fill="#B4B4B4"/>
<path fill-rule="evenodd" clip-rule="evenodd" d="M13.2499 10.461V11.881L11.5559 12.019C10.974 12.0658 10.4245 12.3064 9.99541 12.7024C9.56631 13.0983 9.28236 13.6266 9.18894 14.203C9.14761 14.461 9.10961 14.7193 9.07494 14.978C9.06716 15.0406 9.0793 15.104 9.10964 15.1593C9.13998 15.2146 9.18697 15.2589 9.24394 15.286L9.32094 15.322C14.7499 17.892 21.2509 17.892 26.6789 15.322L26.7559 15.286C26.8127 15.2588 26.8595 15.2144 26.8897 15.1591C26.9198 15.1038 26.9318 15.0405 26.9239 14.978C26.89 14.7191 26.8524 14.4608 26.8109 14.203C26.7175 13.6266 26.4336 13.0983 26.0045 12.7024C25.5754 12.3064 25.0259 12.0658 24.4439 12.019L22.7499 11.882V10.462C22.75 10.0428 22.5997 9.63757 22.3263 9.3199C22.0528 9.00223 21.6744 8.79325 21.2599 8.73098L20.0399 8.54798C18.6875 8.34582 17.3124 8.34582 15.9599 8.54798L14.7399 8.73098C14.3256 8.79323 13.9474 9.00206 13.674 9.31952C13.4005 9.63698 13.2501 10.042 13.2499 10.461ZM19.8169 10.031C18.6123 9.85105 17.3876 9.85105 16.1829 10.031L14.9629 10.214C14.9037 10.2228 14.8497 10.2526 14.8106 10.298C14.7715 10.3433 14.75 10.4011 14.7499 10.461V11.776C16.9148 11.6523 19.085 11.6523 21.2499 11.776V10.461C21.2499 10.4011 21.2284 10.3433 21.1893 10.298C21.1502 10.2526 21.0961 10.2228 21.0369 10.214L19.8169 10.031Z" fill="#37E3EA"/>
<path d="M27.2737 17.07C27.2717 17.0376 27.2619 17.0063 27.2451 16.9786C27.2283 16.9509 27.2051 16.9277 27.1773 16.9109C27.1496 16.8942 27.1182 16.8845 27.0859 16.8826C27.0535 16.8807 27.0212 16.8866 26.9917 16.9C21.4207 19.367 14.8907 19.367 9.3197 16.9C9.29019 16.8866 9.25787 16.8807 9.22554 16.8826C9.1932 16.8845 9.16181 16.8942 9.13407 16.9109C9.10633 16.9277 9.08307 16.9509 9.06628 16.9786C9.04949 17.0063 9.03969 17.0376 9.0377 17.07C8.93642 18.9845 9.03934 20.9043 9.3447 22.797C9.43791 23.3735 9.72178 23.9021 10.1509 24.2982C10.58 24.6943 11.1296 24.9351 11.7117 24.982L13.5837 25.132C16.6267 25.378 19.6837 25.378 22.7277 25.132L24.5997 24.982C25.1818 24.9351 25.7314 24.6943 26.1605 24.2982C26.5896 23.9021 26.8735 23.3735 26.9667 22.797C27.2727 20.902 27.3767 18.982 27.2737 17.071" fill="#37E3EA"/>
<path fill-rule="evenodd" clip-rule="evenodd" d="M13.2499 10.461V11.881L11.5559 12.019C10.974 12.0658 10.4245 12.3064 9.99541 12.7024C9.56631 13.0983 9.28236 13.6266 9.18894 14.203C9.14761 14.461 9.10961 14.7193 9.07494 14.978C9.06716 15.0406 9.0793 15.104 9.10964 15.1593C9.13998 15.2146 9.18697 15.2589 9.24394 15.286L9.32094 15.322C14.7499 17.892 21.2509 17.892 26.6789 15.322L26.7559 15.286C26.8127 15.2588 26.8595 15.2144 26.8897 15.1591C26.9198 15.1038 26.9318 15.0405 26.9239 14.978C26.89 14.7191 26.8524 14.4608 26.8109 14.203C26.7175 13.6266 26.4336 13.0983 26.0045 12.7024C25.5754 12.3064 25.0259 12.0658 24.4439 12.019L22.7499 11.882V10.462C22.75 10.0428 22.5997 9.63757 22.3263 9.3199C22.0528 9.00223 21.6744 8.79325 21.2599 8.73098L20.0399 8.54798C18.6875 8.34582 17.3124 8.34582 15.9599 8.54798L14.7399 8.73098C14.3256 8.79323 13.9474 9.00206 13.674 9.31952C13.4005 9.63698 13.2501 10.042 13.2499 10.461ZM19.8169 10.031C18.6123 9.85105 17.3876 9.85105 16.1829 10.031L14.9629 10.214C14.9037 10.2228 14.8497 10.2526 14.8106 10.298C14.7715 10.3433 14.75 10.4011 14.7499 10.461V11.776C16.9148 11.6523 19.085 11.6523 21.2499 11.776V10.461C21.2499 10.4011 21.2284 10.3433 21.1893 10.298C21.1502 10.2526 21.0961 10.2228 21.0369 10.214L19.8169 10.031Z" fill="#37E3EA"/>
<path d="M27.2737 17.07C27.2717 17.0376 27.2619 17.0063 27.2451 16.9786C27.2283 16.9509 27.2051 16.9277 27.1773 16.9109C27.1496 16.8942 27.1182 16.8845 27.0859 16.8826C27.0535 16.8807 27.0212 16.8866 26.9917 16.9C21.4207 19.367 14.8907 19.367 9.3197 16.9C9.29019 16.8866 9.25787 16.8807 9.22554 16.8826C9.1932 16.8845 9.16181 16.8942 9.13407 16.9109C9.10633 16.9277 9.08307 16.9509 9.06628 16.9786C9.04949 17.0063 9.03969 17.0376 9.0377 17.07C8.93642 18.9845 9.03934 20.9043 9.3447 22.797C9.43791 23.3735 9.72178 23.9021 10.1509 24.2982C10.58 24.6943 11.1296 24.9351 11.7117 24.982L13.5837 25.132C16.6267 25.378 19.6837 25.378 22.7277 25.132L24.5997 24.982C25.1818 24.9351 25.7314 24.6943 26.1605 24.2982C26.5896 23.9021 26.8735 23.3735 26.9667 22.797C27.2727 20.902 27.3767 18.982 27.2737 17.071" fill="#37E3EA"/>
<path fill-rule="evenodd" clip-rule="evenodd" d="M13.2496 10.461V11.881L11.5556 12.019C10.9736 12.0658 10.4241 12.3064 9.99503 12.7024C9.56593 13.0983 9.28197 13.6266 9.18856 14.203C9.14722 14.461 9.10922 14.7193 9.07456 14.978C9.06678 15.0406 9.07892 15.104 9.10926 15.1593C9.1396 15.2146 9.18659 15.2589 9.24356 15.286L9.32056 15.322C14.7496 17.892 21.2506 17.892 26.6786 15.322L26.7556 15.286C26.8123 15.2588 26.8591 15.2144 26.8893 15.1591C26.9194 15.1038 26.9314 15.0405 26.9236 14.978C26.8896 14.7191 26.852 14.4608 26.8106 14.203C26.7171 13.6266 26.4332 13.0983 26.0041 12.7024C25.575 12.3064 25.0255 12.0658 24.4436 12.019L22.7496 11.882V10.462C22.7497 10.0428 22.5993 9.63757 22.3259 9.3199C22.0524 9.00223 21.6741 8.79325 21.2596 8.73098L20.0396 8.54798C18.6871 8.34582 17.312 8.34582 15.9596 8.54798L14.7396 8.73098C14.3252 8.79323 13.947 9.00206 13.6736 9.31952C13.4001 9.63698 13.2497 10.042 13.2496 10.461ZM19.8166 10.031C18.6119 9.85105 17.3872 9.85105 16.1826 10.031L14.9626 10.214C14.9034 10.2228 14.8493 10.2526 14.8102 10.298C14.7711 10.3433 14.7496 10.4011 14.7496 10.461V11.776C16.9145 11.6523 19.0847 11.6523 21.2496 11.776V10.461C21.2495 10.4011 21.228 10.3433 21.1889 10.298C21.1498 10.2526 21.0957 10.2228 21.0366 10.214L19.8166 10.031Z" fill="#3761EA"/>
</svg>
