<svg width="27" height="27" viewBox="0 0 27 27" fill="none" xmlns="http://www.w3.org/2000/svg">
<rect width="27" height="27" rx="8" fill="#F7F7F7"/>
<path d="M20.6915 8.2608C20.4525 7.41229 19.9987 6.63978 19.3739 6.0179C18.7491 5.39603 17.9745 4.94583 17.1249 4.7108C16.8758 4.64938 16.6156 4.64938 16.3665 4.7108C16.1251 4.78554 15.9051 4.91698 15.7249 5.09414L14.2082 6.61914L7.6832 13.1441C7.44542 13.3624 7.29202 13.6574 7.24987 13.9775L6.84154 16.8275C6.80606 17.0566 6.82606 17.291 6.89987 17.5108C6.97487 17.7291 7.09737 17.9291 7.2582 18.0941C7.4182 18.2608 7.61487 18.3858 7.8332 18.4608C7.99043 18.5108 8.15154 18.5358 8.31654 18.5358C8.38598 18.5441 8.45543 18.5441 8.52487 18.5358L11.3999 18.1275C11.7116 18.0706 12.0007 17.9261 12.2332 17.7108L20.2915 9.65247C20.4657 9.47136 20.5942 9.25142 20.6665 9.0108C20.7348 8.76642 20.7434 8.5092 20.6915 8.2608ZM19.4665 8.67747C19.4575 8.7183 19.4373 8.75581 19.4082 8.7858L18.3249 9.86914L15.5332 7.1108L16.6082 6.02747C16.639 5.99755 16.676 5.97479 16.7165 5.9608C16.7493 5.95234 16.7837 5.95234 16.8165 5.9608C17.446 6.13672 18.0204 6.47001 18.4854 6.92925C18.9505 7.3885 19.291 7.95859 19.4749 8.5858C19.4778 8.61661 19.475 8.64769 19.4665 8.67747ZM20.8499 21.3358H7.1582C6.99244 21.3358 6.83347 21.27 6.71626 21.1527C6.59905 21.0355 6.5332 20.8766 6.5332 20.7108C6.5332 20.545 6.59905 20.3861 6.71626 20.2689C6.83347 20.1517 6.99244 20.0858 7.1582 20.0858H20.8415C21.0073 20.0858 21.1663 20.1517 21.2835 20.2689C21.4007 20.3861 21.4665 20.545 21.4665 20.7108C21.4665 20.8766 21.4007 21.0355 21.2835 21.1527C21.1663 21.27 21.0073 21.3358 20.8415 21.3358H20.8499Z" fill="#B4B4B4"/>
</svg>
