<svg width="25" height="24" viewBox="0 0 25 24" fill="none" xmlns="http://www.w3.org/2000/svg">
<path d="M8.2501 2.5C8.2501 2.30109 8.17108 2.11032 8.03043 1.96967C7.88978 1.82902 7.69901 1.75 7.5001 1.75C7.30119 1.75 7.11042 1.82902 6.96977 1.96967C6.82912 2.11032 6.7501 2.30109 6.7501 2.5V4.08C5.3101 4.195 4.3661 4.477 3.6721 5.172C2.9771 5.866 2.6951 6.811 2.5791 8.25H22.4211C22.3051 6.81 22.0231 5.866 21.3281 5.172C20.6341 4.477 19.6891 4.195 18.2501 4.079V2.5C18.2501 2.30109 18.1711 2.11032 18.0304 1.96967C17.8898 1.82902 17.699 1.75 17.5001 1.75C17.3012 1.75 17.1104 1.82902 16.9698 1.96967C16.8291 2.11032 16.7501 2.30109 16.7501 2.5V4.013C16.0851 4 15.3391 4 14.5001 4H10.5001C9.6611 4 8.9151 4 8.2501 4.013V2.5Z" fill="#BFBFBF"/>
<path fill-rule="evenodd" clip-rule="evenodd" d="M2.5 12C2.5 11.161 2.5 10.415 2.513 9.75H22.487C22.5 10.415 22.5 11.161 22.5 12V14C22.5 17.771 22.5 19.657 21.328 20.828C20.156 21.999 18.271 22 14.5 22H10.5C6.729 22 4.843 22 3.672 20.828C2.501 19.656 2.5 17.771 2.5 14V12ZM17.5 14C17.7652 14 18.0196 13.8946 18.2071 13.7071C18.3946 13.5196 18.5 13.2652 18.5 13C18.5 12.7348 18.3946 12.4804 18.2071 12.2929C18.0196 12.1054 17.7652 12 17.5 12C17.2348 12 16.9804 12.1054 16.7929 12.2929C16.6054 12.4804 16.5 12.7348 16.5 13C16.5 13.2652 16.6054 13.5196 16.7929 13.7071C16.9804 13.8946 17.2348 14 17.5 14ZM17.5 18C17.7652 18 18.0196 17.8946 18.2071 17.7071C18.3946 17.5196 18.5 17.2652 18.5 17C18.5 16.7348 18.3946 16.4804 18.2071 16.2929C18.0196 16.1054 17.7652 16 17.5 16C17.2348 16 16.9804 16.1054 16.7929 16.2929C16.6054 16.4804 16.5 16.7348 16.5 17C16.5 17.2652 16.6054 17.5196 16.7929 17.7071C16.9804 17.8946 17.2348 18 17.5 18ZM13.5 13C13.5 13.2652 13.3946 13.5196 13.2071 13.7071C13.0196 13.8946 12.7652 14 12.5 14C12.2348 14 11.9804 13.8946 11.7929 13.7071C11.6054 13.5196 11.5 13.2652 11.5 13C11.5 12.7348 11.6054 12.4804 11.7929 12.2929C11.9804 12.1054 12.2348 12 12.5 12C12.7652 12 13.0196 12.1054 13.2071 12.2929C13.3946 12.4804 13.5 12.7348 13.5 13ZM13.5 17C13.5 17.2652 13.3946 17.5196 13.2071 17.7071C13.0196 17.8946 12.7652 18 12.5 18C12.2348 18 11.9804 17.8946 11.7929 17.7071C11.6054 17.5196 11.5 17.2652 11.5 17C11.5 16.7348 11.6054 16.4804 11.7929 16.2929C11.9804 16.1054 12.2348 16 12.5 16C12.7652 16 13.0196 16.1054 13.2071 16.2929C13.3946 16.4804 13.5 16.7348 13.5 17ZM7.5 14C7.76522 14 8.01957 13.8946 8.20711 13.7071C8.39464 13.5196 8.5 13.2652 8.5 13C8.5 12.7348 8.39464 12.4804 8.20711 12.2929C8.01957 12.1054 7.76522 12 7.5 12C7.23478 12 6.98043 12.1054 6.79289 12.2929C6.60536 12.4804 6.5 12.7348 6.5 13C6.5 13.2652 6.60536 13.5196 6.79289 13.7071C6.98043 13.8946 7.23478 14 7.5 14ZM7.5 18C7.76522 18 8.01957 17.8946 8.20711 17.7071C8.39464 17.5196 8.5 17.2652 8.5 17C8.5 16.7348 8.39464 16.4804 8.20711 16.2929C8.01957 16.1054 7.76522 16 7.5 16C7.23478 16 6.98043 16.1054 6.79289 16.2929C6.60536 16.4804 6.5 16.7348 6.5 17C6.5 17.2652 6.60536 17.5196 6.79289 17.7071C6.98043 17.8946 7.23478 18 7.5 18Z" fill="#BFBFBF"/>
</svg>
