<svg width="21" height="20" viewBox="0 0 21 20" fill="none" xmlns="http://www.w3.org/2000/svg">
<path d="M7.16138 14.6241C7.16138 13.2426 7.16138 11.8612 7.16138 10.4816C7.16138 9.21521 8.00101 8.40936 9.31908 8.40754C10.1152 8.40754 10.9133 8.40571 11.7094 8.40754C12.9821 8.41119 13.8293 9.22618 13.8293 10.4505C13.8293 13.281 13.8293 16.1097 13.8293 18.9402C13.8293 19.6182 13.4303 20.0056 12.7249 20.0056C11.2328 20.0074 9.74079 20.0074 8.24874 20.0056C7.5585 20.0056 7.16138 19.6182 7.16138 18.9494C7.16138 17.5076 7.16138 16.0659 7.16138 14.6259V14.6241Z" fill="#BFBFBF"/>
<path d="M6.17025 16.1663C6.17025 17.08 6.17025 17.9937 6.17025 18.9055C6.17025 19.6255 5.77502 20.0037 5.02616 20.0037C3.89341 20.0037 2.76066 20.0037 1.62791 20.0037C0.886618 20.0037 0.50084 19.631 0.50084 18.9183C0.50084 17.3852 0.498949 15.8539 0.50084 14.3208C0.502732 13.0891 1.34047 12.2833 2.61505 12.2796C3.43577 12.2778 4.25649 12.2778 5.07532 12.2796C5.76178 12.2815 6.16836 12.6707 6.17025 13.334C6.17403 14.2769 6.17025 15.2216 6.17025 16.1645V16.1663Z" fill="#BFBFBF"/>
<path d="M12.0647 6.44498C11.9588 6.40661 11.7395 6.34996 11.5428 6.25128C11.2724 6.11789 11.0095 5.96622 10.758 5.80176C10.5746 5.68298 10.4214 5.69395 10.2436 5.80724C10.0091 5.95526 9.7633 6.08682 9.51747 6.22022C9.40211 6.28235 9.28297 6.34265 9.15816 6.38468C8.48684 6.60396 7.9441 6.18367 8.03676 5.50208C8.08593 5.14392 8.1975 4.7949 8.25424 4.43858C8.27126 4.33076 8.23343 4.18275 8.16157 4.09869C7.97814 3.8849 7.76067 3.69668 7.56021 3.49568C7.48457 3.42075 7.40704 3.34401 7.34274 3.25995C6.92482 2.70992 7.12905 2.09777 7.81173 1.91504C8.14077 1.82733 8.48305 1.78164 8.82345 1.73596C8.99931 1.7122 9.10143 1.63363 9.17518 1.48379C9.32836 1.17132 9.4891 0.860671 9.6574 0.55368C9.83516 0.23207 10.0886 0 10.497 0C10.9055 0 11.1589 0.235725 11.3367 0.560989C11.5088 0.873462 11.6525 1.20055 11.8378 1.50572C11.8983 1.60622 12.0364 1.69393 12.1555 1.72317C12.4411 1.79261 12.7379 1.82367 13.0311 1.87118C13.0613 1.87666 13.0916 1.88397 13.1218 1.89128C13.8877 2.08315 14.1146 2.75013 13.5984 3.32939C13.3752 3.57973 13.1256 3.8118 12.876 4.03839C12.7285 4.17179 12.6831 4.30335 12.7361 4.49888C12.8287 4.8479 12.9176 5.20423 12.9497 5.56238C12.9989 6.09048 12.668 6.44681 12.0647 6.44315V6.44498Z" fill="#BFBFBF"/>
<path d="M17.6681 20.0056C17.0819 20.0056 16.4957 20.0074 15.9094 20.0056C15.2381 20.0019 14.8315 19.6109 14.8278 18.9603C14.824 18.0467 14.8221 17.133 14.8278 16.2212C14.8315 15.5725 15.24 15.1851 15.9151 15.1833C16.751 15.1814 17.5868 15.1796 18.4227 15.1833C19.6537 15.1906 20.4896 16.0019 20.4972 17.1933C20.5009 17.7817 20.5009 18.3701 20.4972 18.9585C20.4934 19.6237 20.0963 20.0037 19.4003 20.0056C18.8217 20.0074 18.2449 20.0056 17.6662 20.0056H17.6681Z" fill="#BFBFBF"/>
</svg>
