<svg width="24" height="24" viewBox="0 0 24 24" fill="none" xmlns="http://www.w3.org/2000/svg">
<path d="M8.5 21L8.5 3" stroke="#3761EA"/>
<path d="M15.5 3L15.5 21" stroke="#37E3EA"/>
<path d="M6 8C6 6.89543 6.89543 6 8 6H9C10.1046 6 11 6.89543 11 8V12.5C11 13.8807 9.88071 15 8.5 15C7.11929 15 6 13.8807 6 12.5V8Z" fill="#3761EA"/>
<path d="M17.5 16C17.5 16.8284 16.8284 17.5 16 17.5L15 17.5C14.1716 17.5 13.5 16.8284 13.5 16L13.5 11.5C13.5 10.3954 14.3954 9.5 15.5 9.5C16.6046 9.5 17.5 10.3954 17.5 11.5L17.5 16Z" fill="#37E3EA" stroke="#37E3EA"/>
</svg>
