<svg xmlns="http://www.w3.org/2000/svg" xmlns:xlink="http://www.w3.org/1999/xlink" width="500" zoomAndPan="magnify" viewBox="0 0 375 374.999991" height="500" preserveAspectRatio="xMidYMid meet" version="1.2"><defs><clipPath id="3f2ead795c"><path d="M 81 21.148438 L 346 21.148438 L 346 233 L 81 233 Z M 81 21.148438 "/></clipPath></defs><g id="4b0d35312f"><g clip-rule="nonzero" clip-path="url(#3f2ead795c)"><path style=" stroke:none;fill-rule:nonzero;fill:#48b6f0;fill-opacity:1;" d="M 104.144531 21.148438 C 91.941406 21.148438 81.882812 31.210938 81.882812 43.414062 L 81.882812 86.617188 C 81.882812 87.816406 82.15625 88.957031 82.699219 90.027344 C 83.246094 91.101562 84.003906 91.992188 84.976562 92.699219 L 88.277344 95.117188 C 89.601562 96.085938 91.082031 96.574219 92.726562 96.574219 L 270.851562 96.574219 C 274.957031 96.574219 278.027344 99.644531 278.027344 103.75 L 278.027344 224.824219 C 278.027344 225.320312 278.078125 225.8125 278.171875 226.296875 C 278.269531 226.785156 278.414062 227.253906 278.601562 227.710938 C 278.792969 228.171875 279.023438 228.605469 279.300781 229.015625 C 279.574219 229.429688 279.886719 229.808594 280.238281 230.160156 C 280.589844 230.511719 280.96875 230.824219 281.382812 231.097656 C 281.792969 231.375 282.226562 231.605469 282.683594 231.796875 C 283.144531 231.984375 283.613281 232.128906 284.101562 232.226562 C 284.585938 232.320312 285.078125 232.371094 285.570312 232.371094 L 323.660156 232.371094 C 335.863281 232.371094 345.925781 222.308594 345.925781 210.105469 L 345.925781 43.414062 C 345.925781 31.210938 335.863281 21.148438 323.660156 21.148438 Z M 104.144531 21.148438 "/></g><path style=" stroke:none;fill-rule:nonzero;fill:#c4dff1;fill-opacity:1;" d="M 51.335938 81.488281 C 39.132812 81.488281 29.074219 91.546875 29.074219 103.75 L 29.074219 338.472656 C 29.074219 344.773438 33.0625 349.679688 37.929688 351.851562 C 42.792969 354.027344 50.136719 353.203125 54.121094 347.976562 L 99.179688 288.863281 C 100.839844 286.683594 105.210938 285.179688 110.214844 285.179688 L 270.851562 285.179688 C 283.054688 285.179688 293.117188 275.117188 293.117188 262.914062 L 293.117188 103.75 C 293.117188 91.546875 283.054688 81.488281 270.851562 81.488281 Z M 51.335938 81.488281 "/><path style=" stroke:none;fill-rule:nonzero;fill:#48b6f0;fill-opacity:1;" d="M 229.078125 157.121094 C 214.636719 157.121094 202.777344 168.980469 202.777344 183.421875 C 202.777344 197.863281 214.636719 209.738281 229.078125 209.738281 C 243.523438 209.738281 255.394531 197.863281 255.394531 183.421875 C 255.394531 168.980469 243.523438 157.121094 229.078125 157.121094 Z M 229.078125 157.121094 "/><path style=" stroke:none;fill-rule:nonzero;fill:#48b6f0;fill-opacity:1;" d="M 93.285156 157.121094 C 78.84375 157.121094 66.984375 168.980469 66.984375 183.421875 C 66.984375 197.863281 78.84375 209.738281 93.285156 209.738281 C 107.726562 209.738281 119.601562 197.863281 119.601562 183.421875 C 119.601562 168.980469 107.726562 157.121094 93.285156 157.121094 Z M 93.285156 157.121094 "/><path style=" stroke:none;fill-rule:nonzero;fill:#48b6f0;fill-opacity:1;" d="M 161.183594 157.121094 C 146.742188 157.121094 134.882812 168.980469 134.882812 183.421875 C 134.882812 197.863281 146.742188 209.738281 161.183594 209.738281 C 175.625 209.738281 187.5 197.863281 187.5 183.421875 C 187.5 168.980469 175.625 157.121094 161.183594 157.121094 Z M 161.183594 157.121094 "/></g></svg>