<svg width="20" height="20" viewBox="0 0 20 20" fill="none" xmlns="http://www.w3.org/2000/svg">
<path d="M3.3335 1.66663H16.6668C17.1089 1.66663 17.5328 1.84222 17.8453 2.15478C18.1579 2.46734 18.3335 2.89126 18.3335 3.33329V13.3333C18.3335 13.7753 18.1579 14.1992 17.8453 14.5118C17.5328 14.8244 17.1089 15 16.6668 15H15.3335C14.2289 15 13.3335 15.8954 13.3335 17V17.5C13.3335 17.9583 12.9585 18.3333 12.5002 18.3333H12.0835C11.8752 18.3333 11.6668 18.25 11.5002 18.0916L9.00294 15.5877C8.62772 15.2114 8.11819 15 7.58682 15H3.3335C2.4085 15 1.66683 14.2583 1.66683 13.3333V3.33329C1.66683 2.89126 1.84243 2.46734 2.15499 2.15478C2.46755 1.84222 2.89147 1.66663 3.3335 1.66663ZM6.66683 8.33329C6.66683 8.79353 7.03993 9.16662 7.50016 9.16662H12.5002C12.9604 9.16662 13.3335 8.79353 13.3335 8.33329C13.3335 7.87305 12.9604 7.49996 12.5002 7.49996H7.50016C7.03993 7.49996 6.66683 7.87305 6.66683 8.33329Z" fill="#B4B4B4"/>
</svg>
