<svg xmlns="http://www.w3.org/2000/svg" xmlns:xlink="http://www.w3.org/1999/xlink" width="512" zoomAndPan="magnify" viewBox="0 0 384 383.999986" height="512" preserveAspectRatio="xMidYMid meet" version="1.2"><defs><clipPath id="768b642e74"><path d="M 134 58.789062 L 337.765625 58.789062 L 337.765625 261 L 134 261 Z M 134 58.789062 "/></clipPath><clipPath id="ac08465428"><path d="M 124.390625 199 L 175 199 L 175 266.539062 L 124.390625 266.539062 Z M 124.390625 199 "/></clipPath><clipPath id="9187ba305f"><path d="M 134 58.789062 L 337.765625 58.789062 L 337.765625 261 L 134 261 Z M 134 58.789062 "/></clipPath></defs><g id="b63b3f628e"><path style=" stroke:none;fill-rule:nonzero;fill:#3761ea;fill-opacity:1;" d="M 240.253906 184.140625 L 232.195312 184.140625 C 227.050781 184.140625 222.832031 180.273438 222.386719 175.148438 L 217.328125 117.453125 C 216.75 110.859375 219.71875 104.34375 225.074219 100.453125 C 231.742188 95.605469 240.707031 95.605469 247.375 100.453125 C 252.730469 104.34375 255.699219 110.859375 255.121094 117.453125 L 250.0625 175.148438 C 249.613281 180.273438 245.394531 184.140625 240.25 184.140625 Z M 228.53125 105.207031 C 224.832031 107.894531 222.785156 112.390625 223.183594 116.941406 L 228.242188 174.636719 C 228.421875 176.703125 230.121094 178.261719 232.195312 178.261719 L 240.253906 178.261719 C 242.328125 178.261719 244.027344 176.703125 244.207031 174.636719 L 249.265625 116.941406 C 249.664062 112.390625 247.617188 107.894531 243.917969 105.207031 C 239.316406 101.863281 233.132812 101.863281 228.53125 105.207031 Z M 226.800781 102.828125 L 226.804688 102.828125 Z M 226.800781 102.828125 "/><path style=" stroke:none;fill-rule:nonzero;fill:#3761ea;fill-opacity:1;" d="M 236.226562 223.953125 C 228.453125 223.953125 222.132812 217.632812 222.132812 209.859375 C 222.132812 202.089844 228.453125 195.765625 236.226562 195.765625 C 243.996094 195.765625 250.316406 202.089844 250.316406 209.859375 C 250.316406 217.632812 243.996094 223.953125 236.226562 223.953125 Z M 236.226562 201.644531 C 231.695312 201.644531 228.011719 205.332031 228.011719 209.859375 C 228.011719 214.390625 231.695312 218.074219 236.226562 218.074219 C 240.753906 218.074219 244.4375 214.390625 244.4375 209.859375 C 244.4375 205.332031 240.753906 201.644531 236.226562 201.644531 Z M 236.226562 201.644531 "/><path style=" stroke:none;fill-rule:nonzero;fill:#3761ea;fill-opacity:1;" d="M 138.53125 324.953125 C 134.992188 324.953125 131.425781 324.285156 128.007812 322.914062 C 109.164062 315.355469 93.023438 304.902344 80.035156 291.847656 C 67.230469 278.980469 57.148438 263.242188 50.066406 245.070312 C 46.027344 234.71875 48.515625 222.929688 56.40625 215.042969 L 67.441406 204.007812 C 70.515625 200.933594 74.605469 199.238281 78.953125 199.238281 C 83.300781 199.238281 87.390625 200.933594 90.464844 204.007812 L 98.882812 212.425781 C 101.957031 215.5 103.648438 219.585938 103.648438 223.9375 C 103.648438 228.285156 101.957031 232.375 98.882812 235.449219 L 92.601562 241.726562 C 92 242.332031 91.769531 244.757812 94.738281 250.027344 C 97.390625 254.734375 101.996094 260.519531 107.382812 265.902344 C 112.765625 271.289062 118.554688 275.894531 123.257812 278.546875 C 128.527344 281.515625 130.953125 281.285156 131.554688 280.683594 L 137.835938 274.402344 C 140.910156 271.328125 145 269.632812 149.347656 269.632812 C 153.695312 269.632812 157.785156 271.328125 160.859375 274.402344 L 169.277344 282.820312 C 172.351562 285.894531 174.046875 289.984375 174.046875 294.332031 C 174.046875 298.679688 172.351562 302.769531 169.277344 305.84375 L 158.402344 316.71875 C 153.027344 322.09375 145.847656 324.953125 138.527344 324.953125 Z M 78.953125 205.117188 C 76.175781 205.117188 73.5625 206.199219 71.597656 208.164062 L 60.5625 219.199219 C 54.324219 225.4375 52.351562 234.753906 55.542969 242.933594 C 62.332031 260.347656 71.972656 275.410156 84.203125 287.699219 C 96.625 300.1875 112.097656 310.199219 130.195312 317.457031 C 138.5 320.789062 147.9375 318.867188 154.246094 312.5625 L 165.121094 301.6875 C 167.085938 299.722656 168.167969 297.109375 168.167969 294.332031 C 168.167969 291.554688 167.085938 288.941406 165.121094 286.976562 L 156.703125 278.558594 C 154.738281 276.59375 152.128906 275.511719 149.347656 275.511719 C 146.570312 275.511719 143.957031 276.59375 141.992188 278.558594 L 135.714844 284.839844 C 133.535156 287.019531 129.105469 288.585938 120.375 283.667969 C 115.148438 280.722656 109.054688 275.890625 103.226562 270.058594 C 97.394531 264.230469 92.5625 258.140625 89.617188 252.910156 C 86.902344 248.09375 84.496094 241.519531 88.445312 237.570312 L 94.722656 231.292969 C 96.691406 229.328125 97.769531 226.714844 97.769531 223.9375 C 97.769531 221.15625 96.691406 218.546875 94.722656 216.582031 L 86.308594 208.164062 C 84.34375 206.199219 81.730469 205.117188 78.953125 205.117188 Z M 156.324219 314.640625 L 156.328125 314.640625 Z M 156.324219 314.640625 "/><g clip-rule="nonzero" clip-path="url(#768b642e74)"><path style=" stroke:none;fill-rule:nonzero;fill:#3761ea;fill-opacity:1;" d="M 236.953125 260.472656 C 213.527344 260.472656 190.785156 252.285156 172.765625 237.390625 L 137.988281 241.800781 C 136.949219 241.929688 135.914062 241.5 135.277344 240.660156 C 134.644531 239.824219 134.503906 238.714844 134.910156 237.746094 L 147.867188 206.882812 C 140.1875 192.421875 136.136719 176.125 136.136719 159.65625 C 136.136719 132.726562 146.625 107.410156 165.664062 88.367188 C 184.707031 69.324219 210.023438 58.839844 236.953125 58.839844 C 263.882812 58.839844 289.199219 69.324219 308.242188 88.367188 C 327.28125 107.410156 337.769531 132.726562 337.769531 159.65625 C 337.769531 186.585938 327.28125 211.902344 308.242188 230.945312 C 289.199219 249.984375 263.882812 260.472656 236.953125 260.472656 Z M 173.667969 231.375 C 174.363281 231.375 175.035156 231.621094 175.570312 232.074219 C 192.683594 246.59375 214.484375 254.59375 236.953125 254.59375 C 262.3125 254.59375 286.152344 244.71875 304.085938 226.785156 C 322.015625 208.855469 331.890625 185.015625 331.890625 159.65625 C 331.890625 134.296875 322.015625 110.457031 304.085938 92.523438 C 286.152344 74.59375 262.3125 64.71875 236.953125 64.71875 C 211.59375 64.71875 187.753906 74.59375 169.824219 92.523438 C 151.890625 110.457031 142.015625 134.296875 142.015625 159.65625 C 142.015625 175.617188 146.054688 191.402344 153.699219 205.308594 C 154.128906 206.09375 154.179688 207.035156 153.832031 207.863281 L 142.300781 235.328125 L 173.300781 231.398438 C 173.421875 231.382812 173.546875 231.375 173.667969 231.375 Z M 173.667969 231.375 "/></g><path style=" stroke:none;fill-rule:nonzero;fill:#37e3ea;fill-opacity:1;" d="M 240.253906 184.140625 L 232.195312 184.140625 C 227.050781 184.140625 222.832031 180.273438 222.386719 175.148438 L 217.328125 117.453125 C 216.75 110.859375 219.71875 104.34375 225.074219 100.453125 C 231.742188 95.605469 240.707031 95.605469 247.375 100.453125 C 252.730469 104.34375 255.699219 110.859375 255.121094 117.453125 L 250.0625 175.148438 C 249.613281 180.273438 245.394531 184.140625 240.25 184.140625 Z M 228.53125 105.207031 C 224.832031 107.894531 222.785156 112.390625 223.183594 116.941406 L 228.242188 174.636719 C 228.421875 176.703125 230.121094 178.261719 232.195312 178.261719 L 240.253906 178.261719 C 242.328125 178.261719 244.027344 176.703125 244.207031 174.636719 L 249.265625 116.941406 C 249.664062 112.390625 247.617188 107.894531 243.917969 105.207031 C 239.316406 101.863281 233.132812 101.863281 228.53125 105.207031 Z M 226.800781 102.828125 L 226.804688 102.828125 Z M 226.800781 102.828125 "/><path style=" stroke:none;fill-rule:nonzero;fill:#37e3ea;fill-opacity:1;" d="M 236.226562 223.953125 C 228.453125 223.953125 222.132812 217.632812 222.132812 209.859375 C 222.132812 202.089844 228.453125 195.765625 236.226562 195.765625 C 243.996094 195.765625 250.316406 202.089844 250.316406 209.859375 C 250.316406 217.632812 243.996094 223.953125 236.226562 223.953125 Z M 236.226562 201.644531 C 231.695312 201.644531 228.011719 205.332031 228.011719 209.859375 C 228.011719 214.390625 231.695312 218.074219 236.226562 218.074219 C 240.753906 218.074219 244.4375 214.390625 244.4375 209.859375 C 244.4375 205.332031 240.753906 201.644531 236.226562 201.644531 Z M 236.226562 201.644531 "/><g clip-rule="nonzero" clip-path="url(#ac08465428)"><path style=" stroke:none;fill-rule:nonzero;fill:#37e3ea;fill-opacity:1;" d="M 138.53125 324.953125 C 134.992188 324.953125 131.425781 324.285156 128.007812 322.914062 C 109.164062 315.355469 93.023438 304.902344 80.035156 291.847656 C 67.230469 278.980469 57.148438 263.242188 50.066406 245.070312 C 46.027344 234.71875 48.515625 222.929688 56.40625 215.042969 L 67.441406 204.007812 C 70.515625 200.933594 74.605469 199.238281 78.953125 199.238281 C 83.300781 199.238281 87.390625 200.933594 90.464844 204.007812 L 98.882812 212.425781 C 101.957031 215.5 103.648438 219.585938 103.648438 223.9375 C 103.648438 228.285156 101.957031 232.375 98.882812 235.449219 L 92.601562 241.726562 C 92 242.332031 91.769531 244.757812 94.738281 250.027344 C 97.390625 254.734375 101.996094 260.519531 107.382812 265.902344 C 112.765625 271.289062 118.554688 275.894531 123.257812 278.546875 C 128.527344 281.515625 130.953125 281.285156 131.554688 280.683594 L 137.835938 274.402344 C 140.910156 271.328125 145 269.632812 149.347656 269.632812 C 153.695312 269.632812 157.785156 271.328125 160.859375 274.402344 L 169.277344 282.820312 C 172.351562 285.894531 174.046875 289.984375 174.046875 294.332031 C 174.046875 298.679688 172.351562 302.769531 169.277344 305.84375 L 158.402344 316.71875 C 153.027344 322.09375 145.847656 324.953125 138.527344 324.953125 Z M 78.953125 205.117188 C 76.175781 205.117188 73.5625 206.199219 71.597656 208.164062 L 60.5625 219.199219 C 54.324219 225.4375 52.351562 234.753906 55.542969 242.933594 C 62.332031 260.347656 71.972656 275.410156 84.203125 287.699219 C 96.625 300.1875 112.097656 310.199219 130.195312 317.457031 C 138.5 320.789062 147.9375 318.867188 154.246094 312.5625 L 165.121094 301.6875 C 167.085938 299.722656 168.167969 297.109375 168.167969 294.332031 C 168.167969 291.554688 167.085938 288.941406 165.121094 286.976562 L 156.703125 278.558594 C 154.738281 276.59375 152.128906 275.511719 149.347656 275.511719 C 146.570312 275.511719 143.957031 276.59375 141.992188 278.558594 L 135.714844 284.839844 C 133.535156 287.019531 129.105469 288.585938 120.375 283.667969 C 115.148438 280.722656 109.054688 275.890625 103.226562 270.058594 C 97.394531 264.230469 92.5625 258.140625 89.617188 252.910156 C 86.902344 248.09375 84.496094 241.519531 88.445312 237.570312 L 94.722656 231.292969 C 96.691406 229.328125 97.769531 226.714844 97.769531 223.9375 C 97.769531 221.15625 96.691406 218.546875 94.722656 216.582031 L 86.308594 208.164062 C 84.34375 206.199219 81.730469 205.117188 78.953125 205.117188 Z M 156.324219 314.640625 L 156.328125 314.640625 Z M 156.324219 314.640625 "/></g><g clip-rule="nonzero" clip-path="url(#9187ba305f)"><path style=" stroke:none;fill-rule:nonzero;fill:#37e3ea;fill-opacity:1;" d="M 236.953125 260.472656 C 213.527344 260.472656 190.785156 252.285156 172.765625 237.390625 L 137.988281 241.800781 C 136.949219 241.929688 135.914062 241.5 135.277344 240.660156 C 134.644531 239.824219 134.503906 238.714844 134.910156 237.746094 L 147.867188 206.882812 C 140.1875 192.421875 136.136719 176.125 136.136719 159.65625 C 136.136719 132.726562 146.625 107.410156 165.664062 88.367188 C 184.707031 69.324219 210.023438 58.839844 236.953125 58.839844 C 263.882812 58.839844 289.199219 69.324219 308.242188 88.367188 C 327.28125 107.410156 337.769531 132.726562 337.769531 159.65625 C 337.769531 186.585938 327.28125 211.902344 308.242188 230.945312 C 289.199219 249.984375 263.882812 260.472656 236.953125 260.472656 Z M 173.667969 231.375 C 174.363281 231.375 175.035156 231.621094 175.570312 232.074219 C 192.683594 246.59375 214.484375 254.59375 236.953125 254.59375 C 262.3125 254.59375 286.152344 244.71875 304.085938 226.785156 C 322.015625 208.855469 331.890625 185.015625 331.890625 159.65625 C 331.890625 134.296875 322.015625 110.457031 304.085938 92.523438 C 286.152344 74.59375 262.3125 64.71875 236.953125 64.71875 C 211.59375 64.71875 187.753906 74.59375 169.824219 92.523438 C 151.890625 110.457031 142.015625 134.296875 142.015625 159.65625 C 142.015625 175.617188 146.054688 191.402344 153.699219 205.308594 C 154.128906 206.09375 154.179688 207.035156 153.832031 207.863281 L 142.300781 235.328125 L 173.300781 231.398438 C 173.421875 231.382812 173.546875 231.375 173.667969 231.375 Z M 173.667969 231.375 "/></g></g></svg>