<svg xmlns="http://www.w3.org/2000/svg" xmlns:xlink="http://www.w3.org/1999/xlink" width="512" zoomAndPan="magnify" viewBox="0 0 384 383.999986" height="512" preserveAspectRatio="xMidYMid meet" version="1.2"><defs><clipPath id="3d46007271"><path d="M 82 52.089844 L 302 52.089844 L 302 331.839844 L 82 331.839844 Z M 82 52.089844 "/></clipPath><clipPath id="8593a76bc8"><path d="M 82 217.199219 L 302 217.199219 L 302 331.839844 L 82 331.839844 Z M 82 217.199219 "/></clipPath><clipPath id="096eae8f6d"><path d="M 174.144531 259.316406 L 210 259.316406 L 210 293.066406 L 174.144531 293.066406 Z M 174.144531 259.316406 "/></clipPath></defs><g id="a196595649"><g clip-rule="nonzero" clip-path="url(#3d46007271)"><path style=" stroke:none;fill-rule:nonzero;fill:#37e3ea;fill-opacity:1;" d="M 112.480469 250.613281 L 82.867188 310.125 C 82.585938 310.753906 82.441406 311.410156 82.441406 312.101562 C 82.441406 312.789062 82.585938 313.445312 82.867188 314.074219 C 83.15625 314.703125 83.558594 315.242188 84.078125 315.695312 C 84.601562 316.148438 85.191406 316.476562 85.851562 316.675781 C 102.65625 321.582031 119.71875 325.304688 137.039062 327.84375 C 154.359375 330.382812 171.773438 331.714844 189.277344 331.839844 L 191.972656 331.839844 C 209.945312 331.84375 227.828125 330.574219 245.621094 328.03125 C 263.414062 325.492188 280.9375 321.707031 298.191406 316.675781 C 298.851562 316.476562 299.445312 316.148438 299.964844 315.695312 C 300.484375 315.242188 300.890625 314.703125 301.175781 314.074219 C 301.460938 313.445312 301.601562 312.789062 301.601562 312.101562 C 301.601562 311.410156 301.460938 310.753906 301.175781 310.125 L 271.46875 250.613281 C 263.378906 234.339844 242.578125 221.722656 217.445312 216.90625 C 221.46875 215.359375 225.316406 213.457031 228.996094 211.207031 C 232.671875 208.953125 236.113281 206.386719 239.324219 203.507812 C 242.53125 200.628906 245.453125 197.484375 248.085938 194.070312 C 250.722656 190.660156 253.027344 187.035156 255 183.203125 C 256.355469 183.4375 257.71875 183.550781 259.09375 183.539062 C 259.988281 183.539062 260.878906 183.496094 261.765625 183.410156 C 262.65625 183.320312 263.539062 183.191406 264.414062 183.015625 C 265.289062 182.84375 266.15625 182.625 267.011719 182.367188 C 267.867188 182.109375 268.707031 181.808594 269.53125 181.46875 C 270.355469 181.125 271.164062 180.746094 271.949219 180.324219 C 272.738281 179.902344 273.503906 179.445312 274.246094 178.949219 C 274.988281 178.453125 275.707031 177.921875 276.398438 177.355469 C 277.089844 176.789062 277.75 176.191406 278.382812 175.5625 C 279.015625 174.929688 279.613281 174.269531 280.179688 173.578125 C 280.75 172.890625 281.28125 172.175781 281.777344 171.433594 C 282.273438 170.691406 282.734375 169.925781 283.15625 169.136719 C 283.578125 168.351562 283.960938 167.546875 284.304688 166.71875 C 284.644531 165.894531 284.949219 165.054688 285.207031 164.203125 C 285.46875 163.347656 285.6875 162.484375 285.863281 161.605469 C 286.039062 160.730469 286.171875 159.847656 286.257812 158.960938 C 286.347656 158.070312 286.394531 157.179688 286.394531 156.289062 L 286.394531 144.972656 C 286.394531 143.183594 286.21875 141.410156 285.871094 139.65625 C 285.519531 137.902344 285.003906 136.199219 284.316406 134.546875 C 283.632812 132.894531 282.792969 131.324219 281.796875 129.835938 C 280.800781 128.351562 279.667969 126.976562 278.402344 125.710938 C 276.0625 123.296875 273.367188 121.386719 270.3125 119.984375 C 269.96875 117.648438 269.519531 115.339844 268.96875 113.046875 C 268.417969 110.753906 267.765625 108.488281 267.011719 106.257812 C 266.257812 104.023438 265.40625 101.824219 264.457031 99.667969 C 263.507812 97.507812 262.464844 95.398438 261.328125 93.332031 C 260.1875 91.269531 258.960938 89.257812 257.644531 87.300781 C 256.328125 85.347656 254.925781 83.453125 253.4375 81.625 C 251.953125 79.792969 250.386719 78.035156 248.746094 76.34375 C 247.101562 74.652344 245.386719 73.039062 243.597656 71.5 C 241.8125 69.960938 239.957031 68.507812 238.042969 67.136719 C 236.125 65.761719 234.148438 64.480469 232.117188 63.28125 C 230.085938 62.085938 228.003906 60.984375 225.875 59.972656 C 223.746094 58.964844 221.574219 58.050781 219.363281 57.234375 C 217.148438 56.417969 214.90625 55.699219 212.628906 55.082031 C 210.355469 54.46875 208.054688 53.953125 205.734375 53.542969 C 203.414062 53.132812 201.078125 52.824219 198.730469 52.621094 C 196.378906 52.417969 194.027344 52.320312 191.667969 52.328125 C 189.3125 52.335938 186.957031 52.449219 184.609375 52.664062 C 182.261719 52.882812 179.929688 53.203125 177.609375 53.628906 C 175.292969 54.054688 172.996094 54.582031 170.726562 55.210938 C 168.453125 55.84375 166.214844 56.574219 164.007812 57.402344 C 161.800781 58.234375 159.632812 59.160156 157.511719 60.183594 C 155.386719 61.207031 153.3125 62.324219 151.289062 63.53125 C 149.261719 64.738281 147.296875 66.035156 145.386719 67.417969 C 143.480469 68.804688 141.636719 70.269531 139.859375 71.820312 C 138.082031 73.367188 136.375 74.992188 134.742188 76.691406 C 133.109375 78.394531 131.554688 80.164062 130.082031 82.003906 C 128.605469 83.84375 127.214844 85.742188 125.910156 87.707031 C 124.605469 89.671875 123.390625 91.6875 122.265625 93.761719 C 121.140625 95.832031 120.109375 97.949219 119.171875 100.113281 C 118.238281 102.277344 117.398438 104.480469 116.660156 106.71875 C 115.917969 108.957031 115.28125 111.222656 114.742188 113.519531 C 114.207031 115.816406 113.773438 118.128906 113.441406 120.464844 C 112.320312 121.027344 111.238281 121.664062 110.207031 122.375 C 109.171875 123.085938 108.191406 123.867188 107.261719 124.714844 C 106.335938 125.5625 105.472656 126.46875 104.671875 127.4375 C 103.871094 128.402344 103.140625 129.421875 102.480469 130.488281 C 101.820312 131.558594 101.234375 132.667969 100.730469 133.816406 C 100.222656 134.964844 99.796875 136.144531 99.453125 137.351562 C 99.113281 138.558594 98.851562 139.785156 98.679688 141.03125 C 98.507812 142.273438 98.417969 143.523438 98.417969 144.78125 L 98.417969 156 C 98.410156 157.335938 98.496094 158.664062 98.683594 159.984375 C 98.867188 161.308594 99.148438 162.609375 99.523438 163.890625 C 99.902344 165.171875 100.371094 166.421875 100.929688 167.632812 C 101.488281 168.84375 102.132812 170.011719 102.863281 171.128906 C 103.59375 172.246094 104.402344 173.304688 105.289062 174.304688 C 106.175781 175.304688 107.128906 176.234375 108.148438 177.09375 C 109.171875 177.953125 110.253906 178.734375 111.390625 179.433594 C 112.527344 180.136719 113.707031 180.75 114.933594 181.277344 L 114.933594 193.652344 C 114.933594 193.96875 114.964844 194.28125 115.027344 194.589844 C 115.089844 194.902344 115.179688 195.203125 115.300781 195.496094 C 115.421875 195.785156 115.570312 196.0625 115.746094 196.328125 C 115.921875 196.589844 116.121094 196.832031 116.34375 197.054688 C 116.566406 197.28125 116.8125 197.480469 117.074219 197.65625 C 117.335938 197.832031 117.613281 197.980469 117.90625 198.101562 C 118.199219 198.222656 118.5 198.3125 118.808594 198.375 C 119.121094 198.4375 119.433594 198.464844 119.75 198.464844 L 139.492188 198.464844 C 143.226562 202.558594 147.378906 206.167969 151.949219 209.296875 C 156.519531 212.429688 161.386719 214.996094 166.550781 217.003906 C 141.320312 221.769531 120.566406 234.339844 112.480469 250.613281 Z M 277.101562 144.972656 L 277.101562 156.191406 C 277.101562 156.78125 277.070312 157.367188 277.011719 157.953125 C 276.953125 158.539062 276.863281 159.121094 276.75 159.699219 C 276.632812 160.273438 276.488281 160.84375 276.316406 161.40625 C 276.144531 161.972656 275.945312 162.523438 275.71875 163.066406 C 275.492188 163.613281 275.238281 164.140625 274.960938 164.660156 C 274.683594 165.179688 274.378906 165.683594 274.050781 166.171875 C 273.722656 166.660156 273.371094 167.132812 272.996094 167.589844 C 272.625 168.042969 272.226562 168.476562 271.8125 168.894531 C 271.394531 169.308594 270.957031 169.703125 270.503906 170.078125 C 270.046875 170.449219 269.574219 170.800781 269.085938 171.125 C 268.59375 171.453125 268.089844 171.753906 267.570312 172.03125 C 267.050781 172.308594 266.519531 172.558594 265.976562 172.785156 C 265.429688 173.011719 264.875 173.207031 264.3125 173.378906 C 263.75 173.550781 263.179688 173.691406 262.601562 173.804688 C 262.023438 173.921875 261.441406 174.007812 260.855469 174.066406 C 260.269531 174.121094 259.683594 174.152344 259.09375 174.152344 C 260.417969 170.367188 261.414062 166.5 262.085938 162.546875 C 262.753906 158.59375 263.089844 154.613281 263.089844 150.605469 C 263.089844 146.597656 262.753906 142.617188 262.085938 138.664062 C 261.414062 134.710938 260.417969 130.84375 259.09375 127.0625 C 260.816406 127.058594 262.5 127.296875 264.148438 127.78125 L 264.632812 127.78125 C 267.375 128.648438 269.765625 130.089844 271.804688 132.117188 C 273.511719 133.820312 274.824219 135.785156 275.742188 138.015625 C 276.660156 140.242188 277.113281 142.5625 277.101562 144.972656 Z M 191.972656 61.867188 C 193.972656 61.867188 195.964844 61.957031 197.953125 62.128906 C 199.945312 62.304688 201.921875 62.5625 203.890625 62.90625 C 205.859375 63.246094 207.808594 63.671875 209.738281 64.183594 C 211.671875 64.691406 213.578125 65.28125 215.457031 65.953125 C 217.335938 66.625 219.1875 67.378906 221.003906 68.207031 C 222.820312 69.039062 224.597656 69.941406 226.335938 70.925781 C 228.074219 71.90625 229.769531 72.960938 231.417969 74.089844 C 233.066406 75.214844 234.667969 76.410156 236.214844 77.671875 C 237.761719 78.9375 239.25 80.265625 240.683594 81.65625 C 242.117188 83.046875 243.488281 84.496094 244.796875 86.003906 C 246.109375 87.511719 247.351562 89.070312 248.527344 90.6875 C 249.703125 92.300781 250.808594 93.960938 251.84375 95.671875 C 252.878906 97.378906 253.835938 99.128906 254.722656 100.917969 C 255.605469 102.710938 256.414062 104.535156 257.140625 106.394531 C 257.871094 108.253906 258.519531 110.140625 259.085938 112.058594 C 259.652344 113.972656 260.136719 115.90625 260.539062 117.863281 C 260.058594 117.816406 259.574219 117.816406 259.09375 117.863281 C 257.722656 117.863281 256.359375 117.960938 255 118.152344 C 253.515625 115.273438 251.839844 112.511719 249.976562 109.863281 C 248.113281 107.210938 246.078125 104.703125 243.871094 102.332031 C 241.660156 99.960938 239.300781 97.753906 236.792969 95.707031 C 234.28125 93.660156 231.644531 91.792969 228.875 90.109375 C 226.109375 88.421875 223.242188 86.933594 220.273438 85.640625 C 217.300781 84.347656 214.257812 83.265625 211.136719 82.390625 C 208.019531 81.515625 204.855469 80.855469 201.644531 80.414062 C 198.4375 79.972656 195.214844 79.75 191.972656 79.75 C 188.734375 79.75 185.511719 79.972656 182.300781 80.414062 C 179.09375 80.855469 175.929688 81.515625 172.808594 82.390625 C 169.691406 83.265625 166.644531 84.347656 163.675781 85.640625 C 160.707031 86.933594 157.835938 88.421875 155.070312 90.109375 C 152.304688 91.792969 149.667969 93.660156 147.15625 95.707031 C 144.644531 97.753906 142.285156 99.960938 140.078125 102.332031 C 137.871094 104.703125 135.835938 107.210938 133.96875 109.863281 C 132.105469 112.511719 130.429688 115.273438 128.945312 118.152344 C 127.839844 118.082031 126.730469 118.082031 125.625 118.152344 L 123.410156 118.152344 C 123.792969 116.1875 124.265625 114.238281 124.820312 112.3125 C 125.375 110.386719 126.007812 108.488281 126.726562 106.617188 C 127.445312 104.746094 128.242188 102.910156 129.117188 101.105469 C 129.996094 99.304688 130.945312 97.542969 131.976562 95.820312 C 133.003906 94.101562 134.101562 92.425781 135.277344 90.800781 C 136.449219 89.175781 137.6875 87.605469 138.996094 86.085938 C 140.304688 84.566406 141.675781 83.105469 143.109375 81.707031 C 144.542969 80.304688 146.035156 78.96875 147.585938 77.699219 C 149.132812 76.425781 150.734375 75.222656 152.386719 74.089844 C 154.039062 72.957031 155.738281 71.894531 157.484375 70.910156 C 159.226562 69.921875 161.011719 69.011719 162.835938 68.179688 C 164.65625 67.34375 166.511719 66.589844 168.402344 65.917969 C 170.289062 65.246094 172.203125 64.652344 174.140625 64.144531 C 176.078125 63.636719 178.035156 63.214844 180.011719 62.875 C 181.988281 62.535156 183.972656 62.28125 185.972656 62.113281 C 187.96875 61.945312 189.96875 61.863281 191.972656 61.867188 Z M 107.710938 156.191406 L 107.710938 144.972656 C 107.714844 144.097656 107.78125 143.226562 107.910156 142.359375 C 108.039062 141.496094 108.230469 140.644531 108.480469 139.804688 C 108.734375 138.96875 109.046875 138.152344 109.417969 137.359375 C 109.792969 136.566406 110.21875 135.808594 110.703125 135.078125 C 111.1875 134.347656 111.71875 133.65625 112.304688 133.003906 C 112.886719 132.351562 113.515625 131.746094 114.1875 131.183594 C 114.859375 130.625 115.570312 130.117188 116.316406 129.660156 C 117.0625 129.203125 117.835938 128.800781 118.640625 128.457031 L 119.796875 128.070312 C 121.480469 127.476562 123.214844 127.15625 124.996094 127.109375 C 123.675781 130.882812 122.679688 134.746094 122.007812 138.6875 C 121.335938 142.632812 121 146.605469 121 150.605469 C 121 154.605469 121.335938 158.578125 122.007812 162.523438 C 122.679688 166.46875 123.675781 170.328125 124.996094 174.101562 C 123.519531 174.101562 122.074219 173.875 120.664062 173.429688 C 119.734375 173.160156 118.835938 172.820312 117.960938 172.40625 C 117.089844 171.996094 116.253906 171.515625 115.457031 170.964844 C 114.664062 170.417969 113.917969 169.808594 113.21875 169.140625 C 112.523438 168.46875 111.882812 167.75 111.304688 166.976562 C 110.722656 166.203125 110.207031 165.390625 109.761719 164.535156 C 109.3125 163.679688 108.933594 162.792969 108.628906 161.875 C 108.324219 160.960938 108.09375 160.023438 107.941406 159.070312 C 107.785156 158.117188 107.710938 157.15625 107.710938 156.191406 Z M 124.5625 188.980469 L 124.5625 183.394531 L 125.863281 183.394531 C 126.988281 183.464844 128.109375 183.464844 129.234375 183.394531 C 130.238281 185.367188 131.347656 187.277344 132.558594 189.125 Z M 144.066406 188.980469 L 165.347656 188.980469 C 165.472656 188.4375 165.640625 187.90625 165.855469 187.390625 C 166.066406 186.875 166.320312 186.378906 166.617188 185.902344 C 166.910156 185.429688 167.242188 184.980469 167.609375 184.5625 C 167.980469 184.144531 168.382812 183.757812 168.816406 183.402344 C 169.246094 183.050781 169.707031 182.734375 170.191406 182.460938 C 170.675781 182.183594 171.183594 181.945312 171.707031 181.753906 C 172.230469 181.5625 172.765625 181.414062 173.316406 181.308594 C 173.863281 181.203125 174.417969 181.144531 174.976562 181.132812 L 184.605469 181.132812 C 185.269531 181.136719 185.925781 181.203125 186.574219 181.335938 C 187.222656 181.46875 187.851562 181.660156 188.460938 181.917969 C 189.070312 182.171875 189.652344 182.484375 190.203125 182.855469 C 190.75 183.222656 191.257812 183.640625 191.726562 184.113281 C 192.191406 184.582031 192.609375 185.089844 192.976562 185.640625 C 193.34375 186.191406 193.652344 186.773438 193.90625 187.386719 C 194.15625 187.996094 194.347656 188.628906 194.476562 189.277344 C 194.605469 189.925781 194.671875 190.582031 194.671875 191.246094 L 194.671875 193.890625 C 194.671875 194.554688 194.605469 195.210938 194.476562 195.859375 C 194.347656 196.507812 194.15625 197.140625 193.90625 197.75 C 193.652344 198.363281 193.34375 198.945312 192.976562 199.496094 C 192.609375 200.046875 192.191406 200.554688 191.726562 201.027344 C 191.257812 201.496094 190.75 201.914062 190.203125 202.285156 C 189.652344 202.652344 189.070312 202.964844 188.460938 203.21875 C 187.851562 203.476562 187.222656 203.667969 186.574219 203.800781 C 185.925781 203.933594 185.269531 204 184.605469 204.003906 L 174.976562 204.003906 C 174.027344 204 173.101562 203.867188 172.191406 203.601562 C 171.28125 203.335938 170.425781 202.949219 169.625 202.445312 C 168.824219 201.9375 168.109375 201.328125 167.480469 200.621094 C 166.851562 199.910156 166.332031 199.128906 165.925781 198.273438 L 152.972656 198.273438 C 149.582031 195.511719 146.53125 192.414062 143.824219 188.980469 Z M 144.066406 188.980469 "/></g><g clip-rule="nonzero" clip-path="url(#8593a76bc8)"><path style=" stroke:none;fill-rule:nonzero;fill:#3761ea;fill-opacity:1;" d="M 112.480469 250.613281 L 82.867188 310.125 C 82.585938 310.753906 82.441406 311.410156 82.441406 312.101562 C 82.441406 312.789062 82.585938 313.445312 82.867188 314.074219 C 83.15625 314.703125 83.558594 315.242188 84.078125 315.695312 C 84.601562 316.148438 85.191406 316.476562 85.851562 316.675781 C 102.65625 321.582031 119.71875 325.304688 137.039062 327.84375 C 154.359375 330.382812 171.773438 331.714844 189.277344 331.839844 L 191.972656 331.839844 C 209.945312 331.84375 227.828125 330.574219 245.621094 328.03125 C 263.414062 325.492188 280.9375 321.707031 298.191406 316.675781 C 298.851562 316.476562 299.445312 316.148438 299.964844 315.695312 C 300.484375 315.242188 300.890625 314.703125 301.175781 314.074219 C 301.460938 313.445312 301.601562 312.789062 301.601562 312.101562 C 301.601562 311.410156 301.460938 310.753906 301.175781 310.125 L 271.46875 250.613281 C 263.378906 234.339844 242.578125 221.722656 217.445312 216.90625 C 221.46875 215.359375 225.316406 213.457031 228.996094 211.207031 C 232.671875 208.953125 236.113281 206.386719 239.324219 203.507812 C 242.53125 200.628906 245.453125 197.484375 248.085938 194.070312 C 250.722656 190.660156 253.027344 187.035156 255 183.203125 C 256.355469 183.4375 257.71875 183.550781 259.09375 183.539062 C 259.988281 183.539062 260.878906 183.496094 261.765625 183.410156 C 262.65625 183.320312 263.539062 183.191406 264.414062 183.015625 C 265.289062 182.84375 266.15625 182.625 267.011719 182.367188 C 267.867188 182.109375 268.707031 181.808594 269.53125 181.46875 C 270.355469 181.125 271.164062 180.746094 271.949219 180.324219 C 272.738281 179.902344 273.503906 179.445312 274.246094 178.949219 C 274.988281 178.453125 275.707031 177.921875 276.398438 177.355469 C 277.089844 176.789062 277.75 176.191406 278.382812 175.5625 C 279.015625 174.929688 279.613281 174.269531 280.179688 173.578125 C 280.75 172.890625 281.28125 172.175781 281.777344 171.433594 C 282.273438 170.691406 282.734375 169.925781 283.15625 169.136719 C 283.578125 168.351562 283.960938 167.546875 284.304688 166.71875 C 284.644531 165.894531 284.949219 165.054688 285.207031 164.203125 C 285.46875 163.347656 285.6875 162.484375 285.863281 161.605469 C 286.039062 160.730469 286.171875 159.847656 286.257812 158.960938 C 286.347656 158.070312 286.394531 157.179688 286.394531 156.289062 L 286.394531 144.972656 C 286.394531 143.183594 286.21875 141.410156 285.871094 139.65625 C 285.519531 137.902344 285.003906 136.199219 284.316406 134.546875 C 283.632812 132.894531 282.792969 131.324219 281.796875 129.835938 C 280.800781 128.351562 279.667969 126.976562 278.402344 125.710938 C 276.0625 123.296875 273.367188 121.386719 270.3125 119.984375 C 269.96875 117.648438 269.519531 115.339844 268.96875 113.046875 C 268.417969 110.753906 267.765625 108.488281 267.011719 106.257812 C 266.257812 104.023438 265.40625 101.824219 264.457031 99.667969 C 263.507812 97.507812 262.464844 95.398438 261.328125 93.332031 C 260.1875 91.269531 258.960938 89.257812 257.644531 87.300781 C 256.328125 85.347656 254.925781 83.453125 253.4375 81.625 C 251.953125 79.792969 250.386719 78.035156 248.746094 76.34375 C 247.101562 74.652344 245.386719 73.039062 243.597656 71.5 C 241.8125 69.960938 239.957031 68.507812 238.042969 67.136719 C 236.125 65.761719 234.148438 64.480469 232.117188 63.28125 C 230.085938 62.085938 228.003906 60.984375 225.875 59.972656 C 223.746094 58.964844 221.574219 58.050781 219.363281 57.234375 C 217.148438 56.417969 214.90625 55.699219 212.628906 55.082031 C 210.355469 54.46875 208.054688 53.953125 205.734375 53.542969 C 203.414062 53.132812 201.078125 52.824219 198.730469 52.621094 C 196.378906 52.417969 194.027344 52.320312 191.667969 52.328125 C 189.3125 52.335938 186.957031 52.449219 184.609375 52.664062 C 182.261719 52.882812 179.929688 53.203125 177.609375 53.628906 C 175.292969 54.054688 172.996094 54.582031 170.726562 55.210938 C 168.453125 55.84375 166.214844 56.574219 164.007812 57.402344 C 161.800781 58.234375 159.632812 59.160156 157.511719 60.183594 C 155.386719 61.207031 153.3125 62.324219 151.289062 63.53125 C 149.261719 64.738281 147.296875 66.035156 145.386719 67.417969 C 143.480469 68.804688 141.636719 70.269531 139.859375 71.820312 C 138.082031 73.367188 136.375 74.992188 134.742188 76.691406 C 133.109375 78.394531 131.554688 80.164062 130.082031 82.003906 C 128.605469 83.84375 127.214844 85.742188 125.910156 87.707031 C 124.605469 89.671875 123.390625 91.6875 122.265625 93.761719 C 121.140625 95.832031 120.109375 97.949219 119.171875 100.113281 C 118.238281 102.277344 117.398438 104.480469 116.660156 106.71875 C 115.917969 108.957031 115.28125 111.222656 114.742188 113.519531 C 114.207031 115.816406 113.773438 118.128906 113.441406 120.464844 C 112.320312 121.027344 111.238281 121.664062 110.207031 122.375 C 109.171875 123.085938 108.191406 123.867188 107.261719 124.714844 C 106.335938 125.5625 105.472656 126.46875 104.671875 127.4375 C 103.871094 128.402344 103.140625 129.421875 102.480469 130.488281 C 101.820312 131.558594 101.234375 132.667969 100.730469 133.816406 C 100.222656 134.964844 99.796875 136.144531 99.453125 137.351562 C 99.113281 138.558594 98.851562 139.785156 98.679688 141.03125 C 98.507812 142.273438 98.417969 143.523438 98.417969 144.78125 L 98.417969 156 C 98.410156 157.335938 98.496094 158.664062 98.683594 159.984375 C 98.867188 161.308594 99.148438 162.609375 99.523438 163.890625 C 99.902344 165.171875 100.371094 166.421875 100.929688 167.632812 C 101.488281 168.84375 102.132812 170.011719 102.863281 171.128906 C 103.59375 172.246094 104.402344 173.304688 105.289062 174.304688 C 106.175781 175.304688 107.128906 176.234375 108.148438 177.09375 C 109.171875 177.953125 110.253906 178.734375 111.390625 179.433594 C 112.527344 180.136719 113.707031 180.75 114.933594 181.277344 L 114.933594 193.652344 C 114.933594 193.96875 114.964844 194.28125 115.027344 194.589844 C 115.089844 194.902344 115.179688 195.203125 115.300781 195.496094 C 115.421875 195.785156 115.570312 196.0625 115.746094 196.328125 C 115.921875 196.589844 116.121094 196.832031 116.34375 197.054688 C 116.566406 197.28125 116.8125 197.480469 117.074219 197.65625 C 117.335938 197.832031 117.613281 197.980469 117.90625 198.101562 C 118.199219 198.222656 118.5 198.3125 118.808594 198.375 C 119.121094 198.4375 119.433594 198.464844 119.75 198.464844 L 139.492188 198.464844 C 143.226562 202.558594 147.378906 206.167969 151.949219 209.296875 C 156.519531 212.429688 161.386719 214.996094 166.550781 217.003906 C 141.320312 221.769531 120.566406 234.339844 112.480469 250.613281 Z M 277.101562 144.972656 L 277.101562 156.191406 C 277.101562 156.78125 277.070312 157.367188 277.011719 157.953125 C 276.953125 158.539062 276.863281 159.121094 276.75 159.699219 C 276.632812 160.273438 276.488281 160.84375 276.316406 161.40625 C 276.144531 161.972656 275.945312 162.523438 275.71875 163.066406 C 275.492188 163.613281 275.238281 164.140625 274.960938 164.660156 C 274.683594 165.179688 274.378906 165.683594 274.050781 166.171875 C 273.722656 166.660156 273.371094 167.132812 272.996094 167.589844 C 272.625 168.042969 272.226562 168.476562 271.8125 168.894531 C 271.394531 169.308594 270.957031 169.703125 270.503906 170.078125 C 270.046875 170.449219 269.574219 170.800781 269.085938 171.125 C 268.59375 171.453125 268.089844 171.753906 267.570312 172.03125 C 267.050781 172.308594 266.519531 172.558594 265.976562 172.785156 C 265.429688 173.011719 264.875 173.207031 264.3125 173.378906 C 263.75 173.550781 263.179688 173.691406 262.601562 173.804688 C 262.023438 173.921875 261.441406 174.007812 260.855469 174.066406 C 260.269531 174.121094 259.683594 174.152344 259.09375 174.152344 C 260.417969 170.367188 261.414062 166.5 262.085938 162.546875 C 262.753906 158.59375 263.089844 154.613281 263.089844 150.605469 C 263.089844 146.597656 262.753906 142.617188 262.085938 138.664062 C 261.414062 134.710938 260.417969 130.84375 259.09375 127.0625 C 260.816406 127.058594 262.5 127.296875 264.148438 127.78125 L 264.632812 127.78125 C 267.375 128.648438 269.765625 130.089844 271.804688 132.117188 C 273.511719 133.820312 274.824219 135.785156 275.742188 138.015625 C 276.660156 140.242188 277.113281 142.5625 277.101562 144.972656 Z M 191.972656 61.867188 C 193.972656 61.867188 195.964844 61.957031 197.953125 62.128906 C 199.945312 62.304688 201.921875 62.5625 203.890625 62.90625 C 205.859375 63.246094 207.808594 63.671875 209.738281 64.183594 C 211.671875 64.691406 213.578125 65.28125 215.457031 65.953125 C 217.335938 66.625 219.1875 67.378906 221.003906 68.207031 C 222.820312 69.039062 224.597656 69.941406 226.335938 70.925781 C 228.074219 71.90625 229.769531 72.960938 231.417969 74.089844 C 233.066406 75.214844 234.667969 76.410156 236.214844 77.671875 C 237.761719 78.9375 239.25 80.265625 240.683594 81.65625 C 242.117188 83.046875 243.488281 84.496094 244.796875 86.003906 C 246.109375 87.511719 247.351562 89.070312 248.527344 90.6875 C 249.703125 92.300781 250.808594 93.960938 251.84375 95.671875 C 252.878906 97.378906 253.835938 99.128906 254.722656 100.917969 C 255.605469 102.710938 256.414062 104.535156 257.140625 106.394531 C 257.871094 108.253906 258.519531 110.140625 259.085938 112.058594 C 259.652344 113.972656 260.136719 115.90625 260.539062 117.863281 C 260.058594 117.816406 259.574219 117.816406 259.09375 117.863281 C 257.722656 117.863281 256.359375 117.960938 255 118.152344 C 253.515625 115.273438 251.839844 112.511719 249.976562 109.863281 C 248.113281 107.210938 246.078125 104.703125 243.871094 102.332031 C 241.660156 99.960938 239.300781 97.753906 236.792969 95.707031 C 234.28125 93.660156 231.644531 91.792969 228.875 90.109375 C 226.109375 88.421875 223.242188 86.933594 220.273438 85.640625 C 217.300781 84.347656 214.257812 83.265625 211.136719 82.390625 C 208.019531 81.515625 204.855469 80.855469 201.644531 80.414062 C 198.4375 79.972656 195.214844 79.75 191.972656 79.75 C 188.734375 79.75 185.511719 79.972656 182.300781 80.414062 C 179.09375 80.855469 175.929688 81.515625 172.808594 82.390625 C 169.691406 83.265625 166.644531 84.347656 163.675781 85.640625 C 160.707031 86.933594 157.835938 88.421875 155.070312 90.109375 C 152.304688 91.792969 149.667969 93.660156 147.15625 95.707031 C 144.644531 97.753906 142.285156 99.960938 140.078125 102.332031 C 137.871094 104.703125 135.835938 107.210938 133.96875 109.863281 C 132.105469 112.511719 130.429688 115.273438 128.945312 118.152344 C 127.839844 118.082031 126.730469 118.082031 125.625 118.152344 L 123.410156 118.152344 C 123.792969 116.1875 124.265625 114.238281 124.820312 112.3125 C 125.375 110.386719 126.007812 108.488281 126.726562 106.617188 C 127.445312 104.746094 128.242188 102.910156 129.117188 101.105469 C 129.996094 99.304688 130.945312 97.542969 131.976562 95.820312 C 133.003906 94.101562 134.101562 92.425781 135.277344 90.800781 C 136.449219 89.175781 137.6875 87.605469 138.996094 86.085938 C 140.304688 84.566406 141.675781 83.105469 143.109375 81.707031 C 144.542969 80.304688 146.035156 78.96875 147.585938 77.699219 C 149.132812 76.425781 150.734375 75.222656 152.386719 74.089844 C 154.039062 72.957031 155.738281 71.894531 157.484375 70.910156 C 159.226562 69.921875 161.011719 69.011719 162.835938 68.179688 C 164.65625 67.34375 166.511719 66.589844 168.402344 65.917969 C 170.289062 65.246094 172.203125 64.652344 174.140625 64.144531 C 176.078125 63.636719 178.035156 63.214844 180.011719 62.875 C 181.988281 62.535156 183.972656 62.28125 185.972656 62.113281 C 187.96875 61.945312 189.96875 61.863281 191.972656 61.867188 Z M 107.710938 156.191406 L 107.710938 144.972656 C 107.714844 144.097656 107.78125 143.226562 107.910156 142.359375 C 108.039062 141.496094 108.230469 140.644531 108.480469 139.804688 C 108.734375 138.96875 109.046875 138.152344 109.417969 137.359375 C 109.792969 136.566406 110.21875 135.808594 110.703125 135.078125 C 111.1875 134.347656 111.71875 133.65625 112.304688 133.003906 C 112.886719 132.351562 113.515625 131.746094 114.1875 131.183594 C 114.859375 130.625 115.570312 130.117188 116.316406 129.660156 C 117.0625 129.203125 117.835938 128.800781 118.640625 128.457031 L 119.796875 128.070312 C 121.480469 127.476562 123.214844 127.15625 124.996094 127.109375 C 123.675781 130.882812 122.679688 134.746094 122.007812 138.6875 C 121.335938 142.632812 121 146.605469 121 150.605469 C 121 154.605469 121.335938 158.578125 122.007812 162.523438 C 122.679688 166.46875 123.675781 170.328125 124.996094 174.101562 C 123.519531 174.101562 122.074219 173.875 120.664062 173.429688 C 119.734375 173.160156 118.835938 172.820312 117.960938 172.40625 C 117.089844 171.996094 116.253906 171.515625 115.457031 170.964844 C 114.664062 170.417969 113.917969 169.808594 113.21875 169.140625 C 112.523438 168.46875 111.882812 167.75 111.304688 166.976562 C 110.722656 166.203125 110.207031 165.390625 109.761719 164.535156 C 109.3125 163.679688 108.933594 162.792969 108.628906 161.875 C 108.324219 160.960938 108.09375 160.023438 107.941406 159.070312 C 107.785156 158.117188 107.710938 157.15625 107.710938 156.191406 Z M 124.5625 188.980469 L 124.5625 183.394531 L 125.863281 183.394531 C 126.988281 183.464844 128.109375 183.464844 129.234375 183.394531 C 130.238281 185.367188 131.347656 187.277344 132.558594 189.125 Z M 144.066406 188.980469 L 165.347656 188.980469 C 165.472656 188.4375 165.640625 187.90625 165.855469 187.390625 C 166.066406 186.875 166.320312 186.378906 166.617188 185.902344 C 166.910156 185.429688 167.242188 184.980469 167.609375 184.5625 C 167.980469 184.144531 168.382812 183.757812 168.816406 183.402344 C 169.246094 183.050781 169.707031 182.734375 170.191406 182.460938 C 170.675781 182.183594 171.183594 181.945312 171.707031 181.753906 C 172.230469 181.5625 172.765625 181.414062 173.316406 181.308594 C 173.863281 181.203125 174.417969 181.144531 174.976562 181.132812 L 184.605469 181.132812 C 185.269531 181.136719 185.925781 181.203125 186.574219 181.335938 C 187.222656 181.46875 187.851562 181.660156 188.460938 181.917969 C 189.070312 182.171875 189.652344 182.484375 190.203125 182.855469 C 190.75 183.222656 191.257812 183.640625 191.726562 184.113281 C 192.191406 184.582031 192.609375 185.089844 192.976562 185.640625 C 193.34375 186.191406 193.652344 186.773438 193.90625 187.386719 C 194.15625 187.996094 194.347656 188.628906 194.476562 189.277344 C 194.605469 189.925781 194.671875 190.582031 194.671875 191.246094 L 194.671875 193.890625 C 194.671875 194.554688 194.605469 195.210938 194.476562 195.859375 C 194.347656 196.507812 194.15625 197.140625 193.90625 197.75 C 193.652344 198.363281 193.34375 198.945312 192.976562 199.496094 C 192.609375 200.046875 192.191406 200.554688 191.726562 201.027344 C 191.257812 201.496094 190.75 201.914062 190.203125 202.285156 C 189.652344 202.652344 189.070312 202.964844 188.460938 203.21875 C 187.851562 203.476562 187.222656 203.667969 186.574219 203.800781 C 185.925781 203.933594 185.269531 204 184.605469 204.003906 L 174.976562 204.003906 C 174.027344 204 173.101562 203.867188 172.191406 203.601562 C 171.28125 203.335938 170.425781 202.949219 169.625 202.445312 C 168.824219 201.9375 168.109375 201.328125 167.480469 200.621094 C 166.851562 199.910156 166.332031 199.128906 165.925781 198.273438 L 152.972656 198.273438 C 149.582031 195.511719 146.53125 192.414062 143.824219 188.980469 Z M 144.066406 188.980469 "/></g><g clip-rule="nonzero" clip-path="url(#096eae8f6d)"><path style=" stroke:none;fill-rule:nonzero;fill:#ffffff;fill-opacity:1;" d="M 202.902344 259.316406 L 181.09375 259.316406 C 180.636719 259.316406 180.1875 259.363281 179.738281 259.449219 C 179.292969 259.539062 178.859375 259.671875 178.4375 259.847656 C 178.019531 260.019531 177.617188 260.234375 177.238281 260.488281 C 176.859375 260.742188 176.511719 261.027344 176.1875 261.351562 C 175.867188 261.671875 175.578125 262.023438 175.324219 262.402344 C 175.074219 262.78125 174.859375 263.179688 174.683594 263.601562 C 174.507812 264.023438 174.378906 264.457031 174.289062 264.902344 C 174.199219 265.347656 174.15625 265.800781 174.152344 266.253906 L 174.152344 280.132812 C 174.15625 280.589844 174.199219 281.039062 174.289062 281.484375 C 174.378906 281.933594 174.507812 282.367188 174.683594 282.785156 C 174.859375 283.207031 175.074219 283.605469 175.324219 283.984375 C 175.578125 284.363281 175.867188 284.714844 176.1875 285.035156 C 176.511719 285.359375 176.859375 285.648438 177.238281 285.898438 C 177.617188 286.152344 178.019531 286.367188 178.4375 286.542969 C 178.859375 286.714844 179.292969 286.847656 179.738281 286.9375 C 180.1875 287.027344 180.636719 287.070312 181.09375 287.070312 L 186.574219 287.070312 L 191.234375 292.664062 C 191.328125 292.777344 191.445312 292.863281 191.578125 292.925781 C 191.710938 292.988281 191.851562 293.019531 191.996094 293.019531 C 192.144531 293.019531 192.285156 292.988281 192.417969 292.925781 C 192.550781 292.863281 192.664062 292.777344 192.757812 292.664062 L 197.417969 287.070312 L 202.902344 287.070312 C 203.355469 287.070312 203.808594 287.027344 204.253906 286.9375 C 204.699219 286.847656 205.132812 286.714844 205.554688 286.542969 C 205.976562 286.367188 206.375 286.152344 206.753906 285.898438 C 207.132812 285.648438 207.484375 285.359375 207.804688 285.035156 C 208.125 284.714844 208.414062 284.363281 208.667969 283.984375 C 208.921875 283.605469 209.132812 283.207031 209.308594 282.785156 C 209.484375 282.367188 209.617188 281.933594 209.703125 281.484375 C 209.792969 281.039062 209.839844 280.589844 209.839844 280.132812 L 209.839844 266.253906 C 209.839844 265.800781 209.792969 265.347656 209.703125 264.902344 C 209.617188 264.457031 209.484375 264.023438 209.308594 263.601562 C 209.132812 263.179688 208.921875 262.78125 208.667969 262.402344 C 208.414062 262.023438 208.125 261.671875 207.804688 261.351562 C 207.484375 261.027344 207.132812 260.742188 206.753906 260.488281 C 206.375 260.234375 205.976562 260.019531 205.554688 259.847656 C 205.132812 259.671875 204.699219 259.539062 204.253906 259.449219 C 203.808594 259.363281 203.355469 259.316406 202.902344 259.316406 Z M 207.855469 280.132812 C 207.855469 280.457031 207.824219 280.78125 207.761719 281.097656 C 207.695312 281.417969 207.601562 281.726562 207.476562 282.027344 C 207.355469 282.328125 207.199219 282.613281 207.019531 282.886719 C 206.839844 283.15625 206.632812 283.40625 206.402344 283.636719 C 206.171875 283.867188 205.921875 284.070312 205.652344 284.253906 C 205.382812 284.433594 205.097656 284.585938 204.796875 284.710938 C 204.496094 284.835938 204.1875 284.929688 203.867188 284.992188 C 203.546875 285.058594 203.226562 285.089844 202.902344 285.089844 L 196.953125 285.089844 C 196.644531 285.089844 196.390625 285.207031 196.191406 285.445312 L 191.996094 290.480469 L 187.800781 285.445312 C 187.601562 285.207031 187.347656 285.089844 187.039062 285.089844 L 181.09375 285.089844 C 180.765625 285.089844 180.445312 285.058594 180.125 284.992188 C 179.808594 284.929688 179.496094 284.835938 179.195312 284.710938 C 178.894531 284.585938 178.609375 284.433594 178.339844 284.253906 C 178.070312 284.070312 177.820312 283.867188 177.589844 283.636719 C 177.359375 283.40625 177.152344 283.15625 176.972656 282.886719 C 176.792969 282.613281 176.640625 282.328125 176.515625 282.027344 C 176.390625 281.726562 176.296875 281.417969 176.234375 281.097656 C 176.167969 280.78125 176.136719 280.457031 176.136719 280.132812 L 176.136719 266.253906 C 176.136719 265.929688 176.167969 265.609375 176.234375 265.289062 C 176.296875 264.96875 176.390625 264.660156 176.515625 264.359375 C 176.640625 264.058594 176.792969 263.773438 176.972656 263.503906 C 177.152344 263.230469 177.359375 262.980469 177.589844 262.753906 C 177.820312 262.523438 178.070312 262.316406 178.339844 262.136719 C 178.609375 261.953125 178.894531 261.800781 179.195312 261.675781 C 179.496094 261.554688 179.808594 261.457031 180.125 261.394531 C 180.445312 261.332031 180.765625 261.300781 181.09375 261.296875 L 202.902344 261.296875 C 203.226562 261.300781 203.546875 261.332031 203.867188 261.394531 C 204.1875 261.457031 204.496094 261.554688 204.796875 261.675781 C 205.097656 261.800781 205.382812 261.953125 205.652344 262.136719 C 205.921875 262.316406 206.171875 262.523438 206.402344 262.753906 C 206.632812 262.980469 206.839844 263.230469 207.019531 263.503906 C 207.199219 263.773438 207.355469 264.058594 207.476562 264.359375 C 207.601562 264.660156 207.695312 264.96875 207.761719 265.289062 C 207.824219 265.609375 207.855469 265.929688 207.855469 266.253906 Z M 207.855469 280.132812 "/></g><path style=" stroke:none;fill-rule:nonzero;fill:#ffffff;fill-opacity:1;" d="M 191.996094 277.160156 C 191.734375 277.160156 191.480469 277.210938 191.238281 277.308594 C 190.996094 277.410156 190.78125 277.554688 190.59375 277.738281 C 190.410156 277.925781 190.265625 278.140625 190.164062 278.382812 C 190.0625 278.625 190.015625 278.878906 190.015625 279.140625 C 190.015625 279.40625 190.0625 279.65625 190.164062 279.898438 C 190.265625 280.144531 190.410156 280.359375 190.59375 280.542969 C 190.78125 280.730469 190.996094 280.871094 191.238281 280.972656 C 191.480469 281.074219 191.734375 281.125 191.996094 281.125 C 192.257812 281.125 192.511719 281.074219 192.753906 280.972656 C 193 280.871094 193.210938 280.730469 193.398438 280.542969 C 193.585938 280.359375 193.726562 280.144531 193.828125 279.898438 C 193.929688 279.65625 193.980469 279.40625 193.980469 279.140625 C 193.980469 278.878906 193.929688 278.625 193.828125 278.382812 C 193.726562 278.140625 193.582031 277.925781 193.398438 277.742188 C 193.210938 277.554688 192.996094 277.410156 192.753906 277.3125 C 192.511719 277.210938 192.257812 277.160156 191.996094 277.160156 Z M 191.996094 277.160156 "/><path style=" stroke:none;fill-rule:nonzero;fill:#ffffff;fill-opacity:1;" d="M 191.996094 265.265625 C 191.734375 265.265625 191.480469 265.316406 191.238281 265.414062 C 190.996094 265.515625 190.78125 265.660156 190.59375 265.84375 C 190.410156 266.03125 190.265625 266.246094 190.164062 266.488281 C 190.066406 266.730469 190.015625 266.984375 190.015625 267.246094 L 190.015625 273.195312 C 190.015625 273.457031 190.0625 273.710938 190.164062 273.953125 C 190.265625 274.195312 190.410156 274.410156 190.59375 274.597656 C 190.78125 274.78125 190.996094 274.925781 191.238281 275.027344 C 191.480469 275.125 191.734375 275.175781 191.996094 275.175781 C 192.257812 275.175781 192.511719 275.125 192.753906 275.027344 C 193 274.925781 193.210938 274.78125 193.398438 274.597656 C 193.585938 274.410156 193.726562 274.195312 193.828125 273.953125 C 193.929688 273.710938 193.980469 273.457031 193.980469 273.195312 L 193.980469 267.246094 C 193.980469 266.984375 193.929688 266.730469 193.828125 266.488281 C 193.726562 266.246094 193.582031 266.03125 193.398438 265.84375 C 193.210938 265.660156 192.996094 265.515625 192.753906 265.414062 C 192.511719 265.316406 192.257812 265.265625 191.996094 265.265625 Z M 191.996094 265.265625 "/></g></svg>