<svg xmlns="http://www.w3.org/2000/svg" xmlns:xlink="http://www.w3.org/1999/xlink" width="512" zoomAndPan="magnify" viewBox="0 0 384 383.999986" height="512" preserveAspectRatio="xMidYMid meet" version="1.2"><defs><clipPath id="82de27a52f"><path d="M 51 12.671875 L 333 12.671875 L 333 371.242188 L 51 371.242188 Z M 51 12.671875 "/></clipPath><clipPath id="866facc8f6"><path d="M 51 224.300781 L 333 224.300781 L 333 371.242188 L 51 371.242188 Z M 51 224.300781 "/></clipPath></defs><g id="96c6389e25"><g clip-rule="nonzero" clip-path="url(#82de27a52f)"><path style=" stroke:none;fill-rule:nonzero;fill:#37e3ea;fill-opacity:1;" d="M 90.074219 267.125 L 52.117188 343.40625 C 51.757812 344.210938 51.578125 345.054688 51.578125 345.9375 C 51.578125 346.820312 51.757812 347.664062 52.117188 348.46875 C 52.488281 349.273438 53.007812 349.964844 53.671875 350.546875 C 54.339844 351.125 55.097656 351.546875 55.945312 351.800781 C 77.484375 358.089844 99.351562 362.863281 121.554688 366.117188 C 143.753906 369.375 166.074219 371.082031 188.511719 371.242188 L 191.964844 371.242188 C 215.003906 371.242188 237.925781 369.613281 260.730469 366.359375 C 283.535156 363.101562 305.996094 358.25 328.109375 351.800781 C 328.957031 351.546875 329.714844 351.125 330.382812 350.546875 C 331.050781 349.964844 331.566406 349.273438 331.9375 348.46875 C 332.300781 347.664062 332.480469 346.820312 332.480469 345.9375 C 332.480469 345.054688 332.300781 344.210938 331.9375 343.40625 L 293.859375 267.125 C 283.492188 246.265625 256.828125 230.097656 224.613281 223.925781 C 229.769531 221.941406 234.707031 219.503906 239.417969 216.617188 C 244.128906 213.730469 248.542969 210.441406 252.65625 206.75 C 256.769531 203.0625 260.511719 199.027344 263.890625 194.65625 C 267.265625 190.28125 270.222656 185.636719 272.753906 180.726562 C 274.488281 181.023438 276.238281 181.167969 277.996094 181.15625 C 279.144531 181.15625 280.285156 181.101562 281.425781 180.988281 C 282.5625 180.875 283.695312 180.710938 284.816406 180.484375 C 285.941406 180.261719 287.050781 179.984375 288.144531 179.652344 C 289.242188 179.320312 290.316406 178.9375 291.375 178.5 C 292.433594 178.0625 293.464844 177.574219 294.476562 177.035156 C 295.484375 176.496094 296.46875 175.90625 297.417969 175.273438 C 298.371094 174.636719 299.289062 173.957031 300.175781 173.230469 C 301.0625 172.503906 301.910156 171.738281 302.71875 170.929688 C 303.53125 170.121094 304.296875 169.273438 305.027344 168.390625 C 305.753906 167.507812 306.433594 166.589844 307.070312 165.636719 C 307.707031 164.6875 308.296875 163.707031 308.839844 162.695312 C 309.378906 161.6875 309.871094 160.65625 310.308594 159.597656 C 310.75 158.542969 311.136719 157.464844 311.46875 156.371094 C 311.804688 155.273438 312.082031 154.167969 312.308594 153.042969 C 312.53125 151.921875 312.703125 150.789062 312.816406 149.652344 C 312.929688 148.511719 312.988281 147.371094 312.992188 146.226562 L 312.992188 131.722656 C 312.992188 129.429688 312.765625 127.160156 312.316406 124.910156 C 311.871094 122.660156 311.207031 120.476562 310.328125 118.359375 C 309.449219 116.242188 308.371094 114.230469 307.09375 112.324219 C 305.820312 110.417969 304.371094 108.65625 302.746094 107.035156 C 299.75 103.941406 296.292969 101.492188 292.378906 99.691406 C 292.15625 98.199219 291.902344 96.710938 291.613281 95.226562 C 291.328125 93.746094 291.007812 92.269531 290.652344 90.800781 C 290.300781 89.332031 289.914062 87.871094 289.496094 86.421875 C 289.078125 84.96875 288.628906 83.53125 288.144531 82.097656 C 287.664062 80.667969 287.148438 79.246094 286.601562 77.839844 C 286.058594 76.429688 285.480469 75.035156 284.871094 73.652344 C 284.261719 72.273438 283.625 70.902344 282.957031 69.550781 C 282.285156 68.195312 281.585938 66.855469 280.859375 65.535156 C 280.128906 64.210938 279.371094 62.90625 278.585938 61.617188 C 277.796875 60.328125 276.980469 59.058594 276.136719 57.804688 C 275.292969 56.550781 274.421875 55.320312 273.523438 54.105469 C 272.625 52.890625 271.699219 51.699219 270.75 50.527344 C 269.796875 49.355469 268.820312 48.203125 267.816406 47.074219 C 266.8125 45.945312 265.785156 44.839844 264.730469 43.757812 C 263.679688 42.675781 262.601562 41.613281 261.503906 40.578125 C 260.402344 39.546875 259.28125 38.535156 258.136719 37.550781 C 256.992188 36.566406 255.824219 35.605469 254.636719 34.671875 C 253.449219 33.742188 252.242188 32.835938 251.011719 31.957031 C 249.785156 31.078125 248.539062 30.226562 247.273438 29.402344 C 246.007812 28.578125 244.722656 27.785156 243.421875 27.019531 C 242.121094 26.25 240.800781 25.515625 239.46875 24.808594 C 238.132812 24.101562 236.785156 23.421875 235.417969 22.777344 C 234.054688 22.128906 232.675781 21.511719 231.285156 20.925781 C 229.890625 20.339844 228.488281 19.785156 227.070312 19.261719 C 225.65625 18.738281 224.226562 18.25 222.789062 17.789062 C 221.347656 17.328125 219.902344 16.902344 218.445312 16.507812 C 216.984375 16.113281 215.519531 15.75 214.046875 15.421875 C 212.570312 15.09375 211.089844 14.796875 209.605469 14.53125 C 208.117188 14.269531 206.625 14.039062 205.128906 13.84375 C 203.628906 13.644531 202.128906 13.480469 200.625 13.351562 C 199.121094 13.222656 197.613281 13.125 196.105469 13.0625 C 194.59375 13 193.085938 12.972656 191.574219 12.976562 C 190.066406 12.980469 188.554688 13.019531 187.046875 13.089844 C 185.539062 13.164062 184.03125 13.269531 182.527344 13.40625 C 181.027344 13.546875 179.527344 13.71875 178.03125 13.925781 C 176.535156 14.132812 175.042969 14.371094 173.558594 14.644531 C 172.070312 14.914062 170.59375 15.222656 169.121094 15.558594 C 167.648438 15.898438 166.1875 16.269531 164.730469 16.671875 C 163.273438 17.078125 161.828125 17.511719 160.394531 17.980469 C 158.957031 18.449219 157.535156 18.949219 156.121094 19.480469 C 154.707031 20.011719 153.304688 20.574219 151.917969 21.171875 C 150.527344 21.765625 149.152344 22.390625 147.792969 23.042969 C 146.433594 23.699219 145.085938 24.386719 143.757812 25.101562 C 142.429688 25.816406 141.113281 26.5625 139.816406 27.335938 C 138.519531 28.109375 137.242188 28.914062 135.980469 29.742188 C 134.71875 30.574219 133.476562 31.433594 132.253906 32.320312 C 131.03125 33.207031 129.832031 34.121094 128.648438 35.058594 C 127.46875 36 126.304688 36.964844 125.167969 37.957031 C 124.027344 38.949219 122.914062 39.96875 121.820312 41.007812 C 120.726562 42.050781 119.65625 43.117188 118.609375 44.207031 C 117.5625 45.292969 116.542969 46.40625 115.546875 47.542969 C 114.550781 48.675781 113.578125 49.832031 112.636719 51.011719 C 111.691406 52.191406 110.773438 53.390625 109.882812 54.609375 C 108.988281 55.828125 108.125 57.066406 107.289062 58.324219 C 106.453125 59.582031 105.644531 60.855469 104.867188 62.148438 C 104.089844 63.445312 103.339844 64.753906 102.617188 66.082031 C 101.898438 67.410156 101.207031 68.75 100.546875 70.109375 C 99.882812 71.46875 99.253906 72.839844 98.65625 74.226562 C 98.054688 75.613281 97.484375 77.011719 96.949219 78.421875 C 96.410156 79.832031 95.90625 81.257812 95.433594 82.691406 C 94.957031 84.125 94.515625 85.566406 94.109375 87.019531 C 93.699219 88.476562 93.320312 89.9375 92.976562 91.40625 C 92.632812 92.878906 92.320312 94.355469 92.042969 95.839844 C 91.765625 97.324219 91.519531 98.8125 91.308594 100.308594 C 89.867188 101.03125 88.484375 101.847656 87.160156 102.757812 C 85.832031 103.671875 84.578125 104.671875 83.390625 105.757812 C 82.199219 106.84375 81.09375 108.007812 80.066406 109.246094 C 79.039062 110.484375 78.105469 111.789062 77.257812 113.160156 C 76.410156 114.53125 75.664062 115.949219 75.015625 117.421875 C 74.367188 118.898438 73.820312 120.40625 73.382812 121.957031 C 72.941406 123.503906 72.609375 125.074219 72.386719 126.667969 C 72.164062 128.265625 72.054688 129.867188 72.054688 131.476562 L 72.054688 145.855469 C 72.039062 147.566406 72.152344 149.269531 72.390625 150.964844 C 72.628906 152.660156 72.988281 154.332031 73.472656 155.972656 C 73.953125 157.613281 74.554688 159.214844 75.269531 160.769531 C 75.988281 162.320312 76.8125 163.816406 77.75 165.25 C 78.6875 166.683594 79.722656 168.039062 80.859375 169.320312 C 81.992188 170.601562 83.214844 171.792969 84.527344 172.894531 C 85.835938 173.996094 87.21875 174.996094 88.675781 175.894531 C 90.132812 176.792969 91.648438 177.582031 93.222656 178.257812 L 93.222656 194.117188 C 93.222656 194.523438 93.261719 194.921875 93.339844 195.320312 C 93.417969 195.71875 93.535156 196.105469 93.691406 196.480469 C 93.847656 196.851562 94.035156 197.210938 94.261719 197.546875 C 94.488281 197.882812 94.742188 198.195312 95.027344 198.480469 C 95.316406 198.769531 95.628906 199.023438 95.964844 199.25 C 96.300781 199.472656 96.65625 199.664062 97.03125 199.820312 C 97.40625 199.972656 97.792969 200.089844 98.1875 200.171875 C 98.585938 200.25 98.988281 200.289062 99.394531 200.289062 L 124.695312 200.289062 C 129.484375 205.53125 134.808594 210.160156 140.667969 214.171875 C 146.523438 218.183594 152.761719 221.476562 159.378906 224.050781 C 127.042969 230.160156 100.441406 246.265625 90.074219 267.125 Z M 301.078125 131.722656 L 301.078125 146.101562 C 301.078125 146.855469 301.039062 147.609375 300.960938 148.359375 C 300.886719 149.113281 300.773438 149.855469 300.625 150.597656 C 300.476562 151.335938 300.292969 152.066406 300.070312 152.789062 C 299.851562 153.511719 299.59375 154.21875 299.304688 154.917969 C 299.015625 155.613281 298.691406 156.292969 298.335938 156.957031 C 297.976562 157.625 297.589844 158.269531 297.167969 158.894531 C 296.746094 159.523438 296.296875 160.128906 295.816406 160.710938 C 295.339844 161.292969 294.832031 161.851562 294.296875 162.382812 C 293.761719 162.917969 293.203125 163.421875 292.621094 163.898438 C 292.035156 164.378906 291.429688 164.828125 290.800781 165.246094 C 290.175781 165.664062 289.527344 166.050781 288.863281 166.40625 C 288.195312 166.761719 287.515625 167.082031 286.816406 167.371094 C 286.121094 167.660156 285.410156 167.914062 284.6875 168.132812 C 283.964844 168.351562 283.234375 168.535156 282.492188 168.679688 C 281.753906 168.828125 281.007812 168.9375 280.257812 169.011719 C 279.503906 169.085938 278.753906 169.121094 277.996094 169.121094 C 279.691406 164.273438 280.972656 159.3125 281.832031 154.25 C 282.691406 149.183594 283.121094 144.082031 283.121094 138.945312 C 283.121094 133.804688 282.691406 128.703125 281.832031 123.636719 C 280.972656 118.574219 279.691406 113.613281 277.996094 108.765625 C 280.203125 108.761719 282.363281 109.070312 284.476562 109.691406 L 285.09375 109.691406 C 288.609375 110.796875 291.675781 112.648438 294.289062 115.246094 C 295.375 116.324219 296.339844 117.503906 297.1875 118.773438 C 298.035156 120.046875 298.753906 121.390625 299.335938 122.804688 C 299.917969 124.21875 300.355469 125.675781 300.648438 127.175781 C 300.941406 128.679688 301.085938 130.191406 301.078125 131.722656 Z M 191.964844 25.203125 C 194.527344 25.207031 197.082031 25.320312 199.632812 25.539062 C 202.183594 25.761719 204.71875 26.09375 207.242188 26.53125 C 209.761719 26.972656 212.261719 27.519531 214.738281 28.171875 C 217.210938 28.824219 219.65625 29.578125 222.066406 30.441406 C 224.476562 31.300781 226.847656 32.265625 229.175781 33.328125 C 231.503906 34.394531 233.78125 35.554688 236.011719 36.8125 C 238.238281 38.070312 240.410156 39.421875 242.523438 40.867188 C 244.640625 42.3125 246.6875 43.84375 248.671875 45.464844 C 250.652344 47.082031 252.5625 48.785156 254.398438 50.566406 C 256.238281 52.347656 257.996094 54.207031 259.675781 56.140625 C 261.351562 58.070312 262.945312 60.074219 264.453125 62.140625 C 265.960938 64.210938 267.378906 66.339844 268.703125 68.53125 C 270.027344 70.71875 271.257812 72.964844 272.390625 75.257812 C 273.527344 77.554688 274.558594 79.894531 275.492188 82.277344 C 276.429688 84.660156 277.257812 87.078125 277.984375 89.535156 C 278.714844 91.988281 279.335938 94.46875 279.847656 96.976562 C 279.230469 96.914062 278.613281 96.914062 277.996094 96.976562 C 276.242188 96.976562 274.492188 97.097656 272.753906 97.347656 C 271.800781 95.503906 270.789062 93.695312 269.714844 91.921875 C 268.640625 90.148438 267.503906 88.414062 266.3125 86.71875 C 265.117188 85.023438 263.871094 83.371094 262.5625 81.761719 C 261.257812 80.148438 259.898438 78.585938 258.484375 77.070312 C 257.070312 75.550781 255.605469 74.085938 254.09375 72.667969 C 252.578125 71.25 251.019531 69.886719 249.410156 68.578125 C 247.804688 67.265625 246.152344 66.011719 244.460938 64.816406 C 242.769531 63.617188 241.035156 62.480469 239.265625 61.402344 C 237.496094 60.320312 235.691406 59.304688 233.847656 58.347656 C 232.007812 57.394531 230.136719 56.503906 228.238281 55.675781 C 226.335938 54.847656 224.40625 54.085938 222.453125 53.390625 C 220.5 52.695312 218.527344 52.066406 216.53125 51.507812 C 214.535156 50.949219 212.519531 50.457031 210.492188 50.035156 C 208.460938 49.609375 206.417969 49.257812 204.363281 48.976562 C 202.308594 48.691406 200.25 48.480469 198.179688 48.339844 C 196.109375 48.199219 194.039062 48.125 191.964844 48.125 C 189.894531 48.125 187.820312 48.199219 185.753906 48.339844 C 183.683594 48.480469 181.621094 48.691406 179.570312 48.976562 C 177.515625 49.257812 175.472656 49.609375 173.441406 50.035156 C 171.414062 50.457031 169.398438 50.949219 167.402344 51.507812 C 165.40625 52.066406 163.429688 52.695312 161.476562 53.390625 C 159.523438 54.085938 157.597656 54.847656 155.695312 55.675781 C 153.792969 56.503906 151.921875 57.394531 150.082031 58.347656 C 148.242188 59.304688 146.4375 60.320312 144.667969 61.402344 C 142.894531 62.480469 141.164062 63.617188 139.472656 64.816406 C 137.777344 66.011719 136.128906 67.265625 134.523438 68.578125 C 132.914062 69.886719 131.355469 71.25 129.839844 72.667969 C 128.328125 74.085938 126.863281 75.550781 125.449219 77.070312 C 124.035156 78.585938 122.675781 80.148438 121.371094 81.761719 C 120.0625 83.371094 118.8125 85.023438 117.621094 86.71875 C 116.425781 88.414062 115.292969 90.148438 114.21875 91.921875 C 113.144531 93.695312 112.132812 95.503906 111.179688 97.347656 C 109.761719 97.253906 108.339844 97.253906 106.921875 97.347656 L 104.082031 97.347656 C 104.578125 94.828125 105.179688 92.332031 105.890625 89.863281 C 106.601562 87.394531 107.417969 84.960938 108.335938 82.5625 C 109.257812 80.164062 110.277344 77.808594 111.402344 75.496094 C 112.523438 73.1875 113.746094 70.929688 115.0625 68.722656 C 116.382812 66.519531 117.792969 64.375 119.292969 62.289062 C 120.796875 60.207031 122.386719 58.191406 124.0625 56.246094 C 125.738281 54.296875 127.496094 52.425781 129.335938 50.632812 C 131.171875 48.835938 133.085938 47.125 135.070312 45.496094 C 137.054688 43.863281 139.109375 42.324219 141.226562 40.871094 C 143.347656 39.417969 145.523438 38.058594 147.757812 36.792969 C 149.996094 35.527344 152.28125 34.359375 154.617188 33.292969 C 156.953125 32.222656 159.332031 31.257812 161.753906 30.394531 C 164.171875 29.53125 166.625 28.773438 169.109375 28.121094 C 171.59375 27.472656 174.101562 26.929688 176.636719 26.492188 C 179.167969 26.058594 181.710938 25.730469 184.273438 25.515625 C 186.832031 25.300781 189.398438 25.195312 191.964844 25.203125 Z M 83.964844 146.101562 L 83.964844 131.722656 C 83.964844 130.601562 84.050781 129.484375 84.214844 128.375 C 84.382812 127.265625 84.625 126.175781 84.949219 125.101562 C 85.277344 124.027344 85.675781 122.980469 86.152344 121.964844 C 86.628906 120.949219 87.179688 119.976562 87.796875 119.039062 C 88.417969 118.105469 89.101562 117.21875 89.847656 116.382812 C 90.597656 115.546875 91.402344 114.769531 92.261719 114.050781 C 93.125 113.332031 94.035156 112.679688 94.992188 112.09375 C 95.949219 111.507812 96.941406 110.996094 97.972656 110.554688 L 99.453125 110.0625 C 101.609375 109.296875 103.832031 108.882812 106.121094 108.828125 C 104.425781 113.664062 103.148438 118.613281 102.285156 123.667969 C 101.425781 128.722656 100.996094 133.816406 100.996094 138.945312 C 100.996094 144.070312 101.425781 149.164062 102.285156 154.21875 C 103.148438 159.273438 104.425781 164.222656 106.121094 169.0625 C 104.222656 169.058594 102.371094 168.769531 100.566406 168.195312 C 99.375 167.855469 98.222656 167.417969 97.101562 166.886719 C 95.980469 166.359375 94.914062 165.742188 93.894531 165.039062 C 92.875 164.335938 91.917969 163.554688 91.023438 162.699219 C 90.128906 161.839844 89.3125 160.917969 88.566406 159.925781 C 87.824219 158.9375 87.164062 157.894531 86.589844 156.796875 C 86.015625 155.699219 85.53125 154.566406 85.140625 153.390625 C 84.75 152.214844 84.453125 151.015625 84.257812 149.792969 C 84.058594 148.570312 83.960938 147.339844 83.964844 146.101562 Z M 105.566406 188.128906 L 105.566406 180.972656 L 107.230469 180.972656 C 108.671875 181.0625 110.109375 181.0625 111.550781 180.972656 C 112.835938 183.496094 114.257812 185.945312 115.808594 188.316406 Z M 130.558594 188.128906 L 157.835938 188.128906 C 157.996094 187.433594 158.214844 186.753906 158.488281 186.089844 C 158.761719 185.429688 159.085938 184.792969 159.464844 184.183594 C 159.839844 183.578125 160.265625 183.003906 160.738281 182.46875 C 161.214844 181.929688 161.726562 181.433594 162.28125 180.980469 C 162.835938 180.53125 163.425781 180.125 164.046875 179.769531 C 164.667969 179.417969 165.316406 179.113281 165.988281 178.867188 C 166.660156 178.621094 167.347656 178.429688 168.050781 178.296875 C 168.753906 178.160156 169.464844 178.085938 170.179688 178.070312 L 182.523438 178.070312 C 183.371094 178.074219 184.210938 178.160156 185.042969 178.332031 C 185.875 178.5 186.683594 178.746094 187.464844 179.074219 C 188.246094 179.402344 188.992188 179.804688 189.695312 180.277344 C 190.398438 180.75 191.050781 181.289062 191.648438 181.890625 C 192.246094 182.488281 192.78125 183.144531 193.25 183.851562 C 193.722656 184.554688 194.117188 185.300781 194.441406 186.085938 C 194.765625 186.871094 195.011719 187.679688 195.175781 188.511719 C 195.339844 189.34375 195.421875 190.183594 195.421875 191.03125 L 195.421875 194.425781 C 195.421875 195.273438 195.339844 196.113281 195.175781 196.945312 C 195.011719 197.777344 194.765625 198.585938 194.441406 199.371094 C 194.117188 200.15625 193.722656 200.902344 193.25 201.605469 C 192.78125 202.3125 192.246094 202.96875 191.648438 203.570312 C 191.050781 204.167969 190.398438 204.707031 189.695312 205.179688 C 188.992188 205.652344 188.246094 206.054688 187.464844 206.382812 C 186.683594 206.710938 185.875 206.957031 185.042969 207.125 C 184.210938 207.296875 183.371094 207.382812 182.523438 207.386719 L 170.179688 207.386719 C 168.964844 207.382812 167.777344 207.210938 166.609375 206.871094 C 165.445312 206.53125 164.347656 206.035156 163.320312 205.386719 C 162.292969 204.738281 161.378906 203.957031 160.570312 203.050781 C 159.765625 202.140625 159.101562 201.136719 158.578125 200.042969 L 141.976562 200.042969 C 137.632812 196.5 133.722656 192.53125 130.25 188.128906 Z M 130.558594 188.128906 "/></g><g clip-rule="nonzero" clip-path="url(#866facc8f6)"><path style=" stroke:none;fill-rule:nonzero;fill:#3761ea;fill-opacity:1;" d="M 90.074219 267.125 L 52.117188 343.40625 C 51.757812 344.210938 51.578125 345.054688 51.578125 345.9375 C 51.578125 346.820312 51.757812 347.664062 52.117188 348.46875 C 52.488281 349.273438 53.007812 349.964844 53.671875 350.546875 C 54.339844 351.125 55.097656 351.546875 55.945312 351.800781 C 77.484375 358.089844 99.351562 362.863281 121.554688 366.117188 C 143.753906 369.375 166.074219 371.082031 188.511719 371.242188 L 191.964844 371.242188 C 215.003906 371.242188 237.925781 369.613281 260.730469 366.359375 C 283.535156 363.101562 305.996094 358.25 328.109375 351.800781 C 328.957031 351.546875 329.714844 351.125 330.382812 350.546875 C 331.050781 349.964844 331.566406 349.273438 331.9375 348.46875 C 332.300781 347.664062 332.480469 346.820312 332.480469 345.9375 C 332.480469 345.054688 332.300781 344.210938 331.9375 343.40625 L 293.859375 267.125 C 283.492188 246.265625 256.828125 230.097656 224.613281 223.925781 C 229.769531 221.941406 234.707031 219.503906 239.417969 216.617188 C 244.128906 213.730469 248.542969 210.441406 252.65625 206.75 C 256.769531 203.0625 260.511719 199.027344 263.890625 194.65625 C 267.265625 190.28125 270.222656 185.636719 272.753906 180.726562 C 274.488281 181.023438 276.238281 181.167969 277.996094 181.15625 C 279.144531 181.15625 280.285156 181.101562 281.425781 180.988281 C 282.5625 180.875 283.695312 180.710938 284.816406 180.484375 C 285.941406 180.261719 287.050781 179.984375 288.144531 179.652344 C 289.242188 179.320312 290.316406 178.9375 291.375 178.5 C 292.433594 178.0625 293.464844 177.574219 294.476562 177.035156 C 295.484375 176.496094 296.46875 175.90625 297.417969 175.273438 C 298.371094 174.636719 299.289062 173.957031 300.175781 173.230469 C 301.0625 172.503906 301.910156 171.738281 302.71875 170.929688 C 303.53125 170.121094 304.296875 169.273438 305.027344 168.390625 C 305.753906 167.507812 306.433594 166.589844 307.070312 165.636719 C 307.707031 164.6875 308.296875 163.707031 308.839844 162.695312 C 309.378906 161.6875 309.871094 160.65625 310.308594 159.597656 C 310.75 158.542969 311.136719 157.464844 311.46875 156.371094 C 311.804688 155.273438 312.082031 154.167969 312.308594 153.042969 C 312.53125 151.921875 312.703125 150.789062 312.816406 149.652344 C 312.929688 148.511719 312.988281 147.371094 312.992188 146.226562 L 312.992188 131.722656 C 312.992188 129.429688 312.765625 127.160156 312.316406 124.910156 C 311.871094 122.660156 311.207031 120.476562 310.328125 118.359375 C 309.449219 116.242188 308.371094 114.230469 307.09375 112.324219 C 305.820312 110.417969 304.371094 108.65625 302.746094 107.035156 C 299.75 103.941406 296.292969 101.492188 292.378906 99.691406 C 292.15625 98.199219 291.902344 96.710938 291.613281 95.226562 C 291.328125 93.746094 291.007812 92.269531 290.652344 90.800781 C 290.300781 89.332031 289.914062 87.871094 289.496094 86.421875 C 289.078125 84.96875 288.628906 83.53125 288.144531 82.097656 C 287.664062 80.667969 287.148438 79.246094 286.601562 77.839844 C 286.058594 76.429688 285.480469 75.035156 284.871094 73.652344 C 284.261719 72.273438 283.625 70.902344 282.957031 69.550781 C 282.285156 68.195312 281.585938 66.855469 280.859375 65.535156 C 280.128906 64.210938 279.371094 62.90625 278.585938 61.617188 C 277.796875 60.328125 276.980469 59.058594 276.136719 57.804688 C 275.292969 56.550781 274.421875 55.320312 273.523438 54.105469 C 272.625 52.890625 271.699219 51.699219 270.75 50.527344 C 269.796875 49.355469 268.820312 48.203125 267.816406 47.074219 C 266.8125 45.945312 265.785156 44.839844 264.730469 43.757812 C 263.679688 42.675781 262.601562 41.613281 261.503906 40.578125 C 260.402344 39.546875 259.28125 38.535156 258.136719 37.550781 C 256.992188 36.566406 255.824219 35.605469 254.636719 34.671875 C 253.449219 33.742188 252.242188 32.835938 251.011719 31.957031 C 249.785156 31.078125 248.539062 30.226562 247.273438 29.402344 C 246.007812 28.578125 244.722656 27.785156 243.421875 27.019531 C 242.121094 26.25 240.800781 25.515625 239.46875 24.808594 C 238.132812 24.101562 236.785156 23.421875 235.417969 22.777344 C 234.054688 22.128906 232.675781 21.511719 231.285156 20.925781 C 229.890625 20.339844 228.488281 19.785156 227.070312 19.261719 C 225.65625 18.738281 224.226562 18.25 222.789062 17.789062 C 221.347656 17.332031 219.902344 16.902344 218.445312 16.507812 C 216.984375 16.113281 215.519531 15.75 214.046875 15.421875 C 212.570312 15.09375 211.089844 14.796875 209.605469 14.53125 C 208.117188 14.269531 206.625 14.039062 205.128906 13.84375 C 203.628906 13.644531 202.128906 13.480469 200.625 13.351562 C 199.121094 13.222656 197.613281 13.125 196.105469 13.0625 C 194.59375 13 193.085938 12.972656 191.574219 12.976562 C 190.066406 12.980469 188.554688 13.019531 187.046875 13.089844 C 185.539062 13.164062 184.03125 13.269531 182.527344 13.40625 C 181.027344 13.546875 179.527344 13.71875 178.03125 13.925781 C 176.535156 14.132812 175.042969 14.371094 173.558594 14.644531 C 172.070312 14.914062 170.59375 15.222656 169.121094 15.558594 C 167.648438 15.898438 166.1875 16.269531 164.730469 16.671875 C 163.273438 17.078125 161.828125 17.511719 160.394531 17.980469 C 158.957031 18.449219 157.535156 18.949219 156.121094 19.480469 C 154.707031 20.011719 153.304688 20.574219 151.917969 21.171875 C 150.527344 21.765625 149.152344 22.390625 147.792969 23.042969 C 146.433594 23.699219 145.085938 24.386719 143.757812 25.101562 C 142.429688 25.816406 141.113281 26.5625 139.816406 27.335938 C 138.519531 28.109375 137.242188 28.914062 135.980469 29.742188 C 134.71875 30.574219 133.476562 31.433594 132.253906 32.320312 C 131.03125 33.207031 129.832031 34.121094 128.648438 35.058594 C 127.46875 36 126.304688 36.964844 125.167969 37.957031 C 124.027344 38.949219 122.914062 39.96875 121.820312 41.007812 C 120.726562 42.050781 119.65625 43.117188 118.609375 44.207031 C 117.5625 45.292969 116.542969 46.40625 115.546875 47.542969 C 114.550781 48.675781 113.578125 49.832031 112.636719 51.011719 C 111.691406 52.191406 110.773438 53.390625 109.882812 54.609375 C 108.988281 55.828125 108.125 57.066406 107.289062 58.324219 C 106.453125 59.582031 105.644531 60.855469 104.867188 62.148438 C 104.089844 63.445312 103.339844 64.753906 102.617188 66.082031 C 101.898438 67.410156 101.207031 68.75 100.546875 70.109375 C 99.882812 71.46875 99.253906 72.839844 98.65625 74.226562 C 98.054688 75.613281 97.484375 77.011719 96.949219 78.421875 C 96.410156 79.832031 95.90625 81.257812 95.433594 82.691406 C 94.957031 84.125 94.515625 85.566406 94.109375 87.019531 C 93.699219 88.476562 93.320312 89.9375 92.976562 91.40625 C 92.632812 92.878906 92.320312 94.355469 92.042969 95.839844 C 91.765625 97.324219 91.519531 98.8125 91.308594 100.308594 C 89.867188 101.03125 88.484375 101.847656 87.160156 102.757812 C 85.832031 103.671875 84.578125 104.671875 83.390625 105.757812 C 82.199219 106.84375 81.09375 108.007812 80.066406 109.246094 C 79.039062 110.484375 78.105469 111.789062 77.257812 113.160156 C 76.410156 114.53125 75.664062 115.949219 75.015625 117.425781 C 74.367188 118.898438 73.820312 120.40625 73.382812 121.957031 C 72.941406 123.503906 72.609375 125.074219 72.386719 126.671875 C 72.164062 128.265625 72.054688 129.867188 72.054688 131.476562 L 72.054688 145.855469 C 72.039062 147.566406 72.152344 149.269531 72.390625 150.964844 C 72.628906 152.660156 72.988281 154.332031 73.472656 155.972656 C 73.953125 157.613281 74.554688 159.214844 75.269531 160.769531 C 75.988281 162.320312 76.8125 163.816406 77.75 165.25 C 78.6875 166.683594 79.722656 168.039062 80.859375 169.320312 C 81.992188 170.601562 83.214844 171.792969 84.527344 172.894531 C 85.835938 173.996094 87.21875 174.996094 88.675781 175.894531 C 90.132812 176.792969 91.648438 177.582031 93.222656 178.257812 L 93.222656 194.117188 C 93.222656 194.523438 93.261719 194.921875 93.339844 195.320312 C 93.417969 195.71875 93.535156 196.105469 93.691406 196.480469 C 93.847656 196.851562 94.035156 197.210938 94.261719 197.546875 C 94.488281 197.882812 94.742188 198.195312 95.027344 198.480469 C 95.316406 198.769531 95.628906 199.023438 95.964844 199.25 C 96.300781 199.472656 96.65625 199.664062 97.03125 199.820312 C 97.40625 199.972656 97.792969 200.089844 98.1875 200.171875 C 98.585938 200.25 98.988281 200.289062 99.394531 200.289062 L 124.695312 200.289062 C 129.484375 205.53125 134.808594 210.160156 140.667969 214.171875 C 146.523438 218.183594 152.761719 221.476562 159.378906 224.050781 C 127.042969 230.160156 100.441406 246.265625 90.074219 267.125 Z M 301.078125 131.722656 L 301.078125 146.101562 C 301.078125 146.855469 301.039062 147.609375 300.960938 148.359375 C 300.886719 149.113281 300.773438 149.855469 300.625 150.597656 C 300.476562 151.335938 300.292969 152.066406 300.070312 152.789062 C 299.851562 153.511719 299.59375 154.21875 299.304688 154.917969 C 299.015625 155.613281 298.691406 156.292969 298.335938 156.957031 C 297.976562 157.625 297.589844 158.269531 297.167969 158.894531 C 296.746094 159.523438 296.296875 160.128906 295.816406 160.710938 C 295.339844 161.292969 294.832031 161.851562 294.296875 162.382812 C 293.761719 162.917969 293.203125 163.421875 292.621094 163.898438 C 292.035156 164.378906 291.429688 164.828125 290.800781 165.246094 C 290.175781 165.664062 289.527344 166.050781 288.863281 166.40625 C 288.195312 166.761719 287.515625 167.082031 286.816406 167.371094 C 286.121094 167.660156 285.410156 167.914062 284.6875 168.132812 C 283.964844 168.351562 283.234375 168.535156 282.492188 168.679688 C 281.753906 168.828125 281.007812 168.9375 280.257812 169.011719 C 279.503906 169.085938 278.753906 169.121094 277.996094 169.121094 C 279.691406 164.273438 280.972656 159.3125 281.832031 154.25 C 282.691406 149.183594 283.121094 144.082031 283.121094 138.945312 C 283.121094 133.804688 282.691406 128.703125 281.832031 123.636719 C 280.972656 118.574219 279.691406 113.613281 277.996094 108.765625 C 280.203125 108.761719 282.363281 109.070312 284.476562 109.691406 L 285.09375 109.691406 C 288.609375 110.796875 291.675781 112.648438 294.289062 115.246094 C 295.375 116.324219 296.339844 117.503906 297.1875 118.773438 C 298.035156 120.046875 298.753906 121.390625 299.335938 122.804688 C 299.917969 124.21875 300.355469 125.675781 300.648438 127.175781 C 300.941406 128.679688 301.085938 130.191406 301.078125 131.722656 Z M 191.964844 25.203125 C 194.527344 25.207031 197.082031 25.320312 199.632812 25.539062 C 202.183594 25.761719 204.71875 26.09375 207.242188 26.53125 C 209.761719 26.972656 212.261719 27.519531 214.738281 28.171875 C 217.210938 28.824219 219.65625 29.578125 222.066406 30.441406 C 224.476562 31.304688 226.847656 32.265625 229.175781 33.328125 C 231.503906 34.394531 233.78125 35.554688 236.011719 36.8125 C 238.238281 38.070312 240.410156 39.421875 242.523438 40.867188 C 244.640625 42.3125 246.6875 43.84375 248.671875 45.464844 C 250.652344 47.082031 252.5625 48.785156 254.398438 50.566406 C 256.238281 52.347656 257.996094 54.207031 259.675781 56.140625 C 261.351562 58.070312 262.945312 60.074219 264.453125 62.140625 C 265.960938 64.210938 267.378906 66.339844 268.703125 68.53125 C 270.027344 70.71875 271.257812 72.964844 272.390625 75.257812 C 273.527344 77.554688 274.558594 79.894531 275.492188 82.277344 C 276.429688 84.660156 277.257812 87.078125 277.984375 89.535156 C 278.714844 91.988281 279.335938 94.46875 279.847656 96.976562 C 279.230469 96.914062 278.613281 96.914062 277.996094 96.976562 C 276.242188 96.976562 274.492188 97.097656 272.753906 97.347656 C 271.800781 95.503906 270.789062 93.695312 269.714844 91.921875 C 268.640625 90.148438 267.503906 88.414062 266.3125 86.71875 C 265.117188 85.023438 263.871094 83.371094 262.5625 81.761719 C 261.257812 80.148438 259.898438 78.585938 258.484375 77.070312 C 257.070312 75.550781 255.605469 74.085938 254.09375 72.667969 C 252.578125 71.25 251.019531 69.886719 249.410156 68.578125 C 247.804688 67.265625 246.152344 66.011719 244.460938 64.816406 C 242.769531 63.617188 241.035156 62.480469 239.265625 61.402344 C 237.496094 60.320312 235.691406 59.304688 233.847656 58.347656 C 232.007812 57.394531 230.136719 56.503906 228.238281 55.675781 C 226.335938 54.847656 224.40625 54.085938 222.453125 53.390625 C 220.5 52.695312 218.527344 52.066406 216.53125 51.507812 C 214.535156 50.949219 212.519531 50.457031 210.492188 50.035156 C 208.460938 49.613281 206.417969 49.257812 204.363281 48.976562 C 202.308594 48.691406 200.25 48.480469 198.179688 48.339844 C 196.109375 48.199219 194.039062 48.125 191.964844 48.125 C 189.894531 48.125 187.820312 48.199219 185.753906 48.339844 C 183.683594 48.480469 181.621094 48.691406 179.570312 48.976562 C 177.515625 49.257812 175.472656 49.613281 173.441406 50.035156 C 171.414062 50.457031 169.398438 50.949219 167.402344 51.507812 C 165.40625 52.066406 163.429688 52.695312 161.476562 53.390625 C 159.523438 54.085938 157.597656 54.847656 155.695312 55.675781 C 153.792969 56.503906 151.921875 57.394531 150.082031 58.347656 C 148.242188 59.304688 146.4375 60.320312 144.667969 61.402344 C 142.894531 62.480469 141.164062 63.617188 139.472656 64.816406 C 137.777344 66.011719 136.128906 67.265625 134.523438 68.578125 C 132.914062 69.886719 131.355469 71.25 129.839844 72.667969 C 128.328125 74.085938 126.863281 75.550781 125.449219 77.070312 C 124.035156 78.585938 122.675781 80.148438 121.371094 81.761719 C 120.0625 83.371094 118.8125 85.023438 117.621094 86.71875 C 116.425781 88.414062 115.292969 90.148438 114.21875 91.921875 C 113.144531 93.695312 112.132812 95.503906 111.179688 97.347656 C 109.761719 97.253906 108.339844 97.253906 106.921875 97.347656 L 104.082031 97.347656 C 104.578125 94.828125 105.179688 92.332031 105.890625 89.863281 C 106.601562 87.394531 107.417969 84.960938 108.335938 82.5625 C 109.257812 80.164062 110.277344 77.808594 111.402344 75.496094 C 112.523438 73.1875 113.746094 70.929688 115.0625 68.722656 C 116.382812 66.519531 117.792969 64.375 119.292969 62.289062 C 120.796875 60.207031 122.386719 58.191406 124.0625 56.246094 C 125.738281 54.296875 127.496094 52.425781 129.335938 50.632812 C 131.171875 48.835938 133.085938 47.125 135.070312 45.496094 C 137.054688 43.863281 139.109375 42.324219 141.226562 40.871094 C 143.347656 39.417969 145.523438 38.058594 147.757812 36.792969 C 149.996094 35.527344 152.28125 34.359375 154.617188 33.292969 C 156.953125 32.222656 159.332031 31.257812 161.753906 30.394531 C 164.171875 29.53125 166.625 28.773438 169.109375 28.125 C 171.59375 27.472656 174.101562 26.929688 176.636719 26.492188 C 179.167969 26.058594 181.710938 25.730469 184.273438 25.515625 C 186.832031 25.300781 189.398438 25.195312 191.964844 25.203125 Z M 83.964844 146.101562 L 83.964844 131.722656 C 83.964844 130.601562 84.050781 129.484375 84.214844 128.375 C 84.382812 127.265625 84.625 126.175781 84.949219 125.101562 C 85.277344 124.027344 85.675781 122.980469 86.152344 121.964844 C 86.628906 120.949219 87.179688 119.976562 87.796875 119.039062 C 88.417969 118.105469 89.101562 117.21875 89.847656 116.382812 C 90.597656 115.546875 91.402344 114.769531 92.261719 114.050781 C 93.125 113.332031 94.035156 112.679688 94.992188 112.09375 C 95.949219 111.507812 96.941406 110.996094 97.972656 110.554688 L 99.453125 110.0625 C 101.609375 109.296875 103.832031 108.882812 106.121094 108.828125 C 104.425781 113.664062 103.148438 118.613281 102.285156 123.667969 C 101.425781 128.722656 100.996094 133.816406 100.996094 138.945312 C 100.996094 144.070312 101.425781 149.164062 102.285156 154.21875 C 103.148438 159.273438 104.425781 164.222656 106.121094 169.0625 C 104.222656 169.058594 102.371094 168.769531 100.566406 168.195312 C 99.375 167.855469 98.222656 167.417969 97.101562 166.886719 C 95.980469 166.359375 94.914062 165.742188 93.894531 165.039062 C 92.875 164.335938 91.917969 163.554688 91.023438 162.699219 C 90.128906 161.839844 89.3125 160.917969 88.566406 159.925781 C 87.824219 158.9375 87.164062 157.894531 86.589844 156.796875 C 86.015625 155.699219 85.53125 154.566406 85.140625 153.390625 C 84.75 152.214844 84.453125 151.015625 84.257812 149.792969 C 84.058594 148.570312 83.960938 147.339844 83.964844 146.101562 Z M 105.566406 188.128906 L 105.566406 180.972656 L 107.230469 180.972656 C 108.671875 181.0625 110.109375 181.0625 111.550781 180.972656 C 112.835938 183.496094 114.257812 185.945312 115.808594 188.316406 Z M 130.558594 188.128906 L 157.835938 188.128906 C 157.996094 187.433594 158.214844 186.753906 158.488281 186.089844 C 158.761719 185.429688 159.085938 184.792969 159.464844 184.183594 C 159.839844 183.578125 160.265625 183.003906 160.738281 182.46875 C 161.214844 181.929688 161.726562 181.433594 162.28125 180.980469 C 162.835938 180.53125 163.425781 180.125 164.046875 179.769531 C 164.667969 179.417969 165.316406 179.113281 165.988281 178.867188 C 166.660156 178.621094 167.347656 178.429688 168.050781 178.296875 C 168.753906 178.160156 169.464844 178.085938 170.179688 178.070312 L 182.523438 178.070312 C 183.371094 178.074219 184.210938 178.160156 185.042969 178.332031 C 185.875 178.5 186.683594 178.746094 187.464844 179.074219 C 188.246094 179.402344 188.992188 179.804688 189.695312 180.277344 C 190.398438 180.75 191.050781 181.289062 191.648438 181.890625 C 192.246094 182.488281 192.78125 183.144531 193.25 183.851562 C 193.722656 184.554688 194.117188 185.300781 194.441406 186.085938 C 194.765625 186.871094 195.011719 187.679688 195.175781 188.511719 C 195.339844 189.34375 195.421875 190.183594 195.421875 191.03125 L 195.421875 194.425781 C 195.421875 195.273438 195.339844 196.113281 195.175781 196.945312 C 195.011719 197.777344 194.765625 198.585938 194.441406 199.371094 C 194.117188 200.15625 193.722656 200.902344 193.25 201.605469 C 192.78125 202.3125 192.246094 202.96875 191.648438 203.570312 C 191.050781 204.167969 190.398438 204.707031 189.695312 205.179688 C 188.992188 205.652344 188.246094 206.054688 187.464844 206.382812 C 186.683594 206.710938 185.875 206.957031 185.042969 207.125 C 184.210938 207.296875 183.371094 207.382812 182.523438 207.386719 L 170.179688 207.386719 C 168.964844 207.382812 167.777344 207.210938 166.609375 206.871094 C 165.445312 206.53125 164.347656 206.035156 163.320312 205.386719 C 162.292969 204.738281 161.378906 203.957031 160.570312 203.050781 C 159.765625 202.140625 159.101562 201.136719 158.578125 200.042969 L 141.976562 200.042969 C 137.632812 196.5 133.722656 192.53125 130.25 188.128906 Z M 130.558594 188.128906 "/></g></g></svg>