<svg width="24" height="24" viewBox="0 0 24 24" fill="none" xmlns="http://www.w3.org/2000/svg">
<path fill-rule="evenodd" clip-rule="evenodd" d="M19.0064 9.50363C19.0064 9.15519 18.589 9.07725 18.304 9.2777C17.6534 9.73522 16.8604 10.0038 16.0046 10.0038C15.1451 10.0038 14.3488 9.73283 13.6966 9.27157C12.8219 8.65295 11.8785 8.00299 10.8072 8.00299H5.50064C4.67129 8.00299 4 8.67328 4 9.50363V18.5005C4 19.3308 4.67129 20.0011 5.50064 20.0011H7.62948C8.6327 20.0011 9.56959 20.5024 10.1263 21.337L11.087 22.7773C11.1327 22.8458 11.1946 22.902 11.2672 22.9408C11.3398 22.9797 11.4209 23 11.5032 23C11.5855 23 11.6666 22.9797 11.7392 22.9408C11.8118 22.902 11.8737 22.8458 11.9194 22.7773L12.8811 21.3363C13.4378 20.5021 14.3745 20.0011 15.3774 20.0011H17.5058C18.3351 20.0011 19.0064 19.3308 19.0064 18.5015V9.50363ZM9.00214 14.5058C9.00214 14.782 8.77818 15.006 8.50192 15.006C8.22566 15.006 8.00171 14.782 8.00171 14.5058C8.00171 14.2295 8.22566 14.0056 8.50192 14.0056C8.77818 14.0056 9.00214 14.2295 9.00214 14.5058ZM12.0034 14.5058C12.0034 14.782 11.7795 15.006 11.5032 15.006C11.2269 15.006 11.003 14.782 11.003 14.5058C11.003 14.2295 11.2269 14.0056 11.5032 14.0056C11.7795 14.0056 12.0034 14.2295 12.0034 14.5058Z" fill="#37E3EA"/>
<path fill-rule="evenodd" clip-rule="evenodd" d="M16.0056 9.00342C18.2157 9.00342 20.0073 7.21179 20.0073 5.00171C20.0073 2.79163 18.2157 1 16.0056 1C13.7955 1 12.0039 2.79163 12.0039 5.00171C12.0039 7.21179 13.7955 9.00342 16.0056 9.00342ZM14.0048 4.65714C14.0048 4.09831 14.5467 3.6678 15.1824 3.6678C15.5101 3.6678 15.7987 3.80688 16.0056 3.98695C16.2126 3.80688 16.5009 3.6678 16.8288 3.6678C17.4645 3.6678 18.0065 4.09831 18.0065 4.65714C18.0065 5.04274 17.8071 5.36728 17.5425 5.63614C17.2791 5.90417 16.9393 6.12915 16.6319 6.3175L16.1017 6.64245C16.0733 6.65981 16.0398 6.66908 16.0056 6.66908C15.9714 6.66908 15.9379 6.65981 15.9096 6.64245L15.3793 6.3175C15.0722 6.12915 14.7322 5.90417 14.4685 5.63614C14.2042 5.36728 14.0048 5.04274 14.0048 4.65714Z" fill="#3761EA"/>
</svg>
