<svg xmlns="http://www.w3.org/2000/svg" xmlns:xlink="http://www.w3.org/1999/xlink" width="261" zoomAndPan="magnify" viewBox="0 0 195.75 316.499991" height="422" preserveAspectRatio="xMidYMid meet" version="1.2"><defs><clipPath id="339c84b668"><path d="M 0.03125 145 L 195.472656 145 L 195.472656 268 L 0.03125 268 Z M 0.03125 145 "/></clipPath><clipPath id="7548c5c00e"><path d="M 51 222 L 144 222 L 144 314.503906 L 51 314.503906 Z M 51 222 "/></clipPath><clipPath id="eeb08916d5"><path d="M 54.125 225.003906 L 141.734375 225.003906 L 141.734375 312.613281 L 54.125 312.613281 Z M 54.125 225.003906 "/></clipPath><clipPath id="85fda53117"><path d="M 51.113281 221.992188 L 144.714844 221.992188 L 144.714844 315.59375 L 51.113281 315.59375 Z M 51.113281 221.992188 "/></clipPath></defs><g id="e62f85a832"><g clip-rule="nonzero" clip-path="url(#339c84b668)"><path style=" stroke:none;fill-rule:nonzero;fill:#37e3ea;fill-opacity:1;" d="M 195.34375 249.582031 C 195.34375 257.980469 181.027344 264.0625 160.136719 267.914062 C 159.851562 233.734375 131.9375 206.023438 97.695312 206.023438 C 63.476562 206.023438 35.5625 233.734375 35.277344 267.914062 C 14.386719 264.0625 0.0742188 257.980469 0.0742188 249.582031 C 0.0742188 204.796875 15.453125 165.863281 46.375 145.960938 C 47.832031 145.015625 49.714844 145.160156 51.128906 146.183594 C 64.191406 155.75 80.289062 161.421875 97.71875 161.421875 C 115.125 161.421875 131.222656 155.75 144.289062 146.203125 C 145.679688 145.160156 147.585938 145.015625 149.039062 145.960938 C 179.960938 165.863281 195.34375 204.796875 195.34375 249.582031 Z M 195.34375 249.582031 "/></g><path style=" stroke:none;fill-rule:nonzero;fill:#37e3ea;fill-opacity:1;" d="M 138.945312 41.226562 C 140.292969 42.578125 141.574219 43.988281 142.785156 45.464844 C 144 46.941406 145.132812 48.476562 146.195312 50.0625 C 147.257812 51.652344 148.238281 53.289062 149.136719 54.972656 C 150.039062 56.65625 150.855469 58.378906 151.585938 60.144531 C 152.316406 61.910156 152.957031 63.707031 153.511719 65.535156 C 154.066406 67.359375 154.53125 69.210938 154.902344 71.085938 C 155.277344 72.957031 155.554688 74.84375 155.742188 76.746094 C 155.929688 78.644531 156.023438 80.550781 156.023438 82.460938 C 156.023438 84.371094 155.929688 86.277344 155.742188 88.175781 C 155.554688 90.078125 155.277344 91.964844 154.902344 93.839844 C 154.53125 95.710938 154.066406 97.5625 153.511719 99.390625 C 152.957031 101.21875 152.316406 103.011719 151.585938 104.777344 C 150.855469 106.542969 150.039062 108.265625 149.136719 109.953125 C 148.238281 111.636719 147.257812 113.273438 146.195312 114.859375 C 145.132812 116.449219 144 117.980469 142.785156 119.457031 C 141.574219 120.933594 140.292969 122.347656 138.945312 123.695312 C 137.59375 125.046875 136.179688 126.328125 134.703125 127.539062 C 133.226562 128.753906 131.695312 129.886719 130.105469 130.949219 C 128.519531 132.011719 126.882812 132.992188 125.199219 133.890625 C 123.511719 134.792969 121.789062 135.609375 120.023438 136.339844 C 118.261719 137.070312 116.464844 137.710938 114.636719 138.265625 C 112.808594 138.820312 110.957031 139.285156 109.085938 139.65625 C 107.210938 140.03125 105.324219 140.308594 103.421875 140.496094 C 101.523438 140.683594 99.617188 140.777344 97.707031 140.777344 C 95.796875 140.777344 93.894531 140.683594 91.992188 140.496094 C 90.089844 140.308594 88.203125 140.03125 86.332031 139.65625 C 84.457031 139.285156 82.605469 138.820312 80.78125 138.265625 C 78.953125 137.710938 77.15625 137.070312 75.390625 136.339844 C 73.625 135.609375 71.902344 134.792969 70.21875 133.890625 C 68.535156 132.992188 66.898438 132.011719 65.308594 130.949219 C 63.722656 129.886719 62.1875 128.753906 60.710938 127.539062 C 59.234375 126.328125 57.824219 125.046875 56.472656 123.695312 C 55.121094 122.347656 53.839844 120.933594 52.628906 119.457031 C 51.417969 117.980469 50.28125 116.449219 49.21875 114.859375 C 48.160156 113.273438 47.179688 111.636719 46.277344 109.953125 C 45.378906 108.265625 44.5625 106.542969 43.832031 104.777344 C 43.101562 103.011719 42.457031 101.21875 41.902344 99.390625 C 41.347656 97.5625 40.886719 95.710938 40.511719 93.839844 C 40.140625 91.964844 39.859375 90.078125 39.671875 88.175781 C 39.484375 86.277344 39.390625 84.371094 39.390625 82.460938 C 39.390625 80.550781 39.484375 78.644531 39.671875 76.746094 C 39.859375 74.84375 40.140625 72.957031 40.511719 71.085938 C 40.886719 69.210938 41.347656 67.359375 41.902344 65.535156 C 42.457031 63.707031 43.101562 61.910156 43.832031 60.144531 C 44.5625 58.378906 45.378906 56.65625 46.277344 54.972656 C 47.179688 53.289062 48.160156 51.652344 49.21875 50.0625 C 50.28125 48.476562 51.417969 46.941406 52.628906 45.464844 C 53.839844 43.988281 55.121094 42.578125 56.472656 41.226562 C 57.824219 39.875 59.234375 38.59375 60.710938 37.382812 C 62.1875 36.171875 63.722656 35.035156 65.308594 33.972656 C 66.898438 32.914062 68.535156 31.933594 70.21875 31.03125 C 71.902344 30.132812 73.625 29.316406 75.390625 28.585938 C 77.15625 27.855469 78.953125 27.210938 80.78125 26.65625 C 82.605469 26.101562 84.457031 25.636719 86.332031 25.265625 C 88.203125 24.894531 90.089844 24.613281 91.992188 24.425781 C 93.894531 24.238281 95.796875 24.144531 97.707031 24.144531 C 99.617188 24.144531 101.523438 24.238281 103.421875 24.425781 C 105.324219 24.613281 107.210938 24.894531 109.085938 25.265625 C 110.957031 25.636719 112.808594 26.101562 114.636719 26.65625 C 116.464844 27.210938 118.261719 27.855469 120.023438 28.585938 C 121.789062 29.316406 123.511719 30.132812 125.199219 31.03125 C 126.882812 31.933594 128.519531 32.914062 130.105469 33.972656 C 131.695312 35.035156 133.226562 36.171875 134.703125 37.382812 C 136.179688 38.59375 137.59375 39.875 138.945312 41.226562 Z M 138.945312 41.226562 "/><g clip-rule="nonzero" clip-path="url(#7548c5c00e)"><path style=" stroke:none;fill-rule:nonzero;fill:#37e3ea;fill-opacity:1;" d="M 97.695312 222.40625 C 72.28125 222.40625 51.660156 243.011719 51.660156 268.445312 C 51.660156 293.878906 72.28125 314.503906 97.695312 314.503906 C 123.132812 314.503906 143.753906 293.878906 143.753906 268.445312 C 143.753906 243.011719 123.132812 222.40625 97.695312 222.40625 Z M 115.1875 277.25 C 117.582031 279.648438 117.582031 283.539062 115.1875 285.933594 C 114 287.121094 112.421875 287.738281 110.84375 287.738281 C 109.269531 287.738281 107.691406 287.121094 106.503906 285.933594 L 97.695312 277.128906 L 88.910156 285.933594 C 87.703125 287.121094 86.148438 287.738281 84.570312 287.738281 C 82.992188 287.738281 81.417969 287.121094 80.226562 285.933594 C 77.832031 283.539062 77.832031 279.648438 80.226562 277.25 L 89.015625 268.445312 L 80.226562 259.660156 C 77.832031 257.242188 77.832031 253.371094 80.226562 250.957031 C 82.625 248.558594 86.515625 248.558594 88.910156 250.957031 L 97.695312 259.761719 L 106.503906 250.957031 C 106.953125 250.503906 107.445312 250.136719 107.976562 249.871094 C 107.992188 249.871094 108 249.863281 108 249.851562 C 108.347656 249.664062 108.695312 249.523438 109.082031 249.421875 C 110.230469 249.070312 111.460938 249.070312 112.605469 249.421875 C 112.996094 249.523438 113.34375 249.664062 113.691406 249.851562 C 113.691406 249.863281 113.699219 249.871094 113.710938 249.871094 C 114.246094 250.136719 114.734375 250.503906 115.1875 250.957031 C 117.582031 253.371094 117.582031 257.242188 115.1875 259.660156 L 106.402344 268.445312 Z M 115.1875 277.25 "/></g><g clip-rule="nonzero" clip-path="url(#eeb08916d5)"><path style=" stroke:none;fill-rule:evenodd;fill:#3761ea;fill-opacity:1;" d="M 97.742188 225.003906 C 121.796875 225.003906 141.363281 244.570312 141.363281 268.621094 C 141.363281 292.671875 121.796875 312.238281 97.742188 312.238281 C 73.691406 312.238281 54.125 292.671875 54.125 268.621094 C 54.125 244.570312 73.691406 225.003906 97.742188 225.003906 Z M 109.695312 251.507812 L 97.742188 263.460938 L 85.792969 251.507812 C 84.367188 250.082031 82.054688 250.082031 80.628906 251.507812 C 79.207031 252.933594 79.207031 255.242188 80.628906 256.667969 L 92.582031 268.621094 L 80.628906 280.574219 C 79.203125 282 79.203125 284.308594 80.628906 285.734375 C 82.054688 287.160156 84.363281 287.160156 85.792969 285.734375 L 97.742188 273.78125 L 109.695312 285.734375 C 111.121094 287.160156 113.429688 287.160156 114.855469 285.734375 C 116.28125 284.308594 116.28125 281.996094 114.855469 280.574219 L 102.902344 268.621094 L 114.855469 256.667969 C 116.28125 255.246094 116.28125 252.933594 114.855469 251.507812 C 113.429688 250.082031 111.121094 250.085938 109.695312 251.507812 Z M 109.695312 251.507812 "/></g><g clip-rule="nonzero" clip-path="url(#85fda53117)"><path style=" stroke:none;fill-rule:evenodd;fill:#3761ea;fill-opacity:1;" d="M 97.746094 221.996094 C 123.460938 221.996094 144.378906 242.914062 144.378906 268.625 C 144.378906 294.335938 123.460938 315.253906 97.746094 315.253906 C 72.03125 315.253906 51.113281 294.335938 51.113281 268.625 C 51.113281 242.914062 72.03125 221.996094 97.746094 221.996094 Z M 110.523438 250.328125 L 97.746094 263.105469 L 84.96875 250.328125 C 83.445312 248.804688 80.976562 248.804688 79.449219 250.328125 C 77.929688 251.851562 77.929688 254.320312 79.449219 255.84375 L 92.230469 268.625 L 79.449219 281.402344 C 77.925781 282.925781 77.925781 285.394531 79.449219 286.917969 C 80.976562 288.445312 83.445312 288.441406 84.96875 286.921875 L 97.746094 274.140625 L 110.523438 286.917969 C 112.046875 288.441406 114.515625 288.441406 116.039062 286.921875 C 117.566406 285.394531 117.5625 282.925781 116.039062 281.402344 L 103.261719 268.625 L 116.039062 255.847656 C 117.5625 254.324219 117.566406 251.855469 116.039062 250.328125 C 114.515625 248.804688 112.046875 248.804688 110.523438 250.328125 Z M 110.523438 250.328125 "/></g></g></svg>