<svg xmlns="http://www.w3.org/2000/svg" xmlns:xlink="http://www.w3.org/1999/xlink" width="512"
     zoomAndPan="magnify" viewBox="0 0 384 383.999986" height="512"
     preserveAspectRatio="xMidYMid meet" version="1.2">
     <defs>
          <clipPath id="392b5c621a">
               <path d="M 133 261 L 243 261 L 243 370.5 L 133 370.5 Z M 133 261 " />
          </clipPath>
          <clipPath id="c765804387">
               <path
                    d="M 136.636719 264.796875 L 239.386719 264.796875 L 239.386719 367.546875 L 136.636719 367.546875 Z M 136.636719 264.796875 " />
          </clipPath>
          <clipPath id="54efe7de8c">
               <path
                    d="M 133.09375 261.253906 L 242.59375 261.253906 L 242.59375 370.753906 L 133.09375 370.753906 Z M 133.09375 261.253906 " />
          </clipPath>
     </defs>
     <g id="84d7ae0d64">
          <path style=" stroke:none;fill-rule:nonzero;fill:#37e3ea;fill-opacity:1;"
               d="M 302.882812 293.789062 C 302.882812 303.671875 286.03125 310.832031 261.441406 315.363281 C 261.105469 275.132812 228.246094 242.515625 187.941406 242.515625 C 147.660156 242.515625 114.804688 275.132812 114.464844 315.363281 C 89.875 310.832031 73.027344 303.671875 73.027344 293.789062 C 73.027344 241.070312 91.128906 195.242188 127.53125 171.8125 C 129.242188 170.703125 131.460938 170.871094 133.125 172.074219 C 148.503906 183.332031 167.453125 190.011719 187.964844 190.011719 C 208.457031 190.011719 227.402344 183.332031 242.785156 172.101562 C 244.421875 170.871094 246.664062 170.703125 248.375 171.8125 C 284.777344 195.242188 302.882812 241.070312 302.882812 293.789062 Z M 302.882812 293.789062 " />
          <path style=" stroke:none;fill-rule:nonzero;fill:#37e3ea;fill-opacity:1;"
               d="M 236.492188 48.527344 C 237.289062 49.320312 238.0625 50.136719 238.816406 50.96875 C 239.570312 51.800781 240.304688 52.652344 241.015625 53.519531 C 241.730469 54.386719 242.421875 55.273438 243.089844 56.175781 C 243.757812 57.078125 244.40625 57.996094 245.03125 58.929688 C 245.65625 59.863281 246.253906 60.8125 246.832031 61.777344 C 247.410156 62.738281 247.964844 63.71875 248.492188 64.707031 C 249.023438 65.699219 249.527344 66.703125 250.007812 67.71875 C 250.488281 68.734375 250.945312 69.757812 251.375 70.796875 C 251.804688 71.835938 252.207031 72.882812 252.585938 73.941406 C 252.964844 75 253.316406 76.066406 253.644531 77.140625 C 253.96875 78.214844 254.269531 79.296875 254.542969 80.386719 C 254.816406 81.476562 255.0625 82.574219 255.28125 83.675781 C 255.5 84.777344 255.691406 85.882812 255.855469 86.996094 C 256.019531 88.105469 256.160156 89.21875 256.269531 90.339844 C 256.378906 91.457031 256.460938 92.578125 256.515625 93.699219 C 256.570312 94.820312 256.597656 95.945312 256.597656 97.066406 C 256.597656 98.191406 256.570312 99.3125 256.515625 100.433594 C 256.460938 101.558594 256.378906 102.675781 256.269531 103.796875 C 256.160156 104.914062 256.019531 106.027344 255.855469 107.140625 C 255.691406 108.25 255.5 109.355469 255.28125 110.457031 C 255.0625 111.5625 254.816406 112.65625 254.542969 113.746094 C 254.269531 114.835938 253.96875 115.917969 253.644531 116.992188 C 253.316406 118.070312 252.964844 119.136719 252.585938 120.191406 C 252.207031 121.25 251.804688 122.296875 251.375 123.335938 C 250.945312 124.375 250.488281 125.402344 250.007812 126.417969 C 249.527344 127.433594 249.023438 128.433594 248.492188 129.425781 C 247.964844 130.417969 247.410156 131.394531 246.832031 132.355469 C 246.253906 133.320312 245.65625 134.269531 245.03125 135.203125 C 244.40625 136.136719 243.757812 137.054688 243.089844 137.957031 C 242.421875 138.859375 241.730469 139.746094 241.019531 140.613281 C 240.304688 141.484375 239.570312 142.332031 238.816406 143.164062 C 238.0625 144 237.289062 144.8125 236.492188 145.605469 C 235.699219 146.402344 234.886719 147.175781 234.054688 147.929688 C 233.222656 148.683594 232.371094 149.417969 231.503906 150.128906 C 230.632812 150.84375 229.75 151.535156 228.847656 152.203125 C 227.945312 152.871094 227.027344 153.519531 226.089844 154.144531 C 225.15625 154.765625 224.207031 155.367188 223.246094 155.945312 C 222.28125 156.523438 221.304688 157.078125 220.3125 157.605469 C 219.324219 158.136719 218.320312 158.640625 217.304688 159.121094 C 216.289062 159.601562 215.261719 160.054688 214.222656 160.488281 C 213.1875 160.917969 212.136719 161.320312 211.082031 161.699219 C 210.023438 162.078125 208.957031 162.429688 207.882812 162.753906 C 206.804688 163.082031 205.722656 163.382812 204.632812 163.65625 C 203.542969 163.925781 202.449219 164.171875 201.347656 164.394531 C 200.246094 164.613281 199.136719 164.804688 198.027344 164.96875 C 196.914062 165.132812 195.800781 165.269531 194.683594 165.382812 C 193.566406 165.492188 192.445312 165.574219 191.324219 165.628906 C 190.199219 165.683594 189.078125 165.710938 187.953125 165.710938 C 186.832031 165.710938 185.707031 165.683594 184.585938 165.628906 C 183.464844 165.574219 182.34375 165.492188 181.226562 165.382812 C 180.109375 165.269531 178.992188 165.132812 177.882812 164.96875 C 176.769531 164.804688 175.664062 164.613281 174.5625 164.394531 C 173.460938 164.171875 172.363281 163.925781 171.273438 163.65625 C 170.183594 163.382812 169.101562 163.082031 168.027344 162.753906 C 166.953125 162.429688 165.886719 162.078125 164.828125 161.699219 C 163.769531 161.320312 162.722656 160.917969 161.683594 160.488281 C 160.648438 160.054688 159.621094 159.601562 158.605469 159.121094 C 157.589844 158.640625 156.585938 158.136719 155.59375 157.605469 C 154.605469 157.078125 153.628906 156.523438 152.664062 155.945312 C 151.699219 155.367188 150.75 154.765625 149.816406 154.144531 C 148.882812 153.519531 147.964844 152.871094 147.0625 152.203125 C 146.160156 151.535156 145.273438 150.84375 144.40625 150.128906 C 143.539062 149.417969 142.6875 148.683594 141.855469 147.929688 C 141.023438 147.175781 140.210938 146.402344 139.414062 145.605469 C 138.621094 144.8125 137.847656 144 137.09375 143.164062 C 136.335938 142.332031 135.605469 141.484375 134.890625 140.613281 C 134.179688 139.746094 133.488281 138.859375 132.820312 137.957031 C 132.148438 137.054688 131.503906 136.136719 130.878906 135.203125 C 130.253906 134.269531 129.652344 133.320312 129.074219 132.355469 C 128.5 131.394531 127.945312 130.417969 127.414062 129.425781 C 126.886719 128.433594 126.378906 127.433594 125.898438 126.417969 C 125.421875 125.402344 124.964844 124.375 124.535156 123.335938 C 124.105469 122.296875 123.699219 121.25 123.324219 120.191406 C 122.945312 119.136719 122.589844 118.070312 122.265625 116.992188 C 121.9375 115.917969 121.640625 114.835938 121.367188 113.746094 C 121.09375 112.65625 120.847656 111.5625 120.628906 110.457031 C 120.410156 109.355469 120.21875 108.25 120.050781 107.140625 C 119.886719 106.027344 119.75 104.914062 119.640625 103.796875 C 119.53125 102.675781 119.449219 101.558594 119.390625 100.433594 C 119.335938 99.3125 119.308594 98.191406 119.308594 97.066406 C 119.308594 95.945312 119.335938 94.820312 119.390625 93.699219 C 119.449219 92.578125 119.53125 91.457031 119.640625 90.339844 C 119.75 89.21875 119.886719 88.105469 120.050781 86.996094 C 120.21875 85.882812 120.410156 84.777344 120.628906 83.675781 C 120.847656 82.574219 121.09375 81.476562 121.367188 80.386719 C 121.640625 79.296875 121.9375 78.214844 122.265625 77.140625 C 122.589844 76.066406 122.945312 75 123.324219 73.941406 C 123.699219 72.882812 124.105469 71.835938 124.535156 70.796875 C 124.964844 69.757812 125.421875 68.734375 125.898438 67.71875 C 126.378906 66.703125 126.886719 65.699219 127.414062 64.707031 C 127.945312 63.71875 128.5 62.738281 129.074219 61.777344 C 129.652344 60.8125 130.253906 59.863281 130.878906 58.929688 C 131.503906 57.996094 132.148438 57.078125 132.820312 56.175781 C 133.488281 55.273438 134.179688 54.386719 134.890625 53.519531 C 135.605469 52.652344 136.335938 51.800781 137.09375 50.96875 C 137.847656 50.136719 138.621094 49.320312 139.414062 48.527344 C 140.210938 47.734375 141.023438 46.957031 141.855469 46.203125 C 142.6875 45.449219 143.539062 44.714844 144.40625 44.003906 C 145.273438 43.292969 146.160156 42.601562 147.0625 41.929688 C 147.964844 41.261719 148.882812 40.613281 149.816406 39.992188 C 150.75 39.367188 151.699219 38.765625 152.664062 38.1875 C 153.628906 37.609375 154.605469 37.058594 155.59375 36.527344 C 156.585938 35.996094 157.589844 35.492188 158.605469 35.011719 C 159.621094 34.53125 160.648438 34.078125 161.683594 33.648438 C 162.722656 33.21875 163.769531 32.8125 164.828125 32.433594 C 165.886719 32.054688 166.953125 31.703125 168.027344 31.378906 C 169.101562 31.050781 170.183594 30.753906 171.273438 30.480469 C 172.363281 30.207031 173.460938 29.960938 174.5625 29.742188 C 175.664062 29.523438 176.769531 29.328125 177.882812 29.164062 C 178.992188 29 180.109375 28.863281 181.226562 28.753906 C 182.34375 28.640625 183.464844 28.558594 184.585938 28.503906 C 185.707031 28.449219 186.832031 28.421875 187.953125 28.421875 C 189.078125 28.421875 190.199219 28.449219 191.324219 28.503906 C 192.445312 28.558594 193.566406 28.640625 194.683594 28.753906 C 195.800781 28.863281 196.914062 29 198.027344 29.164062 C 199.136719 29.328125 200.246094 29.523438 201.347656 29.742188 C 202.449219 29.960938 203.542969 30.207031 204.632812 30.480469 C 205.722656 30.753906 206.804688 31.050781 207.882812 31.378906 C 208.957031 31.703125 210.023438 32.054688 211.082031 32.433594 C 212.136719 32.8125 213.1875 33.21875 214.222656 33.648438 C 215.261719 34.078125 216.289062 34.53125 217.304688 35.011719 C 218.320312 35.492188 219.324219 35.996094 220.3125 36.527344 C 221.304688 37.058594 222.28125 37.609375 223.246094 38.1875 C 224.207031 38.765625 225.15625 39.367188 226.089844 39.992188 C 227.027344 40.613281 227.945312 41.261719 228.847656 41.929688 C 229.75 42.601562 230.632812 43.292969 231.503906 44.003906 C 232.371094 44.714844 233.222656 45.449219 234.054688 46.203125 C 234.886719 46.957031 235.699219 47.734375 236.492188 48.527344 Z M 236.492188 48.527344 " />
          <g clip-rule="nonzero" clip-path="url(#392b5c621a)">
               <path style=" stroke:none;fill-rule:nonzero;fill:#37e3ea;fill-opacity:1;"
                    d="M 187.941406 261.800781 C 158.027344 261.800781 133.75 286.050781 133.75 315.992188 C 133.75 345.933594 158.027344 370.207031 187.941406 370.207031 C 217.882812 370.207031 242.15625 345.933594 242.15625 315.992188 C 242.15625 286.050781 217.882812 261.800781 187.941406 261.800781 Z M 208.527344 326.355469 C 211.347656 329.179688 211.347656 333.757812 208.527344 336.578125 C 207.128906 337.976562 205.273438 338.699219 203.417969 338.699219 C 201.5625 338.699219 199.707031 337.976562 198.308594 336.578125 L 187.941406 326.210938 L 177.601562 336.578125 C 176.179688 337.976562 174.34375 338.699219 172.488281 338.699219 C 170.632812 338.699219 168.777344 337.976562 167.378906 336.578125 C 164.558594 333.757812 164.558594 329.179688 167.378906 326.355469 L 177.71875 315.992188 L 167.378906 305.648438 C 164.558594 302.804688 164.558594 298.25 167.378906 295.40625 C 170.199219 292.585938 174.78125 292.585938 177.601562 295.40625 L 187.941406 305.769531 L 198.308594 295.40625 C 198.839844 294.875 199.417969 294.441406 200.042969 294.128906 C 200.058594 294.128906 200.066406 294.117188 200.066406 294.101562 C 200.476562 293.886719 200.886719 293.71875 201.34375 293.597656 C 202.695312 293.1875 204.140625 293.1875 205.492188 293.597656 C 205.949219 293.71875 206.359375 293.886719 206.769531 294.101562 C 206.769531 294.117188 206.777344 294.128906 206.792969 294.128906 C 207.417969 294.441406 208 294.875 208.527344 295.40625 C 211.347656 298.25 211.347656 302.804688 208.527344 305.648438 L 198.1875 315.992188 Z M 208.527344 326.355469 " />
          </g>
          <g clip-rule="nonzero" clip-path="url(#c765804387)">
               <path style=" stroke:none;fill-rule:evenodd;fill:#3761ea;fill-opacity:1;"
                    d="M 187.972656 264.796875 C 216.277344 264.796875 239.304688 287.824219 239.304688 316.128906 C 239.304688 344.433594 216.277344 367.460938 187.972656 367.460938 C 159.664062 367.460938 136.636719 344.433594 136.636719 316.128906 C 136.636719 287.824219 159.664062 264.796875 187.972656 264.796875 Z M 202.039062 295.988281 L 187.972656 310.054688 L 173.90625 295.988281 C 172.230469 294.3125 169.511719 294.308594 167.832031 295.988281 C 166.15625 297.664062 166.15625 300.386719 167.832031 302.0625 L 181.898438 316.128906 L 167.832031 330.195312 C 166.152344 331.875 166.152344 334.59375 167.832031 336.269531 C 169.511719 337.949219 172.226562 337.945312 173.90625 336.269531 L 187.972656 322.203125 L 202.039062 336.269531 C 203.714844 337.945312 206.433594 337.945312 208.109375 336.269531 C 209.789062 334.589844 209.789062 331.871094 208.109375 330.195312 L 194.046875 316.128906 L 208.109375 302.0625 C 209.789062 300.386719 209.789062 297.667969 208.109375 295.988281 C 206.433594 294.3125 203.714844 294.3125 202.039062 295.988281 Z M 202.039062 295.988281 " />
          </g>
          <g clip-rule="nonzero" clip-path="url(#54efe7de8c)">
               <path style=" stroke:none;fill-rule:evenodd;fill:#3761ea;fill-opacity:1;"
                    d="M 187.84375 261.257812 C 218.035156 261.257812 242.59375 285.816406 242.59375 316.003906 C 242.59375 346.191406 218.035156 370.75 187.84375 370.75 C 157.65625 370.75 133.09375 346.191406 133.09375 316.003906 C 133.09375 285.816406 157.65625 261.257812 187.84375 261.257812 Z M 202.847656 294.523438 L 187.84375 309.523438 L 172.84375 294.519531 C 171.054688 292.734375 168.15625 292.730469 166.363281 294.519531 C 164.578125 296.308594 164.578125 299.210938 166.363281 301 L 181.367188 316.003906 L 166.363281 331.003906 C 164.574219 332.792969 164.574219 335.695312 166.363281 337.484375 C 168.15625 339.273438 171.054688 339.273438 172.84375 337.484375 L 187.84375 322.480469 L 202.847656 337.484375 C 204.636719 339.269531 207.535156 339.273438 209.324219 337.484375 C 211.117188 335.691406 211.113281 332.792969 209.324219 331.003906 L 194.324219 316.003906 L 209.324219 301 C 211.113281 299.214844 211.117188 296.3125 209.324219 294.523438 C 207.535156 292.734375 204.636719 292.734375 202.847656 294.523438 Z M 202.847656 294.523438 " />
          </g>
     </g>
</svg>