<svg width="16" height="16" viewBox="0 0 16 16" fill="none" xmlns="http://www.w3.org/2000/svg">
<rect width="16" height="16" rx="3" fill="#48B6F0"/>
<path d="M5 9.66667H6.11111C6.11111 10.2667 6.87222 10.7778 7.77778 10.7778C8.68333 10.7778 9.44444 10.2667 9.44444 9.66667C9.44444 9.05556 8.86667 8.83333 7.64444 8.53889C6.46667 8.24444 5 7.87778 5 6.33333C5 5.33889 5.81667 4.49444 6.94444 4.21111V3H8.61111V4.21111C9.73889 4.49444 10.5556 5.33889 10.5556 6.33333H9.44444C9.44444 5.73333 8.68333 5.22222 7.77778 5.22222C6.87222 5.22222 6.11111 5.73333 6.11111 6.33333C6.11111 6.94444 6.68889 7.16667 7.91111 7.46111C9.08889 7.75556 10.5556 8.12222 10.5556 9.66667C10.5556 10.6611 9.73889 11.5056 8.61111 11.7889V13H6.94444V11.7889C5.81667 11.5056 5 10.6611 5 9.66667Z" fill="white"/>
</svg>
