<svg width="23" height="20" viewBox="0 0 23 20" fill="none" xmlns="http://www.w3.org/2000/svg">
<path d="M2 1H18C18.2652 1 18.5196 1.10536 18.7071 1.29289C18.8946 1.48043 19 1.73478 19 2V3.586C18.9999 3.85119 18.8946 4.10551 18.707 4.293L12.293 10.707C12.1055 10.8945 12.0001 11.1488 12 11.414V17.719C12 17.8709 11.9653 18.0208 11.8987 18.1573C11.8321 18.2938 11.7352 18.4133 11.6155 18.5068C11.4958 18.6003 11.3564 18.6653 11.2078 18.6969C11.0592 18.7285 10.9054 18.7258 10.758 18.689L8.758 18.189C8.54157 18.135 8.3494 18.0102 8.21205 17.8345C8.0747 17.6587 8.00006 17.4421 8 17.219V11.414C7.99994 11.1488 7.89455 10.8945 7.707 10.707L1.293 4.293C1.10545 4.10551 1.00006 3.85119 1 3.586V2C1 1.73478 1.10536 1.48043 1.29289 1.29289C1.48043 1.10536 1.73478 1 2 1Z" fill="#48B6F0" stroke="#48B6F0" stroke-width="1.5" stroke-linecap="round" stroke-linejoin="round"/>
<path d="M19.3244 15.545L19.0442 15.8945L19.3611 16.2113L21.6029 18.4526L21.4526 18.6029L19.2113 16.3611L18.8945 16.0442L18.545 16.3244C17.6684 17.0271 16.5781 17.4093 15.4546 17.4077H15.4539C12.7195 17.4077 10.5 15.1883 10.5 12.4539C10.5 9.71948 12.7195 7.5 15.4539 7.5C18.1883 7.5 20.4077 9.71948 20.4077 12.4539L20.4078 12.4546C20.4093 13.5781 20.0271 14.6684 19.3244 15.545Z" fill="#48B6F0" stroke="white"/>
</svg>
