<svg width="24" height="24" viewBox="0 0 24 24" fill="none" xmlns="http://www.w3.org/2000/svg">
<path d="M6.6001 3.60001C5.80445 3.60001 5.04139 3.91608 4.47878 4.47869C3.91617 5.04129 3.6001 5.80436 3.6001 6.60001V7.20001H20.4001V6.60001C20.4001 5.80436 20.084 5.04129 19.5214 4.47869C18.9588 3.91608 18.1957 3.60001 17.4001 3.60001H6.6001ZM20.4001 8.40001H3.6001V17.4C3.6001 18.1957 3.91617 18.9587 4.47878 19.5213C5.04139 20.0839 5.80445 20.4 6.6001 20.4H17.4001C18.1957 20.4 18.9588 20.0839 19.5214 19.5213C20.084 18.9587 20.4001 18.1957 20.4001 17.4V8.40001ZM9.6001 12C9.6001 12.3183 9.47367 12.6235 9.24863 12.8485C9.02358 13.0736 8.71836 13.2 8.4001 13.2C8.08184 13.2 7.77661 13.0736 7.55157 12.8485C7.32653 12.6235 7.2001 12.3183 7.2001 12C7.2001 11.6817 7.32653 11.3765 7.55157 11.1515C7.77661 10.9264 8.08184 10.8 8.4001 10.8C8.71836 10.8 9.02358 10.9264 9.24863 11.1515C9.47367 11.3765 9.6001 11.6817 9.6001 12ZM8.4001 16.8C8.08184 16.8 7.77661 16.6736 7.55157 16.4485C7.32653 16.2235 7.2001 15.9183 7.2001 15.6C7.2001 15.2817 7.32653 14.9765 7.55157 14.7515C7.77661 14.5264 8.08184 14.4 8.4001 14.4C8.71836 14.4 9.02358 14.5264 9.24863 14.7515C9.47367 14.9765 9.6001 15.2817 9.6001 15.6C9.6001 15.9183 9.47367 16.2235 9.24863 16.4485C9.02358 16.6736 8.71836 16.8 8.4001 16.8ZM13.2001 12C13.2001 12.3183 13.0737 12.6235 12.8486 12.8485C12.6236 13.0736 12.3184 13.2 12.0001 13.2C11.6818 13.2 11.3766 13.0736 11.1516 12.8485C10.9265 12.6235 10.8001 12.3183 10.8001 12C10.8001 11.6817 10.9265 11.3765 11.1516 11.1515C11.3766 10.9264 11.6818 10.8 12.0001 10.8C12.3184 10.8 12.6236 10.9264 12.8486 11.1515C13.0737 11.3765 13.2001 11.6817 13.2001 12ZM12.0001 16.8C11.6818 16.8 11.3766 16.6736 11.1516 16.4485C10.9265 16.2235 10.8001 15.9183 10.8001 15.6C10.8001 15.2817 10.9265 14.9765 11.1516 14.7515C11.3766 14.5264 11.6818 14.4 12.0001 14.4C12.3184 14.4 12.6236 14.5264 12.8486 14.7515C13.0737 14.9765 13.2001 15.2817 13.2001 15.6C13.2001 15.9183 13.0737 16.2235 12.8486 16.4485C12.6236 16.6736 12.3184 16.8 12.0001 16.8ZM16.8001 12C16.8001 12.3183 16.6737 12.6235 16.4486 12.8485C16.2236 13.0736 15.9184 13.2 15.6001 13.2C15.2818 13.2 14.9766 13.0736 14.7516 12.8485C14.5265 12.6235 14.4001 12.3183 14.4001 12C14.4001 11.6817 14.5265 11.3765 14.7516 11.1515C14.9766 10.9264 15.2818 10.8 15.6001 10.8C15.9184 10.8 16.2236 10.9264 16.4486 11.1515C16.6737 11.3765 16.8001 11.6817 16.8001 12Z" fill="#37E3EA"/>
</svg>
