<svg width="25" height="24" viewBox="0 0 25 24" fill="none" xmlns="http://www.w3.org/2000/svg">
<path fill-rule="evenodd" clip-rule="evenodd" d="M15.916 2H7.5C4.73858 2 2.5 4.23858 2.5 7V17C2.5 19.7614 4.73858 22 7.5 22H17.5C20.2614 22 22.5 19.7614 22.5 17V8.58396C21.8875 8.85155 21.2111 9 20.5 9C17.7386 9 15.5 6.76142 15.5 4C15.5 3.2889 15.6484 2.61246 15.916 2ZM10.5 14.5H6.5V13.5H10.5V14.5ZM15.5 17.5H6.5V16.5H15.5V17.5Z" fill="#BFBFBF"/>
<path d="M22.5 4.5C22.5 5.88071 21.3807 7 20 7C18.6193 7 17.5 5.88071 17.5 4.5C17.5 3.11929 18.6193 2 20 2C21.3807 2 22.5 3.11929 22.5 4.5Z" fill="#BFBFBF"/>
</svg>
