<svg width="21" height="20" viewBox="0 0 21 20" fill="none" xmlns="http://www.w3.org/2000/svg">
<path fill-rule="evenodd" clip-rule="evenodd" d="M1.02 5.823C0.5 6.77 0.5 7.915 0.5 10.203V11.725C0.5 15.625 0.5 17.576 1.672 18.788C2.844 20 4.729 20 8.5 20H12.5C16.271 20 18.157 20 19.328 18.788C20.499 17.576 20.5 15.626 20.5 11.725V10.204C20.5 7.915 20.5 6.771 19.98 5.823C19.462 4.874 18.513 4.286 16.616 3.108L14.616 1.867C12.611 0.622 11.608 0 10.5 0C9.392 0 8.39 0.622 6.384 1.867L4.384 3.108C2.487 4.286 1.539 4.874 1.02 5.823ZM9.75 16C9.75 16.1989 9.82902 16.3897 9.96967 16.5303C10.1103 16.671 10.3011 16.75 10.5 16.75C10.6989 16.75 10.8897 16.671 11.0303 16.5303C11.171 16.3897 11.25 16.1989 11.25 16V13C11.25 12.8011 11.171 12.6103 11.0303 12.4697C10.8897 12.329 10.6989 12.25 10.5 12.25C10.3011 12.25 10.1103 12.329 9.96967 12.4697C9.82902 12.6103 9.75 12.8011 9.75 13V16Z" fill="#BFBFBF"/>
</svg>
