<svg width="49" height="48" viewBox="0 0 49 48" fill="none" xmlns="http://www.w3.org/2000/svg">
<path d="M7.13584 42.9879C-0.901605 36.629 4.37392 27.9443 9.50144 22.9164C10.7727 21.6699 12.6915 21.5065 14.2257 22.4099C14.7993 22.7477 15.4251 23.1211 16.076 23.513C19.1479 25.3623 23.7826 23.1708 25.4999 20.0233C26.5345 18.127 27.9727 16.099 29.9418 14.1299C36.7892 7.28249 41.3542 20.9774 44.7779 28.9661C47.0638 34.2998 44.7393 39.4746 42.5809 42.3675C41.8569 43.3379 40.6741 43.8022 39.4633 43.8022H9.64094C8.7397 43.8022 7.84263 43.5471 7.13584 42.9879Z" fill="#37E3EA"/>
<path d="M20.8119 11.8475C20.8119 15.6292 17.7461 18.6949 13.9644 18.6949C10.1827 18.6949 7.11694 15.6292 7.11694 11.8475C7.11694 8.06571 10.1827 5 13.9644 5C17.7461 5 20.8119 8.06571 20.8119 11.8475Z" fill="#37E3EA"/>
</svg>
