<svg width="24" height="24" viewBox="0 0 24 24" fill="none" xmlns="http://www.w3.org/2000/svg">
<path fill-rule="evenodd" clip-rule="evenodd" d="M7.24994 6.88099V5.46099C7.25008 5.04202 7.40053 4.63699 7.67395 4.31953C7.94737 4.00207 8.32562 3.79324 8.73994 3.73099L9.95994 3.54799C11.3124 3.34584 12.6875 3.34584 14.0399 3.54799L15.2599 3.73099C15.6744 3.79327 16.0528 4.00224 16.3263 4.31991C16.5997 4.63758 16.75 5.04284 16.7499 5.46199V6.88199L18.4439 7.01899C19.0259 7.06583 19.5754 7.30645 20.0045 7.70237C20.4336 8.0983 20.7175 8.62666 20.8109 9.20299C20.8524 9.46077 20.89 9.71913 20.9239 9.97799C20.9318 10.0405 20.9198 10.1038 20.8897 10.1591C20.8595 10.2144 20.8127 10.2588 20.7559 10.286L20.6789 10.322C18.5176 11.3453 16.1861 11.9612 13.82 12.1696C13.5046 11.4795 12.8083 11 12 11C11.1917 11 10.4954 11.4795 10.18 12.1695C7.814 11.9611 5.4825 11.3452 3.32094 10.322L3.24394 10.286C3.18697 10.2589 3.13998 10.2146 3.10964 10.1593C3.0793 10.104 3.06716 10.0406 3.07494 9.97799C3.10961 9.71933 3.14761 9.46099 3.18894 9.20299C3.28236 8.62666 3.56631 8.0983 3.99541 7.70237C4.42451 7.30645 4.97397 7.06583 5.55594 7.01899L7.24994 6.88099ZM10.1101 13.656C7.77707 13.4404 5.47652 12.8551 3.3197 11.9C3.29019 11.8867 3.25787 11.8807 3.22554 11.8826C3.1932 11.8845 3.16181 11.8942 3.13407 11.911C3.10633 11.9277 3.08307 11.9509 3.06628 11.9786C3.04949 12.0063 3.03969 12.0377 3.0377 12.07C2.93642 13.9845 3.03934 15.9043 3.3447 17.797C3.43791 18.3735 3.72178 18.9021 4.1509 19.2982C4.58002 19.6943 5.12959 19.9351 5.7117 19.982L7.5837 20.132C10.6267 20.378 13.6837 20.378 16.7277 20.132L18.5997 19.982C19.1818 19.9351 19.7314 19.6943 20.1605 19.2982C20.5896 18.9021 20.8735 18.3735 20.9667 17.797C21.2727 15.902 21.3767 13.982 21.2737 12.071V12.07C21.2717 12.0377 21.2619 12.0063 21.2451 11.9786C21.2283 11.9509 21.2051 11.9277 21.1773 11.911C21.1496 11.8942 21.1182 11.8845 21.0859 11.8826C21.0535 11.8807 21.0212 11.8867 20.9917 11.9C18.736 12.8989 16.3231 13.4933 13.8802 13.6833C13.601 14.4514 12.8646 15 12 15C11.1252 15 10.3816 14.4384 10.1101 13.656ZM10.1829 5.03099C11.3876 4.85106 12.6123 4.85106 13.8169 5.03099L15.0369 5.21399C15.0961 5.22285 15.1502 5.25265 15.1893 5.29797C15.2284 5.3433 15.2499 5.40114 15.2499 5.46099V6.77599C13.085 6.65235 10.9148 6.65235 8.74994 6.77599V5.46099C8.75 5.40114 8.77153 5.3433 8.81062 5.29797C8.8497 5.25265 8.90375 5.22285 8.96294 5.21399L10.1829 5.03099Z" fill="#37E3EA"/>
</svg>
