<svg width="16" height="16" viewBox="0 0 16 16" fill="none" xmlns="http://www.w3.org/2000/svg">
<path fill-rule="evenodd" clip-rule="evenodd" d="M5.04 14.8126C5.42402 14.996 5.84415 15.0912 6.26971 15.0915H12.3794C13.0607 15.0914 13.7196 14.848 14.2372 14.405C14.7548 13.962 15.0971 13.3486 15.2023 12.6755L15.9177 8.1006C15.9689 7.77444 15.9488 7.44108 15.8588 7.12343C15.7689 6.80579 15.6112 6.5114 15.3966 6.26052C15.1819 6.00964 14.9155 5.80823 14.6157 5.67015C14.3158 5.53206 13.9896 5.46057 13.6594 5.4606H9.90857V2.76802C9.90911 2.35667 9.77306 1.95679 9.52178 1.63111C9.27049 1.30543 8.91819 1.0724 8.52016 0.968575C8.12213 0.864752 7.70089 0.896015 7.32255 1.05746C6.9442 1.2189 6.63016 1.50139 6.42971 1.8606L4.056 6.1006C3.91277 6.35656 3.83761 6.645 3.83771 6.93831V13.1577C3.83766 13.4815 3.9293 13.7987 4.10203 14.0725C4.27475 14.3464 4.5215 14.5657 4.81371 14.7052L5.04228 14.8137L5.04 14.8126ZM1.19314 6.30974C1.04356 6.30959 0.895421 6.33892 0.757186 6.39606C0.61895 6.45319 0.493332 6.53702 0.387511 6.64273C0.28169 6.74845 0.197743 6.87398 0.140467 7.01216C0.0831913 7.15033 0.0537109 7.29845 0.0537109 7.44802V13.2903C0.0537109 13.5925 0.173758 13.8823 0.387442 14.096C0.601126 14.3097 0.890944 14.4297 1.19314 14.4297H1.76C1.91155 14.4297 2.05689 14.3695 2.16406 14.2624C2.27122 14.1552 2.33143 14.0099 2.33143 13.8583V6.88002C2.33143 6.72847 2.27122 6.58313 2.16406 6.47596C2.05689 6.3688 1.91155 6.3086 1.76 6.3086L1.19314 6.30974Z" fill="#3761EA"/>
</svg>
