<svg width="24" height="24" viewBox="0 0 24 24" fill="none" xmlns="http://www.w3.org/2000/svg">
<g clip-path="url(#clip0_250_1606)">
<path fill-rule="evenodd" clip-rule="evenodd" d="M16.204 22.756C14.347 23.174 13 21.578 13 20L13 5.99999C13 4.42199 14.347 2.82599 16.204 3.24399C20.666 4.24799 24 8.23399 24 13C24 17.766 20.666 21.752 16.204 22.756Z" fill="#37E3EA"/>
<path fill-rule="evenodd" clip-rule="evenodd" d="M9.70679 16.707C9.51926 16.8945 9.26495 16.9998 8.99979 16.9998C8.73462 16.9998 8.48031 16.8945 8.29279 16.707L5.29279 13.707C5.10531 13.5195 5 13.2652 5 13C5 12.7348 5.10531 12.4805 5.29279 12.293L8.29279 9.29301C8.48139 9.11085 8.73399 9.01006 8.99619 9.01234C9.25838 9.01461 9.5092 9.11978 9.6946 9.30519C9.88001 9.4906 9.98518 9.74141 9.98746 10.0036C9.98974 10.2658 9.88895 10.5184 9.70679 10.707L8.41379 12L16.9998 12C17.265 12 17.5194 12.1054 17.7069 12.2929C17.8944 12.4804 17.9998 12.7348 17.9998 13C17.9998 13.2652 17.8944 13.5196 17.7069 13.7071C17.5194 13.8947 17.265 14 16.9998 14L8.41379 14L9.70679 15.293C9.89426 15.4805 9.99957 15.7348 9.99957 16C9.99957 16.2652 9.89426 16.5195 9.70679 16.707Z" fill="#3761EA"/>
</g>
<defs>
<clipPath id="clip0_250_1606">
<rect width="24" height="24" fill="white"/>
</clipPath>
</defs>
</svg>
