<svg width="32" height="32" viewBox="0 0 32 32" fill="none" xmlns="http://www.w3.org/2000/svg">
<g clip-path="url(#clip0_138_2124)">
<path d="M1.00197 15.5487C1.00197 7.18625 7.55197 1 16.002 1C24.452 1 31.0007 7.1875 31.0007 15.5487C31.0007 23.91 24.4507 30.0963 16.0007 30.0963C14.4882 30.0963 13.0257 29.8962 11.6632 29.5212C11.3973 29.4497 11.1148 29.4717 10.8632 29.5838L7.87572 30.8962C7.69563 30.9764 7.49856 31.011 7.30193 30.9969C7.10531 30.9828 6.91518 30.9205 6.74837 30.8154C6.58155 30.7104 6.44318 30.5659 6.34548 30.3947C6.24778 30.2234 6.19377 30.0308 6.18822 29.8337L6.10072 27.1588C6.09394 26.9976 6.05507 26.8394 5.98638 26.6934C5.9177 26.5475 5.82058 26.4167 5.70072 26.3088C4.19774 24.9525 3.00131 23.2913 2.19127 21.4361C1.38123 19.5808 0.976207 17.5742 1.00322 15.55L1.00197 15.5487ZM11.402 12.8113L7.00197 19.8112C6.56447 20.4737 7.40197 21.235 8.02697 20.7487L12.7645 17.1612C13.0895 16.9113 13.5145 16.9113 13.852 17.1612L17.352 19.7863C18.402 20.5737 19.902 20.2862 20.602 19.1862L25.002 12.1863C25.4395 11.5238 24.602 10.7738 23.977 11.2488L19.2395 14.8363C18.927 15.0863 18.4895 15.0863 18.1645 14.8363L14.6645 12.2113C14.4156 12.0232 14.1303 11.889 13.8268 11.8171C13.5232 11.7452 13.208 11.7372 12.9012 11.7937C12.5945 11.8501 12.3027 11.9697 12.0446 12.1449C11.7865 12.32 11.5677 12.547 11.402 12.8113Z" fill="#0077DB"/>
</g>
<defs>
<clipPath id="clip0_138_2124">
<rect width="30" height="30" fill="white" transform="translate(1 1)"/>
</clipPath>
</defs>
</svg>
