<svg width="25" height="24" viewBox="0 0 25 24" fill="none" xmlns="http://www.w3.org/2000/svg">
<path d="M13.9287 4.85714C13.9287 3.27919 15.2079 2 16.7859 2H19.643C21.221 2 22.5001 3.27919 22.5001 4.85714V7.71429C22.5001 9.29224 21.221 10.5714 19.643 10.5714H16.7859C15.2079 10.5714 13.9287 9.29224 13.9287 7.71428V4.85714Z" fill="#BFBFBF"/>
<path d="M13.9287 16.2857C13.9287 14.7078 15.2079 13.4286 16.7859 13.4286H19.643C21.221 13.4286 22.5001 14.7078 22.5001 16.2857V19.1429C22.5001 20.7208 21.221 22 19.643 22H16.7859C15.2079 22 13.9287 20.7208 13.9287 19.1429V16.2857Z" fill="#BFBFBF"/>
<path d="M2.5 4.85714C2.5 3.27919 3.77919 2 5.35714 2H8.21429C9.79224 2 11.0714 3.27919 11.0714 4.85714V7.71429C11.0714 9.29224 9.79224 10.5714 8.21428 10.5714H5.35714C3.77919 10.5714 2.5 9.29224 2.5 7.71428V4.85714Z" fill="#BFBFBF"/>
<path d="M2.5 16.2857C2.5 14.7078 3.77919 13.4286 5.35714 13.4286H8.21429C9.79224 13.4286 11.0714 14.7078 11.0714 16.2857V19.1429C11.0714 20.7208 9.79224 22 8.21428 22H5.35714C3.77919 22 2.5 20.7208 2.5 19.1429V16.2857Z" fill="#BFBFBF"/>
</svg>
