<svg width="21" height="20" viewBox="0 0 21 20" fill="none" xmlns="http://www.w3.org/2000/svg">
<path d="M11.9287 2.85714C11.9287 1.27919 13.2079 0 14.7859 0H17.643C19.221 0 20.5001 1.27919 20.5001 2.85714V5.71429C20.5001 7.29224 19.221 8.57143 17.643 8.57143H14.7859C13.2079 8.57143 11.9287 7.29224 11.9287 5.71428V2.85714Z" fill="#BFBFBF"/>
<path d="M11.9287 14.2857C11.9287 12.7078 13.2079 11.4286 14.7859 11.4286H17.643C19.221 11.4286 20.5001 12.7078 20.5001 14.2857V17.1429C20.5001 18.7208 19.221 20 17.643 20H14.7859C13.2079 20 11.9287 18.7208 11.9287 17.1429V14.2857Z" fill="#BFBFBF"/>
<path d="M0.5 2.85714C0.5 1.27919 1.77919 0 3.35714 0H6.21429C7.79224 0 9.07143 1.27919 9.07143 2.85714V5.71429C9.07143 7.29224 7.79224 8.57143 6.21428 8.57143H3.35714C1.77919 8.57143 0.5 7.29224 0.5 5.71428V2.85714Z" fill="#BFBFBF"/>
<path d="M0.5 14.2857C0.5 12.7078 1.77919 11.4286 3.35714 11.4286H6.21429C7.79224 11.4286 9.07143 12.7078 9.07143 14.2857V17.1429C9.07143 18.7208 7.79224 20 6.21428 20H3.35714C1.77919 20 0.5 18.7208 0.5 17.1429V14.2857Z" fill="#BFBFBF"/>
</svg>
