<svg width="24" height="24" viewBox="0 0 24 24" fill="none" xmlns="http://www.w3.org/2000/svg">
<path d="M6.03589 18.1438L5.94101 18.6987C5.89795 18.9475 5.9255 19.2047 6.02054 19.4386C6.11557 19.6725 6.27428 19.8751 6.47866 20.0234C6.68303 20.1716 6.92487 20.2596 7.17673 20.2773C7.42859 20.2951 7.68038 20.2418 7.90351 20.1237L11.9545 17.9824C11.9843 17.9709 12.0173 17.9709 12.0471 17.9824L16.0982 20.1224C16.3212 20.2413 16.5731 20.2952 16.8253 20.2779C17.0774 20.2606 17.3197 20.1729 17.5244 20.0246C17.729 19.8764 17.888 19.6736 17.983 19.4394C18.0781 19.2052 18.1054 18.949 18.062 18.7L17.2775 14.1089V14.105C17.2758 14.099 17.2758 14.093 17.2775 14.087L17.2878 14.0703L17.2955 14.0638L20.5865 10.8873C20.7716 10.7105 20.902 10.4842 20.9623 10.2354C21.0227 9.98662 21.0103 9.72574 20.9268 9.48376C20.8432 9.24177 20.692 9.02885 20.491 8.87027C20.29 8.7117 20.0478 8.61413 19.793 8.58916L16.1328 8.04684L6.03589 18.1438Z" fill="#37E3EA"/>
<path d="M11.2861 3.20791C11.5001 3.07222 11.7483 3.00011 12.0017 3C12.2551 3.00011 12.5033 3.07222 12.7173 3.20791C12.9313 3.34361 13.1024 3.53732 13.2105 3.76648L14.9946 7.36714L6.41178 15.9499L6.72632 14.1101V14.105C6.72742 14.0987 6.72693 14.0922 6.72491 14.0862C6.72289 14.0801 6.7194 14.0746 6.71475 14.0703L6.70703 14.0638L3.41476 10.8886C3.22926 10.7118 3.09845 10.4854 3.03789 10.2365C2.97733 9.98746 2.98957 9.72631 3.07316 9.48408C3.15675 9.24184 3.30817 9.02872 3.5094 8.87006C3.71063 8.71141 3.9532 8.6139 4.20825 8.58914L8.70554 7.92297L8.73512 7.91783L8.75055 7.88825L10.7928 3.76648C10.901 3.53732 11.072 3.34361 11.2861 3.20791Z" fill="#3761EA"/>
</svg>
