<svg xmlns="http://www.w3.org/2000/svg" xmlns:xlink="http://www.w3.org/1999/xlink" width="512" zoomAndPan="magnify" viewBox="0 0 384 383.999986" height="512" preserveAspectRatio="xMidYMid meet" version="1.2"><defs><clipPath id="14f7d19680"><path d="M 27.09375 15.199219 L 357 15.199219 L 357 368.449219 L 27.09375 368.449219 Z M 27.09375 15.199219 "/></clipPath></defs><g id="14395d07f8"><path style=" stroke:none;fill-rule:nonzero;fill:#37e3ea;fill-opacity:1;" d="M 355.292969 110.238281 L 355.292969 272.707031 L 191.835938 367.109375 L 28.378906 272.707031 L 28.378906 110.238281 L 29.085938 110.660156 L 191.199219 17.035156 L 353.949219 111.015625 Z M 355.292969 110.238281 "/><path style=" stroke:none;fill-rule:nonzero;fill:#3761ea;fill-opacity:1;" d="M 102.515625 245.59375 L 58.175781 289.933594 L 58.457031 290.144531 L 81.617188 266.984375 L 116.851562 231.753906 L 161.472656 187.128906 L 161.191406 186.917969 Z M 102.515625 245.59375 "/><path style=" stroke:none;fill-rule:nonzero;fill:#3761ea;fill-opacity:1;" d="M 109.578125 245.59375 L 62.625 292.546875 L 62.976562 292.6875 L 165.992188 189.671875 L 165.640625 189.53125 Z M 109.578125 245.59375 "/><path style=" stroke:none;fill-rule:nonzero;fill:#3761ea;fill-opacity:1;" d="M 116.636719 245.59375 L 95.457031 266.703125 L 67.070312 295.085938 L 67.425781 295.300781 L 81.617188 281.035156 L 130.972656 231.753906 L 166.132812 196.519531 L 170.441406 192.28125 L 170.089844 192.070312 Z M 116.636719 245.59375 "/><path style=" stroke:none;fill-rule:nonzero;fill:#3761ea;fill-opacity:1;" d="M 123.628906 245.59375 L 95.457031 273.765625 L 71.589844 297.699219 L 71.871094 297.839844 L 81.617188 288.097656 L 174.890625 194.824219 L 174.605469 194.683594 Z M 123.628906 245.59375 "/><path style=" stroke:none;fill-rule:nonzero;fill:#3761ea;fill-opacity:1;" d="M 130.6875 245.59375 L 76.039062 300.242188 L 76.320312 300.453125 L 81.617188 295.160156 L 145.023438 231.753906 L 166.132812 210.640625 L 179.335938 197.4375 L 179.054688 197.226562 Z M 130.6875 245.59375 "/><path style=" stroke:none;fill-rule:nonzero;fill:#3761ea;fill-opacity:1;" d="M 137.75 245.59375 L 80.488281 302.855469 L 80.839844 302.996094 L 183.855469 199.980469 L 183.503906 199.839844 L 179.972656 203.296875 Z M 137.75 245.59375 "/><path style=" stroke:none;fill-rule:nonzero;fill:#3761ea;fill-opacity:1;" d="M 144.8125 245.59375 L 95.457031 294.875 L 84.933594 305.398438 L 85.289062 305.609375 L 159.144531 231.753906 L 166.132812 224.691406 L 188.304688 202.589844 L 187.953125 202.378906 L 179.972656 210.359375 Z M 144.8125 245.59375 "/><path style=" stroke:none;fill-rule:nonzero;fill:#3761ea;fill-opacity:1;" d="M 151.800781 245.59375 L 95.457031 301.9375 L 89.453125 308.007812 L 89.738281 308.148438 L 166.132812 231.753906 L 191.835938 206.121094 L 191.835938 205.628906 L 179.972656 217.417969 Z M 151.800781 245.59375 "/><path style=" stroke:none;fill-rule:nonzero;fill:#3761ea;fill-opacity:1;" d="M 88.464844 245.59375 L 49.207031 284.777344 L 49.5625 284.992188 L 81.617188 252.863281 L 102.800781 231.753906 L 152.578125 181.972656 L 152.222656 181.761719 Z M 88.464844 245.59375 "/><path style=" stroke:none;fill-rule:nonzero;fill:#3761ea;fill-opacity:1;" d="M 81.617188 175.40625 L 103.433594 153.589844 L 103.152344 153.449219 L 95.457031 161.074219 L 28.378906 228.222656 L 28.378906 228.714844 Z M 81.617188 175.40625 "/><path style=" stroke:none;fill-rule:nonzero;fill:#3761ea;fill-opacity:1;" d="M 32.332031 231.753906 L 107.882812 156.203125 L 107.601562 155.992188 L 102.515625 161.074219 L 95.457031 168.136719 L 28.378906 235.210938 L 28.378906 235.707031 Z M 32.332031 231.753906 "/><path style=" stroke:none;fill-rule:nonzero;fill:#3761ea;fill-opacity:1;" d="M 39.394531 231.753906 L 81.617188 189.457031 L 112.402344 158.746094 L 112.046875 158.601562 L 109.578125 161.074219 L 95.457031 175.125 L 28.378906 242.273438 L 28.378906 242.765625 Z M 39.394531 231.753906 "/><path style=" stroke:none;fill-rule:nonzero;fill:#3761ea;fill-opacity:1;" d="M 46.382812 231.753906 L 81.617188 196.519531 L 116.851562 161.355469 L 116.496094 161.144531 L 95.457031 182.1875 L 32.050781 245.59375 L 28.378906 249.335938 L 28.378906 249.828125 Z M 46.382812 231.753906 "/><path style=" stroke:none;fill-rule:nonzero;fill:#3761ea;fill-opacity:1;" d="M 53.445312 231.753906 L 81.617188 203.582031 L 121.296875 163.898438 L 121.015625 163.757812 L 95.457031 189.246094 L 39.109375 245.59375 L 28.378906 256.394531 L 28.378906 256.890625 Z M 53.445312 231.753906 "/><path style=" stroke:none;fill-rule:nonzero;fill:#3761ea;fill-opacity:1;" d="M 60.503906 231.753906 L 125.746094 166.511719 L 125.464844 166.300781 L 28.378906 263.386719 L 28.378906 263.878906 Z M 60.503906 231.753906 "/><path style=" stroke:none;fill-rule:nonzero;fill:#3761ea;fill-opacity:1;" d="M 67.566406 231.753906 L 130.265625 169.054688 L 129.914062 168.910156 L 95.457031 203.296875 L 53.234375 245.59375 L 28.378906 270.445312 L 28.378906 270.941406 Z M 67.566406 231.753906 "/><path style=" stroke:none;fill-rule:nonzero;fill:#3761ea;fill-opacity:1;" d="M 74.625 231.753906 L 81.617188 224.691406 L 134.714844 171.664062 L 134.359375 171.453125 L 95.457031 210.359375 L 60.222656 245.59375 L 31.34375 274.46875 L 31.695312 274.683594 Z M 74.625 231.753906 "/><path style=" stroke:none;fill-rule:nonzero;fill:#3761ea;fill-opacity:1;" d="M 139.160156 174.207031 L 138.878906 174.066406 L 95.457031 217.417969 L 67.285156 245.59375 L 35.863281 277.082031 L 36.144531 277.222656 L 81.617188 231.753906 Z M 139.160156 174.207031 "/><path style=" stroke:none;fill-rule:nonzero;fill:#3761ea;fill-opacity:1;" d="M 88.675781 231.753906 L 143.609375 176.820312 L 143.328125 176.609375 L 40.3125 279.625 L 40.59375 279.835938 Z M 88.675781 231.753906 "/><path style=" stroke:none;fill-rule:nonzero;fill:#3761ea;fill-opacity:1;" d="M 165.921875 245.59375 L 98.351562 313.164062 L 98.703125 313.304688 L 191.835938 220.171875 L 191.835938 219.679688 Z M 165.921875 245.59375 "/><path style=" stroke:none;fill-rule:nonzero;fill:#3761ea;fill-opacity:1;" d="M 172.984375 245.59375 L 102.800781 315.707031 L 103.152344 315.917969 L 166.132812 252.863281 L 187.316406 231.753906 L 191.835938 227.234375 L 191.835938 226.738281 Z M 172.984375 245.59375 "/><path style=" stroke:none;fill-rule:nonzero;fill:#3761ea;fill-opacity:1;" d="M 165.921875 330.109375 L 151.941406 344.089844 L 152.296875 344.300781 L 180.253906 316.269531 L 191.835938 304.691406 L 191.835938 304.195312 Z M 165.921875 330.109375 "/><path style=" stroke:none;fill-rule:nonzero;fill:#3761ea;fill-opacity:1;" d="M 172.984375 330.109375 L 156.390625 346.703125 L 156.742188 346.84375 L 191.835938 311.75 L 191.835938 311.257812 Z M 172.984375 330.109375 "/><path style=" stroke:none;fill-rule:nonzero;fill:#3761ea;fill-opacity:1;" d="M 81.617188 168.347656 L 98.984375 151.046875 L 98.632812 150.835938 L 88.464844 161.074219 L 28.378906 221.160156 L 28.378906 221.65625 Z M 81.617188 168.347656 "/><path style=" stroke:none;fill-rule:nonzero;fill:#3761ea;fill-opacity:1;" d="M 49.5625 122.453125 L 28.378906 143.632812 L 28.378906 144.128906 L 49.84375 122.664062 Z M 49.5625 122.453125 "/><path style=" stroke:none;fill-rule:nonzero;fill:#3761ea;fill-opacity:1;" d="M 32.332031 147.234375 L 54.292969 125.207031 L 54.007812 125.066406 L 28.378906 150.695312 L 28.378906 151.1875 Z M 32.332031 147.234375 "/><path style=" stroke:none;fill-rule:nonzero;fill:#3761ea;fill-opacity:1;" d="M 39.394531 147.234375 L 58.808594 127.816406 L 58.457031 127.605469 L 28.378906 157.757812 L 28.378906 158.25 Z M 39.394531 147.234375 "/><path style=" stroke:none;fill-rule:nonzero;fill:#3761ea;fill-opacity:1;" d="M 46.382812 147.234375 L 63.257812 130.359375 L 62.90625 130.21875 L 32.050781 161.074219 L 28.378906 164.816406 L 28.378906 165.3125 Z M 46.382812 147.234375 "/><path style=" stroke:none;fill-rule:nonzero;fill:#3761ea;fill-opacity:1;" d="M 53.445312 147.234375 L 67.707031 132.972656 L 67.425781 132.761719 L 39.109375 161.074219 L 28.378906 171.808594 L 28.378906 172.371094 Z M 53.445312 147.234375 "/><path style=" stroke:none;fill-rule:nonzero;fill:#3761ea;fill-opacity:1;" d="M 60.503906 147.234375 L 72.15625 135.515625 L 71.871094 135.375 L 28.378906 178.867188 L 28.378906 179.363281 Z M 60.503906 147.234375 "/><path style=" stroke:none;fill-rule:nonzero;fill:#3761ea;fill-opacity:1;" d="M 67.566406 147.234375 L 76.675781 138.128906 L 76.320312 137.914062 L 53.234375 161.074219 L 28.378906 185.929688 L 28.378906 186.421875 Z M 67.566406 147.234375 "/><path style=" stroke:none;fill-rule:nonzero;fill:#3761ea;fill-opacity:1;" d="M 74.625 147.234375 L 81.121094 140.738281 L 80.769531 140.527344 L 60.222656 161.074219 L 28.378906 192.988281 L 28.378906 193.484375 Z M 74.625 147.234375 "/><path style=" stroke:none;fill-rule:nonzero;fill:#3761ea;fill-opacity:1;" d="M 85.570312 143.28125 L 85.289062 143.070312 L 67.285156 161.074219 L 28.378906 200.050781 L 28.378906 200.542969 L 81.617188 147.234375 Z M 85.570312 143.28125 "/><path style=" stroke:none;fill-rule:nonzero;fill:#3761ea;fill-opacity:1;" d="M 88.675781 147.234375 L 90.019531 145.894531 L 89.738281 145.683594 L 74.34375 161.074219 L 28.378906 207.039062 L 28.378906 207.535156 L 81.617188 154.296875 Z M 88.675781 147.234375 "/><path style=" stroke:none;fill-rule:nonzero;fill:#3761ea;fill-opacity:1;" d="M 45.042969 119.910156 L 28.378906 136.644531 L 28.378906 137.136719 L 45.394531 120.050781 Z M 45.042969 119.910156 "/><path style=" stroke:none;fill-rule:nonzero;fill:#3761ea;fill-opacity:1;" d="M 31.695312 112.144531 L 28.378906 115.460938 L 28.378906 115.957031 L 31.980469 112.355469 Z M 31.695312 112.144531 "/><path style=" stroke:none;fill-rule:nonzero;fill:#3761ea;fill-opacity:1;" d="M 36.144531 114.757812 L 28.378906 122.523438 L 28.378906 123.015625 L 36.429688 114.898438 Z M 36.144531 114.757812 "/><path style=" stroke:none;fill-rule:nonzero;fill:#3761ea;fill-opacity:1;" d="M 40.59375 117.296875 L 28.378906 129.582031 L 28.378906 130.078125 L 40.945312 117.507812 Z M 40.59375 117.296875 "/><path style=" stroke:none;fill-rule:nonzero;fill:#3761ea;fill-opacity:1;" d="M 179.972656 330.109375 L 160.910156 349.242188 L 161.191406 349.457031 L 166.132812 344.441406 L 191.835938 318.8125 L 191.835938 318.316406 Z M 179.972656 330.109375 "/><path style=" stroke:none;fill-rule:nonzero;fill:#3761ea;fill-opacity:1;" d="M 187.035156 330.109375 L 179.972656 337.171875 L 165.359375 351.855469 L 165.640625 351.996094 L 166.132812 351.503906 L 191.835938 325.871094 L 191.835938 325.378906 Z M 187.035156 330.109375 "/><path style=" stroke:none;fill-rule:nonzero;fill:#3761ea;fill-opacity:1;" d="M 169.804688 354.398438 L 170.160156 354.609375 L 191.835938 332.933594 L 191.835938 332.367188 Z M 169.804688 354.398438 "/><path style=" stroke:none;fill-rule:nonzero;fill:#3761ea;fill-opacity:1;" d="M 174.253906 357.011719 L 174.605469 357.152344 L 191.835938 339.921875 L 191.835938 339.429688 Z M 174.253906 357.011719 "/><path style=" stroke:none;fill-rule:nonzero;fill:#3761ea;fill-opacity:1;" d="M 178.773438 359.550781 L 179.054688 359.765625 L 191.835938 346.984375 L 191.835938 346.488281 L 179.972656 358.28125 Z M 178.773438 359.550781 "/><path style=" stroke:none;fill-rule:nonzero;fill:#3761ea;fill-opacity:1;" d="M 183.503906 362.304688 L 191.835938 354.046875 L 191.835938 353.550781 L 183.222656 362.164062 Z M 183.503906 362.304688 "/><path style=" stroke:none;fill-rule:nonzero;fill:#3761ea;fill-opacity:1;" d="M 188.023438 364.917969 L 191.835938 361.105469 L 191.835938 360.613281 L 187.667969 364.707031 Z M 188.023438 364.917969 "/><path style=" stroke:none;fill-rule:nonzero;fill:#3761ea;fill-opacity:1;" d="M 179.972656 245.59375 L 107.316406 318.316406 L 107.601562 318.457031 L 166.132812 259.925781 L 191.835938 234.292969 L 191.835938 233.800781 Z M 179.972656 245.59375 "/><path style=" stroke:none;fill-rule:nonzero;fill:#3761ea;fill-opacity:1;" d="M 187.035156 245.59375 L 179.972656 252.652344 L 111.765625 320.859375 L 112.046875 321.070312 L 116.851562 316.269531 L 166.132812 266.984375 L 191.835938 241.355469 L 191.835938 240.859375 Z M 187.035156 245.59375 "/><path style=" stroke:none;fill-rule:nonzero;fill:#3761ea;fill-opacity:1;" d="M 116.214844 323.472656 L 116.566406 323.683594 L 123.910156 316.269531 L 191.835938 248.34375 L 191.835938 247.851562 Z M 116.214844 323.472656 "/><path style=" stroke:none;fill-rule:nonzero;fill:#3761ea;fill-opacity:1;" d="M 120.664062 326.015625 L 121.015625 326.226562 L 130.972656 316.269531 L 166.132812 281.035156 L 191.835938 255.40625 L 191.835938 254.910156 L 179.972656 266.703125 Z M 120.664062 326.015625 "/><path style=" stroke:none;fill-rule:nonzero;fill:#3761ea;fill-opacity:1;" d="M 125.183594 328.625 L 125.464844 328.839844 L 137.960938 316.269531 L 166.132812 288.097656 L 191.835938 262.46875 L 191.835938 261.972656 L 179.972656 273.765625 Z M 125.183594 328.625 "/><path style=" stroke:none;fill-rule:nonzero;fill:#3761ea;fill-opacity:1;" d="M 130.6875 330.109375 L 129.628906 331.167969 L 129.914062 331.378906 L 166.132812 295.160156 L 191.835938 269.527344 L 191.835938 269.035156 L 179.972656 280.824219 Z M 130.6875 330.109375 "/><path style=" stroke:none;fill-rule:nonzero;fill:#3761ea;fill-opacity:1;" d="M 137.75 330.109375 L 134.078125 333.78125 L 134.429688 333.992188 L 152.082031 316.269531 L 166.132812 302.21875 L 191.835938 276.519531 L 191.835938 276.023438 Z M 137.75 330.109375 "/><path style=" stroke:none;fill-rule:nonzero;fill:#3761ea;fill-opacity:1;" d="M 144.8125 330.109375 L 138.527344 336.394531 L 138.878906 336.535156 L 159.144531 316.269531 L 166.132812 309.210938 L 191.835938 283.578125 L 191.835938 283.085938 L 179.972656 294.875 Z M 144.8125 330.109375 "/><path style=" stroke:none;fill-rule:nonzero;fill:#3761ea;fill-opacity:1;" d="M 151.800781 330.109375 L 143.046875 338.933594 L 143.328125 339.148438 L 166.132812 316.269531 L 191.835938 290.640625 L 191.835938 290.144531 L 179.972656 301.9375 Z M 151.800781 330.109375 "/><path style=" stroke:none;fill-rule:nonzero;fill:#3761ea;fill-opacity:1;" d="M 158.863281 330.109375 L 147.492188 341.546875 L 147.777344 341.6875 L 173.195312 316.269531 L 191.835938 297.699219 L 191.835938 297.207031 L 179.972656 308.996094 Z M 158.863281 330.109375 "/><path style=" stroke:none;fill-rule:nonzero;fill:#3761ea;fill-opacity:1;" d="M 95.738281 231.753906 L 148.128906 179.363281 L 147.777344 179.21875 L 81.40625 245.59375 L 44.757812 282.238281 L 45.113281 282.378906 Z M 95.738281 231.753906 "/><path style=" stroke:none;fill-rule:nonzero;fill:#3761ea;fill-opacity:1;" d="M 95.457031 245.59375 L 53.726562 287.390625 L 54.007812 287.53125 L 81.617188 259.925781 L 157.027344 184.515625 L 156.742188 184.375 Z M 95.457031 245.59375 "/><path style=" stroke:none;fill-rule:nonzero;fill:#3761ea;fill-opacity:1;" d="M 158.863281 245.59375 L 95.457031 308.996094 L 93.902344 310.550781 L 94.183594 310.761719 L 166.132812 238.8125 L 173.195312 231.753906 L 191.835938 213.183594 L 191.835938 212.6875 L 179.972656 224.480469 Z M 158.863281 245.59375 "/><path style=" stroke:none;fill-rule:nonzero;fill:#3761ea;fill-opacity:1;" d="M 94.183594 148.222656 L 81.40625 161.074219 L 28.378906 214.101562 L 28.378906 214.59375 L 94.539062 148.4375 Z M 94.183594 148.222656 "/><path style=" stroke:none;fill-rule:nonzero;fill:#3761ea;fill-opacity:1;" d="M 344.769531 177.457031 L 277.765625 216.148438 L 277.765625 177.457031 L 344.769531 138.761719 Z M 344.769531 177.457031 "/><path style=" stroke:none;fill-rule:nonzero;fill:#ffffff;fill-opacity:1;" d="M 132.101562 170.253906 L 131.535156 169.902344 L 131.535156 226.667969 L 124.617188 234.082031 L 117.132812 217.488281 L 109.648438 225.46875 L 102.164062 208.875 L 94.679688 216.855469 L 88.675781 203.582031 L 88.675781 145.117188 L 89.382812 145.539062 L 251.570312 51.84375 L 294.359375 76.558594 Z M 132.101562 170.253906 "/><g clip-rule="nonzero" clip-path="url(#14f7d19680)"><path style=" stroke:none;fill-rule:nonzero;fill:#3761ea;fill-opacity:1;" d="M 344.769531 263.386719 L 301.984375 288.097656 L 301.984375 263.386719 L 344.769531 238.671875 Z M 345.902344 178.160156 L 345.902344 136.785156 L 276.492188 176.820312 L 276.492188 218.195312 Z M 343.570312 140.808594 L 343.570312 176.820312 L 278.894531 214.171875 L 278.894531 178.160156 Z M 356.492188 110.941406 L 356.421875 273.410156 L 191.835938 368.449219 L 27.179688 273.410156 L 27.179688 109.601562 L 190.707031 15.199219 Z M 89.878906 147.234375 L 89.878906 203.296875 L 95.03125 214.734375 L 102.515625 206.757812 L 110 223.351562 L 117.484375 215.371094 L 124.96875 231.964844 L 130.335938 226.175781 L 130.335938 170.535156 Z M 132.171875 168.839844 L 292.027344 76.558594 L 251.570312 53.1875 L 91.785156 145.46875 Z M 30.777344 110.238281 L 89.453125 144.128906 L 249.308594 51.773438 L 190.636719 17.882812 Z M 190.636719 205.273438 L 132.667969 171.808594 L 132.667969 227.164062 L 124.191406 236.199219 L 116.707031 219.609375 L 109.222656 227.585938 L 101.738281 210.992188 L 94.253906 218.972656 L 87.476562 203.863281 L 87.476562 145.824219 L 29.507812 112.285156 L 29.507812 272.070312 L 190.636719 365.058594 Z M 191.835938 203.226562 L 351.761719 110.871094 L 294.5 77.828125 L 134.574219 170.183594 Z M 354.089844 112.285156 L 192.964844 205.34375 L 192.964844 365.058594 L 354.089844 272.070312 Z M 233.707031 312.667969 L 221.492188 297.488281 L 209.273438 326.789062 L 215.207031 323.332031 L 215.207031 335.050781 L 227.773438 327.851562 L 227.773438 316.199219 Z M 233.707031 312.667969 "/></g></g></svg>