<svg xmlns="http://www.w3.org/2000/svg" xmlns:xlink="http://www.w3.org/1999/xlink" width="512" zoomAndPan="magnify" viewBox="0 0 384 383.999986" height="512" preserveAspectRatio="xMidYMid meet" version="1.2"><defs><clipPath id="e053f8ca2b"><path d="M 62 52.5625 L 322 52.5625 L 322 331.5625 L 62 331.5625 Z M 62 52.5625 "/></clipPath></defs><g id="c8b8b5c242"><path style=" stroke:none;fill-rule:nonzero;fill:#37e3ea;fill-opacity:1;" d="M 321.035156 127.585938 L 321.035156 255.847656 L 191.996094 330.371094 L 62.957031 255.847656 L 62.957031 127.585938 L 63.511719 127.921875 L 191.492188 54.011719 L 319.976562 128.199219 Z M 321.035156 127.585938 "/><path style=" stroke:none;fill-rule:nonzero;fill:#3761ea;fill-opacity:1;" d="M 121.484375 234.441406 L 86.476562 269.449219 L 86.703125 269.613281 L 168.027344 188.289062 L 167.804688 188.121094 Z M 121.484375 234.441406 "/><path style=" stroke:none;fill-rule:nonzero;fill:#3761ea;fill-opacity:1;" d="M 127.058594 234.441406 L 89.988281 271.511719 L 90.269531 271.621094 L 171.59375 190.296875 L 171.316406 190.183594 Z M 127.058594 234.441406 "/><path style=" stroke:none;fill-rule:nonzero;fill:#3761ea;fill-opacity:1;" d="M 132.632812 234.441406 L 115.910156 251.109375 L 93.5 273.515625 L 93.78125 273.683594 L 104.984375 262.425781 L 143.945312 223.515625 L 171.707031 195.703125 L 175.105469 192.359375 L 174.828125 192.191406 Z M 132.632812 234.441406 "/><path style=" stroke:none;fill-rule:nonzero;fill:#3761ea;fill-opacity:1;" d="M 138.148438 234.441406 L 115.910156 256.683594 L 97.070312 275.578125 L 97.292969 275.691406 L 104.984375 268 L 149.464844 223.515625 L 171.707031 201.277344 L 178.617188 194.363281 L 178.394531 194.253906 Z M 138.148438 234.441406 "/><path style=" stroke:none;fill-rule:nonzero;fill:#3761ea;fill-opacity:1;" d="M 143.722656 234.441406 L 115.910156 262.257812 L 100.582031 277.585938 L 100.804688 277.753906 L 104.984375 273.574219 L 155.039062 223.515625 L 171.707031 206.851562 L 182.128906 196.425781 L 181.90625 196.261719 Z M 143.722656 234.441406 "/><path style=" stroke:none;fill-rule:nonzero;fill:#3761ea;fill-opacity:1;" d="M 149.296875 234.441406 L 115.910156 267.832031 L 104.09375 279.648438 L 104.371094 279.761719 L 104.984375 279.148438 L 160.613281 223.515625 L 171.707031 212.425781 L 185.695312 198.433594 L 185.417969 198.324219 L 182.632812 201.054688 Z M 149.296875 234.441406 "/><path style=" stroke:none;fill-rule:nonzero;fill:#3761ea;fill-opacity:1;" d="M 154.871094 234.441406 L 115.910156 273.351562 L 107.605469 281.65625 L 107.882812 281.824219 L 166.1875 223.515625 L 171.707031 217.945312 L 189.207031 200.496094 L 188.929688 200.328125 L 182.632812 206.628906 Z M 154.871094 234.441406 "/><path style=" stroke:none;fill-rule:nonzero;fill:#3761ea;fill-opacity:1;" d="M 160.390625 234.441406 L 115.910156 278.925781 L 111.171875 283.71875 L 111.394531 283.828125 L 171.707031 223.515625 L 191.996094 203.285156 L 191.996094 202.894531 L 182.632812 212.203125 Z M 160.390625 234.441406 "/><path style=" stroke:none;fill-rule:nonzero;fill:#3761ea;fill-opacity:1;" d="M 110.390625 234.441406 L 79.398438 265.378906 L 79.679688 265.546875 L 104.984375 240.183594 L 121.707031 223.515625 L 161.003906 184.21875 L 160.726562 184.054688 Z M 110.390625 234.441406 "/><path style=" stroke:none;fill-rule:nonzero;fill:#3761ea;fill-opacity:1;" d="M 104.984375 179.035156 L 122.207031 161.8125 L 121.984375 161.699219 L 115.910156 167.722656 L 62.957031 220.730469 L 62.957031 221.121094 Z M 104.984375 179.035156 "/><path style=" stroke:none;fill-rule:nonzero;fill:#3761ea;fill-opacity:1;" d="M 66.078125 223.515625 L 125.71875 163.875 L 125.496094 163.707031 L 121.484375 167.722656 L 62.957031 226.25 L 62.957031 226.640625 Z M 66.078125 223.515625 "/><path style=" stroke:none;fill-rule:nonzero;fill:#3761ea;fill-opacity:1;" d="M 71.652344 223.515625 L 104.984375 190.128906 L 129.289062 165.882812 L 129.007812 165.769531 L 127.058594 167.722656 L 115.910156 178.8125 L 62.957031 231.824219 L 62.957031 232.214844 Z M 71.652344 223.515625 "/><path style=" stroke:none;fill-rule:nonzero;fill:#3761ea;fill-opacity:1;" d="M 77.167969 223.515625 L 104.984375 195.703125 L 132.800781 167.945312 L 132.519531 167.777344 L 65.855469 234.441406 L 62.957031 237.398438 L 62.957031 237.789062 Z M 77.167969 223.515625 "/><path style=" stroke:none;fill-rule:nonzero;fill:#3761ea;fill-opacity:1;" d="M 82.742188 223.515625 L 104.984375 201.277344 L 136.3125 169.949219 L 136.085938 169.839844 L 115.910156 189.960938 L 71.429688 234.441406 L 62.957031 242.972656 L 62.957031 243.359375 Z M 82.742188 223.515625 "/><path style=" stroke:none;fill-rule:nonzero;fill:#3761ea;fill-opacity:1;" d="M 88.316406 223.515625 L 104.984375 206.851562 L 139.824219 172.011719 L 139.597656 171.847656 L 62.957031 248.488281 L 62.957031 248.878906 Z M 88.316406 223.515625 "/><path style=" stroke:none;fill-rule:nonzero;fill:#3761ea;fill-opacity:1;" d="M 93.890625 223.515625 L 104.984375 212.425781 L 143.390625 174.019531 L 143.109375 173.910156 L 115.910156 201.054688 L 82.578125 234.441406 L 62.957031 254.0625 L 62.957031 254.453125 Z M 93.890625 223.515625 "/><path style=" stroke:none;fill-rule:nonzero;fill:#3761ea;fill-opacity:1;" d="M 99.464844 223.515625 L 104.984375 217.945312 L 146.902344 176.082031 L 146.621094 175.914062 L 115.910156 206.628906 L 88.09375 234.441406 L 65.296875 257.242188 L 65.574219 257.40625 Z M 99.464844 223.515625 "/><path style=" stroke:none;fill-rule:nonzero;fill:#3761ea;fill-opacity:1;" d="M 150.414062 178.089844 L 150.191406 177.976562 L 115.910156 212.203125 L 93.667969 234.441406 L 68.863281 259.304688 L 69.085938 259.414062 L 104.984375 223.515625 Z M 150.414062 178.089844 "/><path style=" stroke:none;fill-rule:nonzero;fill:#3761ea;fill-opacity:1;" d="M 110.558594 223.515625 L 153.925781 180.152344 L 153.703125 179.984375 L 115.910156 217.777344 L 99.242188 234.441406 L 72.375 261.308594 L 72.597656 261.476562 Z M 110.558594 223.515625 "/><path style=" stroke:none;fill-rule:nonzero;fill:#3761ea;fill-opacity:1;" d="M 171.539062 234.441406 L 118.195312 287.785156 L 118.472656 287.898438 L 191.996094 214.375 L 191.996094 213.984375 Z M 171.539062 234.441406 "/><path style=" stroke:none;fill-rule:nonzero;fill:#3761ea;fill-opacity:1;" d="M 177.113281 234.441406 L 121.707031 289.792969 L 121.984375 289.960938 L 171.707031 240.183594 L 188.429688 223.515625 L 191.996094 219.949219 L 191.996094 219.558594 Z M 177.113281 234.441406 "/><path style=" stroke:none;fill-rule:nonzero;fill:#3761ea;fill-opacity:1;" d="M 171.539062 301.164062 L 160.503906 312.199219 L 160.78125 312.367188 L 182.855469 290.238281 L 191.996094 281.097656 L 191.996094 280.707031 Z M 171.539062 301.164062 "/><path style=" stroke:none;fill-rule:nonzero;fill:#3761ea;fill-opacity:1;" d="M 177.113281 301.164062 L 164.015625 314.261719 L 164.292969 314.375 L 191.996094 286.671875 L 191.996094 286.28125 Z M 177.113281 301.164062 "/><path style=" stroke:none;fill-rule:nonzero;fill:#3761ea;fill-opacity:1;" d="M 104.984375 173.460938 L 118.695312 159.804688 L 118.417969 159.636719 L 110.390625 167.722656 L 62.957031 215.15625 L 62.957031 215.546875 Z M 104.984375 173.460938 "/><path style=" stroke:none;fill-rule:nonzero;fill:#3761ea;fill-opacity:1;" d="M 79.679688 137.230469 L 62.957031 153.953125 L 62.957031 154.34375 L 79.902344 137.398438 Z M 79.679688 137.230469 "/><path style=" stroke:none;fill-rule:nonzero;fill:#3761ea;fill-opacity:1;" d="M 66.078125 156.796875 L 83.414062 139.40625 L 83.191406 139.292969 L 62.957031 159.527344 L 62.957031 159.917969 Z M 66.078125 156.796875 "/><path style=" stroke:none;fill-rule:nonzero;fill:#3761ea;fill-opacity:1;" d="M 71.652344 156.796875 L 86.980469 141.46875 L 86.703125 141.300781 L 62.957031 165.101562 L 62.957031 165.492188 Z M 71.652344 156.796875 "/><path style=" stroke:none;fill-rule:nonzero;fill:#3761ea;fill-opacity:1;" d="M 77.167969 156.796875 L 90.492188 143.472656 L 90.214844 143.363281 L 65.855469 167.722656 L 62.957031 170.675781 L 62.957031 171.066406 Z M 77.167969 156.796875 "/><path style=" stroke:none;fill-rule:nonzero;fill:#3761ea;fill-opacity:1;" d="M 82.742188 156.796875 L 94.003906 145.535156 L 93.78125 145.367188 L 71.429688 167.722656 L 62.957031 176.195312 L 62.957031 176.640625 Z M 82.742188 156.796875 "/><path style=" stroke:none;fill-rule:nonzero;fill:#3761ea;fill-opacity:1;" d="M 88.316406 156.796875 L 97.515625 147.542969 L 97.292969 147.429688 L 77.003906 167.722656 L 62.957031 181.769531 L 62.957031 182.15625 Z M 88.316406 156.796875 "/><path style=" stroke:none;fill-rule:nonzero;fill:#3761ea;fill-opacity:1;" d="M 93.890625 156.796875 L 101.082031 149.605469 L 100.804688 149.4375 L 82.578125 167.722656 L 62.957031 187.34375 L 62.957031 187.730469 Z M 93.890625 156.796875 "/><path style=" stroke:none;fill-rule:nonzero;fill:#3761ea;fill-opacity:1;" d="M 99.464844 156.796875 L 104.59375 151.667969 L 104.316406 151.5 L 88.09375 167.722656 L 62.957031 192.914062 L 62.957031 193.304688 Z M 99.464844 156.796875 "/><path style=" stroke:none;fill-rule:nonzero;fill:#3761ea;fill-opacity:1;" d="M 108.105469 153.675781 L 107.882812 153.507812 L 93.667969 167.722656 L 62.957031 198.488281 L 62.957031 198.878906 L 104.984375 156.796875 Z M 108.105469 153.675781 "/><path style=" stroke:none;fill-rule:nonzero;fill:#3761ea;fill-opacity:1;" d="M 110.558594 156.796875 L 111.617188 155.738281 L 111.394531 155.570312 L 62.957031 204.007812 L 62.957031 204.398438 Z M 110.558594 156.796875 "/><path style=" stroke:none;fill-rule:nonzero;fill:#3761ea;fill-opacity:1;" d="M 76.109375 135.222656 L 62.957031 148.433594 L 62.957031 148.824219 L 76.390625 135.335938 Z M 76.109375 135.222656 "/><path style=" stroke:none;fill-rule:nonzero;fill:#3761ea;fill-opacity:1;" d="M 65.574219 129.09375 L 62.957031 131.710938 L 62.957031 132.101562 L 65.796875 129.261719 Z M 65.574219 129.09375 "/><path style=" stroke:none;fill-rule:nonzero;fill:#3761ea;fill-opacity:1;" d="M 69.085938 131.15625 L 62.957031 137.285156 L 62.957031 137.675781 L 69.308594 131.265625 Z M 69.085938 131.15625 "/><path style=" stroke:none;fill-rule:nonzero;fill:#3761ea;fill-opacity:1;" d="M 72.597656 133.160156 L 62.957031 142.859375 L 62.957031 143.25 L 72.878906 133.328125 Z M 72.597656 133.160156 "/><path style=" stroke:none;fill-rule:nonzero;fill:#3761ea;fill-opacity:1;" d="M 182.632812 301.164062 L 167.582031 316.269531 L 167.804688 316.4375 L 171.707031 312.480469 L 191.996094 292.246094 L 191.996094 291.855469 Z M 182.632812 301.164062 "/><path style=" stroke:none;fill-rule:nonzero;fill:#3761ea;fill-opacity:1;" d="M 188.207031 301.164062 L 182.632812 306.738281 L 171.09375 318.332031 L 171.316406 318.445312 L 171.707031 318.054688 L 191.996094 297.820312 L 191.996094 297.429688 Z M 188.207031 301.164062 "/><path style=" stroke:none;fill-rule:nonzero;fill:#3761ea;fill-opacity:1;" d="M 174.605469 320.339844 L 174.882812 320.507812 L 191.996094 303.394531 L 191.996094 302.949219 Z M 174.605469 320.339844 "/><path style=" stroke:none;fill-rule:nonzero;fill:#3761ea;fill-opacity:1;" d="M 178.117188 322.402344 L 178.394531 322.511719 L 191.996094 308.914062 L 191.996094 308.523438 Z M 178.117188 322.402344 "/><path style=" stroke:none;fill-rule:nonzero;fill:#3761ea;fill-opacity:1;" d="M 181.683594 324.410156 L 181.90625 324.574219 L 191.996094 314.488281 L 191.996094 314.097656 L 182.632812 323.40625 Z M 181.683594 324.410156 "/><path style=" stroke:none;fill-rule:nonzero;fill:#3761ea;fill-opacity:1;" d="M 185.417969 326.582031 L 191.996094 320.0625 L 191.996094 319.671875 L 185.195312 326.472656 Z M 185.417969 326.582031 "/><path style=" stroke:none;fill-rule:nonzero;fill:#3761ea;fill-opacity:1;" d="M 188.984375 328.644531 L 191.996094 325.632812 L 191.996094 325.246094 L 188.707031 328.476562 Z M 188.984375 328.644531 "/><path style=" stroke:none;fill-rule:nonzero;fill:#3761ea;fill-opacity:1;" d="M 182.632812 234.441406 L 125.273438 291.855469 L 125.496094 291.96875 L 171.707031 245.757812 L 191.996094 225.523438 L 191.996094 225.132812 Z M 182.632812 234.441406 "/><path style=" stroke:none;fill-rule:nonzero;fill:#3761ea;fill-opacity:1;" d="M 188.207031 234.441406 L 128.785156 293.863281 L 129.007812 294.03125 L 171.707031 251.332031 L 191.996094 231.097656 L 191.996094 230.707031 Z M 188.207031 234.441406 "/><path style=" stroke:none;fill-rule:nonzero;fill:#3761ea;fill-opacity:1;" d="M 132.296875 295.925781 L 132.574219 296.09375 L 138.375 290.238281 L 191.996094 236.617188 L 191.996094 236.226562 Z M 132.296875 295.925781 "/><path style=" stroke:none;fill-rule:nonzero;fill:#3761ea;fill-opacity:1;" d="M 135.808594 297.929688 L 136.085938 298.097656 L 143.945312 290.238281 L 171.707031 262.425781 L 191.996094 242.191406 L 191.996094 241.800781 L 182.632812 251.109375 Z M 135.808594 297.929688 "/><path style=" stroke:none;fill-rule:nonzero;fill:#3761ea;fill-opacity:1;" d="M 139.375 299.992188 L 139.597656 300.160156 L 149.464844 290.238281 L 171.707031 268 L 191.996094 247.765625 L 191.996094 247.375 L 182.632812 256.683594 Z M 139.375 299.992188 "/><path style=" stroke:none;fill-rule:nonzero;fill:#3761ea;fill-opacity:1;" d="M 143.722656 301.164062 L 142.886719 302 L 143.109375 302.167969 L 155.039062 290.238281 L 171.707031 273.574219 L 191.996094 253.339844 L 191.996094 252.949219 L 182.632812 262.257812 Z M 143.722656 301.164062 "/><path style=" stroke:none;fill-rule:nonzero;fill:#3761ea;fill-opacity:1;" d="M 149.296875 301.164062 L 146.398438 304.0625 L 146.679688 304.230469 L 160.613281 290.238281 L 171.707031 279.148438 L 191.996094 258.855469 L 191.996094 258.46875 L 182.632812 267.832031 Z M 149.296875 301.164062 "/><path style=" stroke:none;fill-rule:nonzero;fill:#3761ea;fill-opacity:1;" d="M 154.871094 301.164062 L 149.910156 306.125 L 150.191406 306.238281 L 166.1875 290.238281 L 171.707031 284.664062 L 191.996094 264.429688 L 191.996094 264.042969 L 182.632812 273.351562 Z M 154.871094 301.164062 "/><path style=" stroke:none;fill-rule:nonzero;fill:#3761ea;fill-opacity:1;" d="M 160.390625 301.164062 L 153.480469 308.132812 L 153.703125 308.300781 L 171.707031 290.238281 L 191.996094 270.003906 L 191.996094 269.613281 L 182.632812 278.925781 Z M 160.390625 301.164062 "/><path style=" stroke:none;fill-rule:nonzero;fill:#3761ea;fill-opacity:1;" d="M 165.964844 301.164062 L 156.992188 310.195312 L 157.214844 310.304688 L 177.28125 290.238281 L 191.996094 275.578125 L 191.996094 275.1875 L 182.632812 284.496094 Z M 165.964844 301.164062 "/><path style=" stroke:none;fill-rule:nonzero;fill:#3761ea;fill-opacity:1;" d="M 116.132812 223.515625 L 157.492188 182.15625 L 157.214844 182.046875 L 104.816406 234.441406 L 75.886719 263.371094 L 76.167969 263.484375 Z M 116.132812 223.515625 "/><path style=" stroke:none;fill-rule:nonzero;fill:#3761ea;fill-opacity:1;" d="M 115.910156 234.441406 L 82.96875 267.441406 L 83.191406 267.554688 L 104.984375 245.757812 L 164.515625 186.226562 L 164.292969 186.117188 Z M 115.910156 234.441406 "/><path style=" stroke:none;fill-rule:nonzero;fill:#3761ea;fill-opacity:1;" d="M 165.964844 234.441406 L 114.683594 285.722656 L 114.90625 285.890625 L 177.28125 223.515625 L 191.996094 208.859375 L 191.996094 208.46875 L 182.632812 217.777344 Z M 165.964844 234.441406 "/><path style=" stroke:none;fill-rule:nonzero;fill:#3761ea;fill-opacity:1;" d="M 114.90625 157.578125 L 104.816406 167.722656 L 62.957031 209.582031 L 62.957031 209.972656 L 115.183594 157.742188 Z M 114.90625 157.578125 "/><path style=" stroke:none;fill-rule:nonzero;fill:#3761ea;fill-opacity:1;" d="M 312.730469 180.652344 L 259.832031 211.199219 L 259.832031 180.652344 L 312.730469 150.105469 Z M 312.730469 180.652344 "/><path style=" stroke:none;fill-rule:nonzero;fill:#ffffff;fill-opacity:1;" d="M 144.839844 174.96875 L 144.394531 174.6875 L 144.394531 219.503906 L 138.929688 225.355469 L 133.023438 212.257812 L 127.113281 218.554688 L 121.203125 205.457031 L 115.296875 211.757812 L 110.558594 201.277344 L 110.558594 155.125 L 111.117188 155.457031 L 239.152344 81.488281 L 272.929688 101 Z M 144.839844 174.96875 "/><g clip-rule="nonzero" clip-path="url(#e053f8ca2b)"><path style=" stroke:none;fill-rule:nonzero;fill:#3761ea;fill-opacity:1;" d="M 312.730469 248.488281 L 278.953125 268 L 278.953125 248.488281 L 312.730469 228.980469 Z M 313.621094 181.210938 L 313.621094 148.546875 L 258.828125 180.152344 L 258.828125 212.816406 Z M 311.78125 151.722656 L 311.78125 180.152344 L 260.722656 209.636719 L 260.722656 181.210938 Z M 321.984375 128.144531 L 321.925781 256.40625 L 191.996094 331.433594 L 62.007812 256.40625 L 62.007812 127.085938 L 191.105469 52.5625 Z M 111.507812 156.796875 L 111.507812 201.054688 L 115.574219 210.085938 L 121.484375 203.785156 L 127.390625 216.882812 L 133.300781 210.585938 L 139.210938 223.683594 L 143.445312 219.113281 L 143.445312 175.191406 Z M 144.894531 173.851562 L 271.09375 101 L 239.152344 82.550781 L 113.011719 155.402344 Z M 64.851562 127.585938 L 111.171875 154.34375 L 237.367188 81.433594 L 191.046875 54.679688 Z M 191.046875 202.613281 L 145.285156 176.195312 L 145.285156 219.894531 L 138.597656 227.027344 L 132.6875 213.929688 L 126.777344 220.230469 L 120.871094 207.128906 L 114.960938 213.429688 L 109.609375 201.5 L 109.609375 155.679688 L 63.847656 129.203125 L 63.847656 255.34375 L 191.046875 328.757812 Z M 191.996094 201 L 318.25 128.089844 L 273.042969 102.003906 L 146.789062 174.910156 Z M 320.089844 129.203125 L 192.886719 202.671875 L 192.886719 328.757812 L 320.089844 255.34375 Z M 225.050781 287.398438 L 215.40625 275.414062 L 205.765625 298.542969 L 210.445312 295.8125 L 210.445312 305.066406 L 220.367188 299.378906 L 220.367188 290.183594 Z M 225.050781 287.398438 "/></g></g></svg>