<svg width="24" height="24" viewBox="0 0 24 24" fill="none" xmlns="http://www.w3.org/2000/svg">
<path d="M4.00828 19.6432C0.486922 16.8573 2.79823 13.0523 5.04469 10.8495C5.60164 10.3034 6.44232 10.2318 7.11447 10.6276C7.36578 10.7756 7.63995 10.9392 7.92514 11.1109C9.27099 11.9211 11.3015 10.961 12.0539 9.58197C12.5072 8.75121 13.1373 7.86269 14 7C17 4 19 10 20.5 13.5C21.5015 15.8368 20.4831 18.104 19.5374 19.3714C19.2202 19.7966 18.702 20 18.1716 20H5.10581C4.71096 20 4.31794 19.8882 4.00828 19.6432Z" fill="#48B6F0"/>
<path d="M10 6C10 7.65685 8.65685 9 7 9C5.34315 9 4 7.65685 4 6C4 4.34315 5.34315 3 7 3C8.65685 3 10 4.34315 10 6Z" fill="#48B6F0"/>
</svg>
