<svg xmlns="http://www.w3.org/2000/svg" width="14.807" height="14.807" viewBox="0 0 14.807 14.807">
  <g id="vuesax_outline_receive-square" data-name="vuesax/outline/receive-square" transform="translate(14.807 14.807) rotate(180)">
    <g id="receive-square">
      <path id="Vector" d="M8.483,13.264h-3.7C1.431,13.264,0,11.833,0,8.483v-3.7C0,1.431,1.431,0,4.781,0h3.7c3.35,0,4.781,1.431,4.781,4.781v3.7C13.264,11.833,11.833,13.264,8.483,13.264ZM4.781.925C1.937.925.925,1.937.925,4.781v3.7c0,2.844,1.012,3.856,3.856,3.856h3.7c2.844,0,3.856-1.012,3.856-3.856v-3.7c0-2.844-1.012-3.856-3.856-3.856Z" transform="translate(0.771 0.771)" fill="#fff"/>
      <path id="Vector-2" data-name="Vector" d="M2.312,2.775a.458.458,0,0,1-.327-.136L.134.788A.462.462,0,0,1,.788.134L2.312,1.658,3.836.134A.462.462,0,1,1,4.49.788L2.639,2.639A.458.458,0,0,1,2.312,2.775Z" transform="translate(5.091 6.64)" fill="#fff"/>
      <path id="Vector-3" data-name="Vector" d="M.463,5.861A.466.466,0,0,1,0,5.4V.463A.466.466,0,0,1,.463,0,.466.466,0,0,1,.925.463V5.4A.462.462,0,0,1,.463,5.861Z" transform="translate(6.941 3.554)" fill="#fff"/>
      <path id="Vector-4" data-name="Vector" d="M4.163,1.525A12.209,12.209,0,0,1,.314.9.465.465,0,0,1,.024.316.457.457,0,0,1,.61.026a11.311,11.311,0,0,0,7.113,0,.462.462,0,1,1,.3.876A12.1,12.1,0,0,1,4.163,1.525Z" transform="translate(3.24 9.722)" fill="#fff"/>
      <path id="Vector-5" data-name="Vector" d="M0,0H14.807V14.807H0Z" fill="none" opacity="0"/>
    </g>
  </g>
</svg>
