<svg width="24" height="24" viewBox="0 0 24 24" fill="none" xmlns="http://www.w3.org/2000/svg">
<path fill-rule="evenodd" clip-rule="evenodd" d="M6.25 8C5.65326 8 5.08097 8.23705 4.65901 8.65901C4.23705 9.08096 4 9.65326 4 10.25V11.464C4 11.887 4.277 12.252 4.633 12.483C5.05264 12.7553 5.39753 13.1282 5.63628 13.5678C5.87503 14.0074 6.00007 14.4997 6 15C6 16.055 5.456 16.982 4.633 17.517C4.277 17.748 4 18.113 4 18.537V19.75C4 20.3467 4.23705 20.919 4.65901 21.341C5.08097 21.7629 5.65326 22 6.25 22H17.75C18.3467 22 18.919 21.7629 19.341 21.341C19.7629 20.919 20 20.3467 20 19.75V18.537C20 18.113 19.723 17.748 19.367 17.517C18.9474 17.2447 18.6025 16.8718 18.3637 16.4322C18.125 15.9926 17.9999 15.5002 18 15C17.9999 14.4997 18.125 14.0074 18.3637 13.5678C18.6025 13.1282 18.9474 12.7553 19.367 12.483C19.723 12.252 20 11.887 20 11.463V10.25C20 9.65326 19.7629 9.08096 19.341 8.65901C18.919 8.23705 18.3467 8 17.75 8H6.25ZM8.5 12.396C8.5 12.1971 8.57902 12.0063 8.71967 11.8657C8.86032 11.725 9.05109 11.646 9.25 11.646C9.44891 11.646 9.63968 11.725 9.78033 11.8657C9.92098 12.0063 10 12.1971 10 12.396V13.438C10 13.6369 9.92098 13.8277 9.78033 13.9683C9.63968 14.109 9.44891 14.188 9.25 14.188C9.05109 14.188 8.86032 14.109 8.71967 13.9683C8.57902 13.8277 8.5 13.6369 8.5 13.438V12.396ZM8.5 16.563C8.5 16.3641 8.57902 16.1733 8.71967 16.0327C8.86032 15.892 9.05109 15.813 9.25 15.813C9.44891 15.813 9.63968 15.892 9.78033 16.0327C9.92098 16.1733 10 16.3641 10 16.563V17.604C10 17.8029 9.92098 17.9937 9.78033 18.1343C9.63968 18.275 9.44891 18.354 9.25 18.354C9.05109 18.354 8.86032 18.275 8.71967 18.1343C8.57902 17.9937 8.5 17.8029 8.5 17.604V16.563Z" fill="#37E3EA"/>
<path d="M11.4142 6.5H16C16.7136 6.5 17.1975 5.77407 16.9231 5.11538L15.5743 1.87835C15.3006 1.22132 14.4474 1.05256 13.9441 1.55586L10.7071 4.79289C10.0771 5.42285 10.5233 6.5 11.4142 6.5Z" fill="#3761EA"/>
</svg>
