<svg width="18" height="18" viewBox="0 0 18 18" fill="none" xmlns="http://www.w3.org/2000/svg">
<path d="M8.49996 0.25C7.17582 0.250086 5.87116 0.568892 4.69621 1.17948C3.52126 1.79007 2.51054 2.67451 1.74946 3.75805C0.98837 4.8416 0.499277 6.09242 0.323502 7.40484C0.147728 8.71725 0.290437 10.0527 0.739572 11.2983C1.18871 12.544 1.93107 13.6632 2.90394 14.5614C3.87681 15.4597 5.05159 16.1106 6.32904 16.4591C7.60648 16.8076 8.94905 16.8435 10.2433 16.5638C11.5375 16.2841 12.7455 15.697 13.765 14.852L16.443 17.53C16.5851 17.6625 16.7732 17.7346 16.9675 17.7312C17.1618 17.7277 17.3472 17.649 17.4846 17.5116C17.622 17.3742 17.7007 17.1888 17.7041 16.9945C17.7076 16.8002 17.6354 16.6122 17.503 16.47L14.828 13.794C15.8351 12.5903 16.478 11.1242 16.6811 9.56796C16.8843 8.01169 16.6393 6.42975 15.975 5.00781C15.3106 3.58587 14.2545 2.38294 12.9304 1.54021C11.6064 0.697466 10.0694 0.249887 8.49996 0.25Z" fill="white"/>
</svg>
