<svg width="28" height="28" viewBox="0 0 28 28" fill="none" xmlns="http://www.w3.org/2000/svg">
<path d="M3.04398 8.98194L6.67899 19.9227C9.13867 27.2771 13.1493 27.2771 15.5969 19.9227L16.6752 16.6756L19.9225 15.5973C27.2773 13.1498 27.2773 9.12733 19.9225 6.6799L8.99327 3.03299C4.08602 1.40944 1.40823 4.07496 3.04398 8.98194ZM9.56276 8.59422L14.1913 13.1983C14.3731 13.38 14.4579 13.6102 14.4579 13.8404C14.4579 14.0706 14.3731 14.3009 14.1913 14.4826C13.8399 14.834 13.2583 14.834 12.907 14.4826L8.27839 9.87852C7.92701 9.52715 7.92701 8.94559 8.27839 8.59422C8.62977 8.24286 9.21137 8.24286 9.56276 8.59422Z" fill="#009FE3"/>
</svg>
