<svg width="24" height="24" viewBox="0 0 24 24" fill="none" xmlns="http://www.w3.org/2000/svg">
<rect width="24" height="24" rx="8" fill="#B4B4B4"/>
<path d="M12.0002 6.93331C12.2124 6.93331 12.4159 6.84903 12.5659 6.699C12.7159 6.54897 12.8002 6.34549 12.8002 6.13331C12.8002 5.92114 12.7159 5.71766 12.5659 5.56763C12.4159 5.4176 12.2124 5.33331 12.0002 5.33331C11.788 5.33331 11.5845 5.4176 11.4345 5.56763C11.2845 5.71766 11.2002 5.92114 11.2002 6.13331C11.2002 6.34549 11.2845 6.54897 11.4345 6.699C11.5845 6.84903 11.788 6.93331 12.0002 6.93331ZM12.0002 12.8C12.2124 12.8 12.4159 12.7157 12.5659 12.5657C12.7159 12.4156 12.8002 12.2122 12.8002 12C12.8002 11.7878 12.7159 11.5843 12.5659 11.4343C12.4159 11.2843 12.2124 11.2 12.0002 11.2C11.788 11.2 11.5845 11.2843 11.4345 11.4343C11.2845 11.5843 11.2002 11.7878 11.2002 12C11.2002 12.2122 11.2845 12.4156 11.4345 12.5657C11.5845 12.7157 11.788 12.8 12.0002 12.8ZM12.0002 18.6666C12.2124 18.6666 12.4159 18.5824 12.5659 18.4323C12.7159 18.2823 12.8002 18.0788 12.8002 17.8666C12.8002 17.6545 12.7159 17.451 12.5659 17.301C12.4159 17.1509 12.2124 17.0666 12.0002 17.0666C11.788 17.0666 11.5845 17.1509 11.4345 17.301C11.2845 17.451 11.2002 17.6545 11.2002 17.8666C11.2002 18.0788 11.2845 18.2823 11.4345 18.4323C11.5845 18.5824 11.788 18.6666 12.0002 18.6666Z" stroke="white" stroke-width="1.5" stroke-linecap="round" stroke-linejoin="round"/>
</svg>
