<svg width="40" height="41" viewBox="0 0 40 41" fill="none" xmlns="http://www.w3.org/2000/svg">
<rect x="0.5" y="0.5" width="39" height="39" rx="5.5" stroke="#48B6F0"/>
<path d="M20.26 15.02C20.8594 15.02 21.4342 14.7819 21.8581 14.3581C22.2819 13.9342 22.52 13.3594 22.52 12.76C22.52 12.1606 22.2819 11.5858 21.8581 11.1619C21.4342 10.7381 20.8594 10.5 20.26 10.5C19.6606 10.5 19.0858 10.7381 18.6619 11.1619C18.2381 11.5858 18 12.1606 18 12.76C18 13.3594 18.2381 13.9342 18.6619 14.3581C19.0858 14.7819 19.6606 15.02 20.26 15.02Z" fill="#48B6F0"/>
<path d="M20.26 22.54C20.8594 22.54 21.4342 22.3019 21.8581 21.8781C22.2819 21.4542 22.52 20.8794 22.52 20.28C22.52 19.6806 22.2819 19.1058 21.8581 18.6819C21.4342 18.2581 20.8594 18.02 20.26 18.02C19.6606 18.02 19.0858 18.2581 18.6619 18.6819C18.2381 19.1058 18 19.6806 18 20.28C18 20.8794 18.2381 21.4542 18.6619 21.8781C19.0858 22.3019 19.6606 22.54 20.26 22.54Z" fill="#48B6F0"/>
<path d="M20.26 30.06C20.8594 30.06 21.4342 29.8219 21.8581 29.3981C22.2819 28.9742 22.52 28.3994 22.52 27.8C22.52 27.2006 22.2819 26.6258 21.8581 26.2019C21.4342 25.7781 20.8594 25.54 20.26 25.54C19.6606 25.54 19.0858 25.7781 18.6619 26.2019C18.2381 26.6258 18 27.2006 18 27.8C18 28.3994 18.2381 28.9742 18.6619 29.3981C19.0858 29.8219 19.6606 30.06 20.26 30.06Z" fill="#48B6F0"/>
</svg>
