<svg width="28" height="28" viewBox="0 0 28 28" fill="none" xmlns="http://www.w3.org/2000/svg">
<rect width="28" height="28" rx="8" fill="#FAFAFA" fill-opacity="0.2"/>
<path d="M20.6398 17.9847C20.6389 18.3541 20.5613 18.7192 20.4118 19.057C20.2624 19.3948 20.0444 19.6979 19.7717 19.947C19.499 20.1961 19.1774 20.3859 18.8275 20.5042C18.4776 20.6226 18.1069 20.6669 17.739 20.6345C17.371 20.602 17.0138 20.4935 16.69 20.3158C16.3662 20.138 16.0829 19.895 15.858 19.602C15.633 19.309 15.4714 18.9724 15.3834 18.6137C15.2953 18.255 15.2828 17.8819 15.3465 17.518L12.0798 16.038C11.8302 16.3477 11.5145 16.5977 11.1557 16.7696C10.797 16.9415 10.4043 17.0309 10.0065 17.0313C9.29927 17.0313 8.62099 16.7504 8.12089 16.2503C7.6208 15.7502 7.33984 15.0719 7.33984 14.3647C7.33984 13.6574 7.6208 12.9792 8.12089 12.4791C8.62099 11.979 9.29927 11.698 10.0065 11.698C10.3722 11.6992 10.7337 11.7756 11.0685 11.9224C11.4034 12.0691 11.7045 12.2832 11.9532 12.5513L15.3932 10.6847C15.3332 10.4676 15.304 10.2432 15.3065 10.018C15.3058 9.39759 15.5215 8.79634 15.9164 8.31781C16.3113 7.83927 16.8606 7.5134 17.4699 7.39631C18.0792 7.27922 18.7102 7.37824 19.2544 7.67632C19.7985 7.9744 20.2216 8.45288 20.451 9.02936C20.6803 9.60585 20.7015 10.2443 20.5108 10.8347C20.3201 11.425 19.9295 11.9305 19.4063 12.2639C18.8831 12.5973 18.26 12.7379 17.6443 12.6614C17.0286 12.5848 16.4589 12.296 16.0332 11.8447L12.5932 13.718C12.6532 13.9362 12.6821 14.1585 12.6798 14.3847C12.6802 14.5411 12.6668 14.6973 12.6398 14.8513L15.9065 16.3313C16.252 15.8972 16.7243 15.5815 17.2576 15.4285C17.7909 15.2754 18.3587 15.2925 18.8819 15.4774C19.405 15.6623 19.8575 16.0058 20.1762 16.46C20.4949 16.9142 20.6639 17.4565 20.6598 18.0113L20.6398 17.9847Z" fill="white"/>
</svg>
