<svg width="20" height="20" viewBox="0 0 20 20" fill="none" xmlns="http://www.w3.org/2000/svg">
<path d="M9.5 3C8.16 3 7.0725 4.075 7.01875 5.4025C5.89817 5.88106 4.94326 6.67888 4.27307 7.69651C3.60288 8.71413 3.24707 9.90652 3.25 11.125C3.25 11.2312 3.245 11.35 3.25 11.4769C2.50938 11.9119 2 12.7094 2 13.625C2 14.9981 3.12687 16.125 4.5 16.125C4.85938 16.125 5.20625 16.0487 5.51562 15.91C6.59875 16.82 8.01125 17.375 9.5 17.375C10.9888 17.375 12.4012 16.82 13.4844 15.91C13.8041 16.0519 14.1501 16.1252 14.5 16.125C15.8731 16.125 17 14.9981 17 13.625C17 12.7 16.4844 11.8894 15.7312 11.4563C15.7406 11.3562 15.75 11.2563 15.75 11.125C15.7529 9.90652 15.3971 8.71413 14.7269 7.69651C14.0567 6.67888 13.1018 5.88106 11.9812 5.4025C11.9269 4.075 10.8394 3 9.5 3ZM9.5 4.25C10.1975 4.25 10.75 4.8025 10.75 5.5C10.75 6.1975 10.1975 6.75 9.5 6.75C8.8025 6.75 8.25 6.1975 8.25 5.5C8.25 4.8025 8.8025 4.25 9.5 4.25ZM7.29375 6.6525C7.7125 7.44875 8.54375 8 9.5 8C10.4563 8 11.2875 7.44875 11.7063 6.6525C12.5452 7.06011 13.2522 7.6959 13.7464 8.48695C14.2405 9.27801 14.5017 10.1923 14.5 11.125C13.1269 11.125 12 12.2519 12 13.625C12 14.1844 12.1938 14.6912 12.5081 15.1094C11.6407 15.7625 10.5858 16.1187 9.5 16.125C8.41418 16.1187 7.35932 15.7625 6.49188 15.1094C6.81897 14.6834 6.99745 14.162 7 13.625C7 12.2519 5.87313 11.125 4.5 11.125C4.5 9.175 5.61875 7.465 7.29375 6.6525ZM4.5 12.375C5.1975 12.375 5.75 12.9275 5.75 13.625C5.75 14.3225 5.1975 14.875 4.5 14.875C3.8025 14.875 3.25 14.3225 3.25 13.625C3.25 12.9275 3.8025 12.375 4.5 12.375ZM14.5 12.375C15.1975 12.375 15.75 12.9275 15.75 13.625C15.75 14.3225 15.1975 14.875 14.5 14.875C13.8025 14.875 13.25 14.3225 13.25 13.625C13.25 12.9275 13.8025 12.375 14.5 12.375Z" fill="#B4B4B4"/>
<path d="M9.5 4.25C10.1975 4.25 10.75 4.8025 10.75 5.5C10.75 6.1975 10.1975 6.75 9.5 6.75C8.8025 6.75 8.25 6.1975 8.25 5.5C8.25 4.8025 8.8025 4.25 9.5 4.25Z" fill="#B4B4B4"/>
<path d="M4.5 12.375C5.1975 12.375 5.75 12.9275 5.75 13.625C5.75 14.3225 5.1975 14.875 4.5 14.875C3.8025 14.875 3.25 14.3225 3.25 13.625C3.25 12.9275 3.8025 12.375 4.5 12.375Z" fill="#B4B4B4"/>
<path d="M14.5 12.375C15.1975 12.375 15.75 12.9275 15.75 13.625C15.75 14.3225 15.1975 14.875 14.5 14.875C13.8025 14.875 13.25 14.3225 13.25 13.625C13.25 12.9275 13.8025 12.375 14.5 12.375Z" fill="#B4B4B4"/>
</svg>
