<svg width="40" height="40" viewBox="0 0 40 40" fill="none" xmlns="http://www.w3.org/2000/svg">
<rect width="40" height="40" rx="8" fill="#EFF2FD"/>
<path d="M31.7055 27.2241C31.7039 27.8475 31.5729 28.4637 31.3207 29.0337C31.0685 29.6037 30.7007 30.1152 30.2404 30.5356C29.7802 30.9559 29.2377 31.2761 28.6472 31.4758C28.0567 31.6756 27.4312 31.7504 26.8103 31.6957C26.1894 31.6409 25.5866 31.4578 25.0402 31.1579C24.4938 30.8579 24.0156 30.4477 23.636 29.9533C23.2565 29.4589 22.9837 28.891 22.8352 28.2856C22.6866 27.6802 22.6654 27.0506 22.773 26.4366L17.2605 23.9391C16.8392 24.4618 16.3064 24.8836 15.701 25.1737C15.0956 25.4637 14.433 25.6146 13.7617 25.6154C12.5682 25.6154 11.4237 25.1413 10.5797 24.2974C9.73582 23.4535 9.26172 22.3089 9.26172 21.1154C9.26172 19.9219 9.73582 18.7773 10.5797 17.9334C11.4237 17.0895 12.5682 16.6154 13.7617 16.6154C14.3787 16.6174 14.9888 16.7462 15.5539 16.994C16.119 17.2417 16.6271 17.603 17.0467 18.0554L22.8517 14.9054C22.7504 14.5391 22.7012 14.1604 22.7055 13.7804C22.7043 12.7334 23.0682 11.7188 23.7346 10.9113C24.401 10.1038 25.3281 9.55385 26.3562 9.35626C27.3844 9.15867 28.4492 9.32577 29.3675 9.82878C30.2857 10.3318 30.9998 11.1392 31.3868 12.112C31.7738 13.0849 31.8094 14.1622 31.4877 15.1585C31.1659 16.1548 30.5068 17.0077 29.6238 17.5703C28.7409 18.133 27.6894 18.3702 26.6505 18.241C25.6115 18.1119 24.6501 17.6246 23.9317 16.8629L18.1267 20.0241C18.228 20.3924 18.2767 20.7674 18.273 21.1491C18.2736 21.4131 18.251 21.6766 18.2055 21.9366L23.718 24.4341C24.3009 23.7014 25.098 23.1688 25.9979 22.9105C26.8979 22.6522 27.8561 22.6811 28.7389 22.9931C29.6217 23.3051 30.3852 23.8848 30.923 24.6512C31.4608 25.4177 31.7461 26.3328 31.7392 27.2691L31.7055 27.2241Z" fill="#3761EA"/>
</svg>
