<svg width="24" height="24" viewBox="0 0 24 24" fill="none" xmlns="http://www.w3.org/2000/svg">
<path fill-rule="evenodd" clip-rule="evenodd" d="M22.205 14.54V9.41001C22.183 9.03501 22.062 8.67301 21.855 8.36001C21.699 8.11223 21.4927 7.89998 21.2494 7.73702C21.0062 7.57407 20.7314 7.46404 20.4429 7.41407C20.1544 7.3641 19.8586 7.37531 19.5747 7.44696C19.2909 7.51862 19.0252 7.64912 18.795 7.83001L16.265 9.83001V8.93002C16.275 8.35702 16.165 7.78901 15.945 7.26001C15.5029 6.1946 14.6585 5.34656 13.595 4.90001C13.0651 4.68235 12.4978 4.57026 11.925 4.57001H6.13496C5.56523 4.56896 5.00097 4.68113 4.47496 4.90001C3.41144 5.34656 2.56699 6.1946 2.12496 7.26001C1.90608 7.78602 1.79391 8.35028 1.79496 8.92001V15.09C1.79246 15.6604 1.90346 16.2256 2.12149 16.7526C2.33953 17.2797 2.66024 17.7581 3.06496 18.16C3.88119 18.971 4.98434 19.4274 6.13496 19.43H12.045C13.196 19.43 14.2999 18.9728 15.1138 18.1589C15.9277 17.345 16.385 16.2411 16.385 15.09V14.18L18.915 16.18C19.204 16.41 19.5492 16.5585 19.915 16.61H20.165C20.4772 16.6112 20.7855 16.5393 21.065 16.4C21.417 16.2274 21.7146 15.9609 21.925 15.63C22.118 15.3 22.215 14.922 22.205 14.54ZM9.5 12C10.3284 12 11 11.3284 11 10.5C11 9.67157 10.3284 9 9.5 9C8.67157 9 8 9.67157 8 10.5C8 11.3284 8.67157 12 9.5 12Z" fill="white"/>
</svg>
