<svg width="24" height="24" viewBox="0 0 24 24" fill="none" xmlns="http://www.w3.org/2000/svg">
<path fill-rule="evenodd" clip-rule="evenodd" d="M22.1454 14.4746V9.34461C22.1234 8.96961 22.0024 8.60761 21.7954 8.29461C21.6394 8.04683 21.4331 7.83458 21.1899 7.67162C20.9466 7.50867 20.6718 7.39864 20.3833 7.34867C20.0948 7.2987 19.7991 7.30991 19.5152 7.38156C19.2313 7.45322 18.9656 7.58372 18.7354 7.76461L16.2054 9.76462V8.86462C16.2154 8.29162 16.1054 7.72362 15.8854 7.19462C15.4434 6.1292 14.5989 5.28116 13.5354 4.83462C13.0055 4.61695 12.4382 4.50486 11.8654 4.50462H6.07539C5.50566 4.50356 4.9414 4.61573 4.41539 4.83462C3.35187 5.28116 2.50742 6.1292 2.06539 7.19462C1.84651 7.72062 1.73433 8.28488 1.73539 8.85462V15.0246C1.73289 15.595 1.84389 16.1602 2.06192 16.6872C2.27996 17.2143 2.60067 17.6927 3.00539 18.0946C3.82162 18.9056 4.92477 19.362 6.07539 19.3646H11.9854C13.1364 19.3646 14.2403 18.9074 15.0542 18.0935C15.8681 17.2796 16.3254 16.1757 16.3254 15.0246V14.1146L18.8554 16.1146C19.1444 16.3446 19.4897 16.4931 19.8554 16.5446H20.1054C20.4177 16.5458 20.7259 16.4739 21.0054 16.3346C21.3575 16.162 21.6551 15.8955 21.8654 15.5646C22.0584 15.2346 22.1554 14.8566 22.1454 14.4746ZM9.44047 11.9346C10.2689 11.9346 10.9405 11.263 10.9405 10.4346C10.9405 9.60617 10.2689 8.9346 9.44047 8.9346C8.61205 8.9346 7.94047 9.60617 7.94047 10.4346C7.94047 11.263 8.61205 11.9346 9.44047 11.9346Z" fill="#3761EA"/>
</svg>
