<svg width="24" height="24" viewBox="0 0 24 24" fill="none" xmlns="http://www.w3.org/2000/svg">
<path d="M5.2103 2H12.1563C13.1746 2 14 2.82544 14 3.84368V7C14 8.10457 13.1055 9 12.0009 9H4.17071C0.682757 9 2.09451 5.32667 3.60131 2.86853C3.94188 2.31294 4.55863 2 5.2103 2Z" fill="#3761EA"/>
<path fill-rule="evenodd" clip-rule="evenodd" d="M2 10H22V17C22 19.2091 20.2091 21 18 21H6C3.79086 21 2 19.2091 2 17V10ZM9 18L15 18V19L9 19V18ZM7 18L4 18L4 19H7V18Z" fill="#37E3EA"/>
<rect x="15" y="2" width="7" height="7" rx="2" fill="#3761EA"/>
<path d="M17.7847 6.41875L20.2565 3.94688C20.3149 3.88854 20.3829 3.85938 20.4607 3.85938C20.5385 3.85938 20.6065 3.88854 20.6649 3.94688C20.7232 4.00521 20.7524 4.07453 20.7524 4.15483C20.7524 4.23514 20.7232 4.30436 20.6649 4.3625L17.9888 7.04583C17.9305 7.10417 17.8624 7.13333 17.7847 7.13333C17.7069 7.13333 17.6388 7.10417 17.5805 7.04583L16.3263 5.79167C16.268 5.73333 16.24 5.66411 16.2423 5.584C16.2447 5.50389 16.2751 5.43457 16.3336 5.37604C16.3921 5.31751 16.4615 5.28835 16.5416 5.28854C16.6217 5.28874 16.6909 5.3179 16.7492 5.37604L17.7847 6.41875Z" fill="white"/>
</svg>
