<svg width="32" height="32" viewBox="0 0 32 32" fill="none" xmlns="http://www.w3.org/2000/svg">
<g clip-path="url(#clip0_138_2132)">
<path d="M1.64023 15.9363C1.63953 18.4765 2.30328 20.9569 3.56539 23.1432L1.51953 30.6129L9.16391 28.6086C11.2782 29.7596 13.6472 30.3627 16.0545 30.3629H16.0609C24.0079 30.3629 30.477 23.8961 30.4804 15.9476C30.482 12.096 28.9834 8.47423 26.2606 5.74938C23.5384 3.02478 19.9179 1.52349 16.0603 1.52173C8.11227 1.52173 1.64363 7.98813 1.64035 15.9363" fill="url(#paint0_linear_138_2132)"/>
<path d="M1.12539 15.9316C1.12457 18.5632 1.81211 21.1323 3.11922 23.3969L1 31.1344L8.91848 29.0582C11.1003 30.2478 13.5568 30.875 16.0564 30.8759H16.0628C24.295 30.8759 30.9965 24.1765 31 15.9435C31.0014 11.9535 29.4489 8.20152 26.6289 5.37906C23.8086 2.55695 20.0586 1.00164 16.0628 1C7.82922 1 1.12867 7.69844 1.12539 15.9316ZM5.84113 23.0069L5.54547 22.5375C4.30258 20.5613 3.64656 18.2775 3.6475 15.9325C3.65008 9.08934 9.2193 3.52188 16.0675 3.52188C19.3839 3.52328 22.5006 4.81609 24.8448 7.16172C27.1889 9.50758 28.4788 12.6259 28.478 15.9426C28.475 22.7857 22.9056 28.3539 16.0628 28.3539H16.0579C13.8298 28.3527 11.6446 27.7544 9.73891 26.6236L9.28539 26.3547L4.58641 27.5867L5.84113 23.0069Z" fill="url(#paint1_linear_138_2132)"/>
<path d="M12.3293 9.68921C12.0497 9.06777 11.7554 9.05523 11.4895 9.04433C11.2718 9.03495 11.0229 9.03566 10.7742 9.03566C10.5253 9.03566 10.1209 9.12929 9.77906 9.50253C9.43687 9.87613 8.47266 10.7789 8.47266 12.6151C8.47266 14.4514 9.81012 16.226 9.99656 16.4753C10.1832 16.7241 12.5786 20.6128 16.3721 22.1089C19.525 23.3521 20.1666 23.1048 20.8508 23.0425C21.5352 22.9804 23.0591 22.1399 23.37 21.2684C23.6811 20.397 23.6811 19.65 23.5879 19.4939C23.4946 19.3384 23.2457 19.245 22.8724 19.0585C22.4992 18.8719 20.6641 17.9689 20.3221 17.8443C19.9799 17.7198 19.7311 17.6577 19.4822 18.0314C19.2333 18.4046 18.5186 19.245 18.3007 19.4939C18.0831 19.7434 17.8652 19.7745 17.4921 19.5878C17.1186 19.4005 15.9166 19.0069 14.4906 17.7355C13.3811 16.7462 12.632 15.5246 12.4143 15.1509C12.1965 14.7777 12.3909 14.5755 12.5781 14.3895C12.7458 14.2223 12.9514 13.9537 13.1382 13.7358C13.3243 13.5178 13.3864 13.3623 13.5109 13.1134C13.6355 12.8643 13.5731 12.6463 13.48 12.4596C13.3864 12.273 12.6612 10.4271 12.3293 9.68921Z" fill="white"/>
</g>
<defs>
<linearGradient id="paint0_linear_138_2132" x1="1449.56" y1="2910.64" x2="1449.56" y2="1.52173" gradientUnits="userSpaceOnUse">
<stop stop-color="#1FAF38"/>
<stop offset="1" stop-color="#60D669"/>
</linearGradient>
<linearGradient id="paint1_linear_138_2132" x1="1501" y1="3014.44" x2="1501" y2="1" gradientUnits="userSpaceOnUse">
<stop stop-color="#F9F9F9"/>
<stop offset="1" stop-color="white"/>
</linearGradient>
<clipPath id="clip0_138_2132">
<rect width="30" height="30.2344" fill="white" transform="translate(1 1)"/>
</clipPath>
</defs>
</svg>
