<svg width="32" height="32" viewBox="0 0 32 32" fill="none" xmlns="http://www.w3.org/2000/svg">
<g clip-path="url(#clip0_138_2111)">
<path d="M6.80375 2.90186C4.70574 2.90186 3 4.6076 3 6.70561V25.7244C3 27.8224 4.70574 29.5281 6.80375 29.5281H25.8225C27.9205 29.5281 29.6263 27.8224 29.6263 25.7244V6.70561C29.6263 4.6076 27.9205 2.90186 25.8225 2.90186H6.80375ZM24.4615 7.89428L18.2923 14.9431L25.5491 24.5357H19.8673L15.4216 18.7171L10.3282 24.5357H7.50507L14.1022 16.9936L7.14252 7.89428H12.967L16.9907 13.2136L21.6384 7.89428H24.4615ZM22.2149 22.8478L12.1171 9.49304H10.4351L20.6458 22.8478H22.2089H22.2149Z" fill="black"/>
</g>
<defs>
<clipPath id="clip0_138_2111">
<rect width="26.6263" height="30.43" fill="white" transform="translate(3 1)"/>
</clipPath>
</defs>
</svg>
